<svg height='100px' width='100px'  fill="#160F30" xmlns="http://www.w3.org/2000/svg" xmlns:xlink="http://www.w3.org/1999/xlink" version="1.1" x="0px" y="0px" viewBox="0 0 20 20" enable-background="new 0 0 20 20" xml:space="preserve"><g><ellipse fill="#160F30" cx="3" cy="13.5" rx="1" ry="1.5"></ellipse><path fill="#160F30" d="M15,13.5c0-1.4,0.9-2.5,2-2.5h0V9.4c0-0.3-0.3-0.5-0.5-0.4l-6.4,1.8c-0.1,0-0.1,0-0.2,0L3.5,9   C3.3,8.9,3,9.1,3,9.4V11c0,0,0,0,0,0c1.1,0,2,1.1,2,2.5c0,1.4-0.9,2.5-2,2.5c0,0,0,0,0,0v1.7c0,0.2,0.1,0.3,0.3,0.4L9.9,20   c0.1,0,0.1,0,0.2,0l6.6-1.9c0.2,0,0.3-0.2,0.3-0.4v-1.7h0C15.9,16.1,15,14.9,15,13.5z"></path><ellipse fill="#160F30" cx="17" cy="13.5" rx="1" ry="1.5"></ellipse><path fill="#160F30" d="M14.4,8.6C13.5,7,11.9,6,10,6C8.1,6,6.5,7,5.7,8.6L10,9.8L14.4,8.6z"></path><circle fill="#160F30" cx="10" cy="3" r="3"></circle></g></svg>
