<svg height='100px' width='100px'  fill="#000000" xmlns="http://www.w3.org/2000/svg" xmlns:xlink="http://www.w3.org/1999/xlink" version="1.1" x="0px" y="0px" viewBox="0 0 100 100" style="enable-background:new 0 0 100 100;" xml:space="preserve"><g><path d="M88.03125,12.2336769c-0.1430664-0.144043-0.3139648-0.2290039-0.5405273-0.2207031   c-3.3149414,0.0400391-6.6518555,0.3916016-9.9165039,1.0439453C66.8979492,15.1702003,57.1899414,20.3523293,49.5,28.0427589   c-1.1552734,1.1552734-2.2768555,2.3789063-3.3427734,3.6484375l-4.2927246,5.303894l-17.8562012,4.0325317   c-0.3227539,0.0737305-0.6166992,0.2358398-0.8505859,0.4697266L12.7880859,51.8669777   c-0.3598633,0.3598633-0.5449219,0.8574219-0.5078125,1.3647461c0.0371094,0.5078125,0.2924805,0.9726563,0.7006836,1.2763672   l9.3572998,6.9637451l1.9105225,1.9105225l-3.7458496,7.2360878c-0.1503906,0.2900391-0.0952148,0.644043,0.1357422,0.875   l1.2626343,1.2626343c-0.489502,0.3644409-0.9675293,0.7562256-1.4154663,1.2041626   c-2.7641602,2.7641602-5.6552734,10.934082-5.7768555,11.2807617c-0.0957031,0.2724609-0.0268555,0.5751953,0.1777344,0.7792969   c0.1430664,0.1425781,0.3344727,0.2192383,0.5297852,0.2192383c0.0834961,0,0.1679688-0.0141602,0.2495117-0.0424805   c0.3461914-0.1220703,8.5078125-3.0214844,11.2714844-5.7851563c0-0.0004883,0-0.0004883,0-0.0004883   c0.4476929-0.4473267,0.8395386-0.925415,1.2041016-1.4150391l0.6279297,0.6279297   c0.144043,0.144043,0.3359375,0.2197266,0.5302734,0.2197266c0.1176758,0,0.2358398-0.0273438,0.3447266-0.0839844   l7.236084-3.7458496l1.9105225,1.9105225l6.9637451,9.3572998c0.3037109,0.4082031,0.7685547,0.6635742,1.2763672,0.7006836   c0.0424805,0.003418,0.0854492,0.0048828,0.1279297,0.0048828c0.4624023,0,0.9072266-0.1831055,1.2368164-0.5126953   L58.765625,77.1052628c0.2338867-0.2338867,0.3959961-0.527832,0.4697266-0.8520508l4.0020142-17.7194252l5.3446655-4.4363403   c1.2539063-1.0517578,2.4711914-2.1665039,3.6181641-3.3139648c7.7485352-7.7490234,12.9448242-17.5136719,15.0253906-28.2333984   c0.628418-3.1430664,0.9731445-6.4321289,1.0244141-9.7758789C88.2529297,12.5720558,88.1743164,12.3767433,88.03125,12.2336769z    M13.8764648,53.304966c-0.0800781-0.0595703-0.097168-0.1401367-0.1000977-0.1826172   c-0.003418-0.0424805,0.0019531-0.1245117,0.0722656-0.1948242l10.3696289-10.3696289   c0.0336914-0.0336914,0.0761719-0.0566406,0.121582-0.0673828l15.9482422-3.6015625l-3.8668213,4.6315918L22.7426758,59.9032326   L13.8764648,53.304966z M25.8769531,79.3503799c0,0.0004883,0,0.0004883,0,0.0004883   c-1.8486328,1.8486328-6.6889648,3.8867188-9.1801758,4.8569336c0.9672852-2.4931641,3.0014648-7.3388672,4.8496094-9.1870117   c0.4418945-0.4418945,0.9243164-0.8510742,1.4165039-1.203125l4.1171875,4.1171875   C26.7280273,78.4270401,26.3188477,78.9089737,25.8769531,79.3503799z M29.4423828,78.1755753l-7.3549805-7.3549805   l3.274353-6.3252563l10.4058838,10.4058838L29.4423828,78.1755753z M57.7724609,75.921669   c-0.0107422,0.046875-0.0336914,0.0893555-0.0673828,0.1230469L47.3354492,86.4143448   c-0.0703125,0.0698242-0.1533203,0.0742188-0.1948242,0.0722656c-0.0424805-0.0029297-0.1230469-0.0200195-0.1826172-0.1000977   l-6.5969238-8.8644409l20.9835815-17.4173012L57.7724609,75.921669z M85.7539063,22.2600441   c-2.0244141,10.4296875-7.078125,19.9257813-14.6142578,27.4628906c-1.1166992,1.1162109-2.3012695,2.2016602-3.5185547,3.2226563   l-5.1958618,4.3128052c-0.1115723,0.0259399-0.2199097,0.0689087-0.3119507,0.1456909L39.3753052,76.3877945l-1.8021851-1.8021851   c-0.0062256-0.0067139-0.0075073-0.0163574-0.0140381-0.0228271L25.7001953,62.7038918   c-0.0064087-0.0064087-0.0160522-0.0076904-0.022644-0.013855l-1.8023682-1.8023682l9.5789185-11.4732666l9.4091797-11.2695923   l4.4511719-5.4995117c1.0292969-1.2255859,2.121582-2.4174805,3.2460938-3.5419922   c7.4794922-7.4794922,16.9213867-12.5195313,27.3061523-14.5751953c2.9208984-0.5834961,5.8994141-0.9194336,8.8662109-1   C86.6450195,16.5129738,86.3168945,19.445591,85.7539063,22.2600441z"></path><path d="M65.6166992,27.8030128c-1.828125,0-3.5463867,0.7124023-4.8388672,2.0048828   c-2.6679688,2.6679688-2.6679688,7.0092773,0,9.6772461c1.3339844,1.3339844,3.0864258,2.0009766,4.8388672,2.0009766   c1.7519531,0,3.5043945-0.6669922,4.8383789-2.0009766c1.2924805-1.2924805,2.0048828-3.0107422,2.0048828-4.8388672   c0-1.8276367-0.7124023-3.5458984-2.0048828-4.8383789S67.4443359,27.8030128,65.6166992,27.8030128z M69.3945313,38.4245949   c-2.0834961,2.0834961-5.4736328,2.0825195-7.5561523,0c-2.0830078-2.0834961-2.0830078-5.4726563,0-7.5561523   c1.0092773-1.0092773,2.3510742-1.5654297,3.7783203-1.5654297c1.4267578,0,2.7685547,0.5561523,3.777832,1.5654297   s1.5654297,2.3510742,1.5654297,3.777832C70.9599609,36.0735207,70.4038086,37.4153175,69.3945313,38.4245949z"></path><path d="M48.7397461,51.5232277c0.1464844,0.1464844,0.3383789,0.2197266,0.5302734,0.2197266   s0.3837891-0.0732422,0.5302734-0.2197266l6.6953125-6.6953125c0.2929688-0.2929688,0.2929688-0.7675781,0-1.0605469   s-0.7675781-0.2929688-1.0605469,0l-6.6953125,6.6953125C48.4467773,50.7556496,48.4467773,51.2302589,48.7397461,51.5232277z"></path><path d="M49.7705078,40.1809425c-0.3095703-0.2773438-0.7832031-0.2490234-1.059082,0.0581055L33.2749023,57.4792824   c-0.2763672,0.3085938-0.2504883,0.7827148,0.0581055,1.059082c0.1435547,0.128418,0.3222656,0.1914063,0.5,0.1914063   c0.2060547,0,0.4111328-0.0844727,0.559082-0.2495117l15.4365234-17.2402344   C50.1049805,40.9314308,50.0791016,40.4573097,49.7705078,40.1809425z"></path><path d="M59.0229492,50.4343605L41.7827148,65.8708878c-0.3085938,0.2763672-0.3344727,0.7504883-0.0581055,1.059082   c0.1479492,0.1650391,0.3530273,0.2495117,0.559082,0.2495117c0.1777344,0,0.3564453-0.0629883,0.5-0.1914063L60.0239258,51.551548   c0.3085938-0.2763672,0.3344727-0.7504883,0.0581055-1.059082C59.8061523,50.1848488,59.3325195,50.1570168,59.0229492,50.4343605z   "></path></g></svg>