<svg height='100px' width='100px'  fill="#160F30" xmlns="http://www.w3.org/2000/svg" data-name="Layer 1" viewBox="0 0 24 24" x="0px" y="0px"><title>picture, image, img, art, artwork, photo</title><circle cx="7" cy="7" r="2"></circle><path d="M20,0H4A4,4,0,0,0,0,4V20a4,4,0,0,0,4,4H20a4,4,0,0,0,4-4V4A4,4,0,0,0,20,0Zm1,19.59247-3.97974-7.96173a1.14062,1.14062,0,0,0-2.04052,0L13.377,14.837a.50013.50013,0,0,1-.89477,0l-.666-1.3324a.91252.91252,0,0,0-1.63244,0L6.43719,21H4a1.00115,1.00115,0,0,1-1-1V4A1.00115,1.00115,0,0,1,4,3H20a1.00115,1.00115,0,0,1,1,1Z"></path></svg>
