<svg height='100px' width='100px'  fill="#160F30" xmlns="http://www.w3.org/2000/svg" data-name="Layer 1" viewBox="0 0 128 128" x="0px" y="0px"><title>expandline</title><path d="M127.75834,1.0485a1.99986,1.99986,0,0,0-2.71141-.80663c-10.28264,5.56926-16.77283,16.10722-17.89538,28.9967L88.74738,45.44832c-.28467.2539-2.78074,2.56637-2.74705,5.60442a5.768,5.768,0,0,0,2.21483,4.39838c2.29246,2.00193,4.82907,4.25678,5.73971,5.12005-.00439.02539-.0083.05078-.01221.07617l-.10742.76854c-.15234,1.08592-.3042,2.17185-.43164,3.25582-.28662,2.42673,1.68407,3.58784,2.42723,4.02534.26709.15625.75732.37988,2.09081.97655.06787.03027.13916.0625.21387.0957a18.801,18.801,0,0,1-2.90037.9619,1.99989,1.99989,0,0,0-1.3872,1.29491c-.16455.48828-3.97409,12.05356,1.37255,20.33372a20.51721,20.51721,0,0,0,9.62884,7.71475c11.79679,4.92572,15.27772,12.73519,11.28605,25.32a1.99979,1.99979,0,1,0,3.81247,1.209c4.62887-14.59259.19433-24.4782-13.55752-30.22032a16.60317,16.60317,0,0,1-7.80951-6.19328c-3.50339-5.42571-1.93749-13.17757-1.22607-15.89726a20.38286,20.38286,0,0,0,3.67087-1.46483c.64892-.31738,1.38427-.67675,2.48143-1.12987a2.04393,2.04393,0,0,0,1.25243-1.83982c.021-1.49705-.57373-1.76365-5.20358-3.83589-.68505-.30664-1.53807-.68847-1.69725-.77343a5.19457,5.19457,0,0,1-.46045-.29492c.11914-.99413.25879-1.98923.39795-2.98336l.10547-.75194a3.832,3.832,0,0,0-.34179-2.57223c-.19824-.35839-.36963-.66894-6.73237-6.22453a1.84659,1.84659,0,0,1-.82763-1.40428,4.33688,4.33688,0,0,1,1.39989-2.57516L110.404,31.70435a1.99952,1.99952,0,0,0,.67334-1.36424C112.195,14.08837,121.503,6.71053,126.95219,3.7594A2.0002,2.0002,0,0,0,127.75834,1.0485Z"></path><path d="M34.15207,72.0261a1.99989,1.99989,0,0,0-1.3872-1.29491,18.801,18.801,0,0,1-2.90037-.9619c.07471-.0332.146-.06543.21387-.0957,1.33349-.59667,1.82372-.8203,2.09227-.97753.74169-.43652,2.71238-1.59764,2.42576-4.02241-.12744-1.08592-.27929-2.17185-.43164-3.25777l-.10742-.76854c-.00391-.02539-.00781-.05078-.01221-.07617.91064-.86327,3.4448-3.11617,5.72115-5.10443a5.78574,5.78574,0,0,0,2.23338-4.414c.03369-3.038-2.46238-5.35052-2.75584-5.61223L20.84845,29.23857C19.7259,16.34908,13.23571,5.81113,2.95307.24186A2.00019,2.00019,0,0,0,1.04781,3.7594C6.497,6.71053,15.805,14.08837,16.9227,30.34011a1.99952,1.99952,0,0,0,.67334,1.36424L36.5832,48.42777a4.34766,4.34766,0,0,1,1.417,2.58981,1.871,1.871,0,0,1-.84619,1.4199c-6.34419,5.54-6.51558,5.85051-6.70552,6.19426a3.94924,3.94924,0,0,0-.3374,2.67672l.09277.6621c.13916.99413.27881,1.98826.39795,2.98336a4.93555,4.93555,0,0,1-.437.28125c-.18262.09863-1.03564.48046-1.72069.7871-4.62985,2.07224-5.22457,2.33884-5.20358,3.83589a2.04544,2.04544,0,0,0,1.25341,1.8408c1.09618.45214,1.83153.81151,2.48045,1.12889a20.38286,20.38286,0,0,0,3.67087,1.46483c.7124,2.72262,2.27635,10.47252-1.22607,15.89726a16.60317,16.60317,0,0,1-7.80951,6.19328C7.85782,102.12533,3.42328,112.01095,8.05216,126.60353a1.99978,1.99978,0,0,0,3.81247-1.209c-3.99167-12.5848-.51074-20.39427,11.28605-25.32a20.51721,20.51721,0,0,0,9.62884-7.71475C38.12616,84.07966,34.31662,72.51438,34.15207,72.0261Z"></path><path d="M87.49153,104.9417V100.432a6.17736,6.17736,0,0,0-1.48534-4.03315l-.00049-.001C81.4779,91.1411,60.44192,63.2352,91.073,30.0032A3.971,3.971,0,0,0,92.1038,26.93a4.03577,4.03577,0,0,0-1.63134-2.85934,19.83263,19.83263,0,0,0-15.81141-3.29293,25.60759,25.60759,0,0,0-2.77635-6.25285A10.23256,10.23256,0,0,0,73.0932,9.69878C73.0932,4.35119,69.01412.00066,64,.00066s-9.0932,4.35053-9.0932,9.69812a10.23256,10.23256,0,0,0,1.20849,4.82611,25.60759,25.60759,0,0,0-2.77635,6.25285,19.8315,19.8315,0,0,0-15.81141,3.29293A4.03577,4.03577,0,0,0,35.8962,26.93a3.97247,3.97247,0,0,0,1.03027,3.0732c30.63162,33.232,9.59563,61.13789,5.06735,66.39564a6.17736,6.17736,0,0,0-1.48534,4.03315v4.50971a6.93182,6.93182,0,0,0-5.35592,6.86612v12.19125a4.00423,4.00423,0,0,0,4,3.99995h49.695a4.00423,4.00423,0,0,0,4-3.99995V111.80782A6.93182,6.93182,0,0,0,87.49153,104.9417ZM39.89177,27.29718c2.2993-1.68553,7.228-4.207,14.4125-2.18064A2.00685,2.00685,0,0,0,56.83355,23.43a19.95913,19.95913,0,0,1,3.30857-7.77334,2.00119,2.00119,0,0,0-.05322-2.31638,6.12078,6.12078,0,0,1-1.18212-3.64156c0-3.14156,2.28465-5.69817,5.09323-5.69817s5.09323,2.55661,5.09323,5.69817a6.12078,6.12078,0,0,1-1.18212,3.64156,2.00119,2.00119,0,0,0-.05322,2.31638,19.97454,19.97454,0,0,1,3.30759,7.76455,2.00067,2.00067,0,0,0,2.53026,1.69529c7.186-2.02927,12.11368.49609,14.43642,2.17575C80.84564,35.19753,76.29435,42.83519,73.67181,50H54.33869C51.71926,42.83654,47.17224,35.20046,39.89177,27.29718ZM72.38928,54c-.3728,1.35344-.67639,2.68661-.921,3.99995h-14.929c-.24414-1.31334-.5473-2.64651-.91961-3.99995ZM57.107,61.99987H70.89943C69.265,78.67019,77.1495,91.47813,81.35382,96.99942H46.64618C50.85062,91.478,58.7363,78.6697,57.107,61.99987Zm-12.59854,38.9995H83.49156v3.99995H44.50844Zm44.339,22.99971h-49.695V111.80782a2.99246,2.99246,0,0,1,1.77159-2.81625c.02582.001.05.00769.076.00769H86.99984c.02606,0,.05023-.00671.076-.00769a2.99246,2.99246,0,0,1,1.77159,2.81625Z"></path></svg>
