<svg height='100px' width='100px'  fill="#107595" xmlns="http://www.w3.org/2000/svg" xmlns:xlink="http://www.w3.org/1999/xlink" version="1.1" x="0px" y="0px" viewBox="0 0 100 100" style="enable-background:new 0 0 100 100;" xml:space="preserve"><g><path d="M78.8,14.3c4,0,7.2-3.2,7.2-7.1c0-3.9-3.2-7.1-7.2-7.1c-4,0-7.2,3.2-7.2,7.1C71.6,11.1,74.8,14.3,78.8,14.3z"></path><path d="M77.8,63.6l0-6.5h1.9l0,6.5c0,2.3,0.2,4.2,2.6,4.2S85,66,85,63.6l0.2-6.5h7.9L85.7,35l0.2-10h3.6v7.1   c0,4.6,3.6,4.4,3.5-0.2v-5.3c0-5-4.6-8.8-10.7-8.8h-7.1c-5.5,0-10.7,3.2-10.7,8.7V32c0,4.5,3.6,4.7,3.6,0.2V25h3.6l0.3,10   l-7.4,22.2h8l0.2,6.5c0,2.3,0.2,4.2,2.6,4.2C77.6,67.9,77.8,66,77.8,63.6z"></path><path d="M21.2,14.3c4,0,7.2-3.2,7.2-7.1c0-3.9-3.2-7.1-7.2-7.1c-4,0-7.2,3.2-7.2,7.1C14,11.1,17.2,14.3,21.2,14.3z"></path><path d="M20.3,63.6l0-17.8h2l0,17.8c0,2.3,0.2,4.2,2.6,4.2s2.6-1.9,2.6-4.2l1-38.6h3.6v17.9c0,4.6,3.6,4.4,3.5-0.2v-16   c0-5-4.6-8.8-10.7-8.8h-7.1c-5.5,0-10.7,3.2-10.7,8.7v16.1c0,4.5,3.6,4.7,3.6,0.2V25h3.6l1,38.6c0,2.3,0.2,4.2,2.6,4.2   C20.1,67.9,20.3,66,20.3,63.6z"></path><path d="M82.4,67.9h-7.1H62.5V75h10.7c1.4,0,3.6,2.2,3.6,3.6v3.6H23.2v-3.6c0-1.4,2.1-3.6,3.6-3.6h10.7v-7.1H24.8h-7.1H5.4V75h10.7   c1.4,0,3.6,2.2,3.6,3.6v3.6v3.6h25c1.4,0,3.6,2.2,3.6,3.6v3.6c0,1.4-10.8,7.1-9.4,7.1h22.3c1.4,0-9.4-5.8-9.4-7.1v-3.6   c0-1.4,2.1-3.6,3.6-3.6h25v-3.6v-3.6c0-1.4,2.1-3.6,3.6-3.6h10.7v-7.1H82.4z"></path></g></svg>
