<svg height='100px' width='100px'  fill="#160F30" xmlns="http://www.w3.org/2000/svg" xmlns:xlink="http://www.w3.org/1999/xlink" version="1.1" x="0px" y="0px" viewBox="0 0 64 64" style="enable-background:new 0 0 64 64;" xml:space="preserve"><rect x="6" y="50" width="3" height="2"></rect><rect x="6" y="46" width="6" height="2"></rect><rect x="6" y="42" width="8" height="2"></rect><rect x="6" y="54" width="2" height="2"></rect><path d="M45,50v2h8.586l-2.293,2.293l1.414,1.414l4-4c0.391-0.391,0.391-1.023,0-1.414l-4-4l-1.414,1.414L53.586,50H45z"></path><path d="M56.241,9.35l-5.297,6.18l-3.236-3.236l-1.414,1.414l4,4C50.481,17.895,50.735,18,51,18c0.013,0,0.025,0,0.039-0.001  c0.278-0.011,0.54-0.137,0.721-0.349l6-7L56.241,9.35z"></path><path d="M62,13c0-6.065-4.935-11-11-11c-4.82,0-8.917,3.121-10.399,7.445C39.421,9.153,38.215,9,37,9H26  c-0.472,0-0.947,0.032-1.423,0.08l0.03-0.03c0.391-0.391,0.391-1.023,0-1.414l-4.243-4.242c-0.391-0.391-1.023-0.391-1.414,0  L18,4.343V3c0-0.553-0.448-1-1-1h-6c-0.552,0-1,0.447-1,1v1.343L9.05,3.394c-0.391-0.391-1.023-0.391-1.414,0L3.394,7.636  c-0.391,0.391-0.391,1.023,0,1.414L4.343,10H3c-0.552,0-1,0.447-1,1v6c0,0.553,0.448,1,1,1h1.343l-0.95,0.95  c-0.391,0.391-0.391,1.023,0,1.414l4.243,4.242c0.391,0.391,1.023,0.391,1.414,0L10,23.657V25c0,0.553,0.448,1,1,1v12H3  c-0.552,0-1,0.447-1,1v22c0,0.553,0.448,1,1,1h16c0.552,0,1-0.447,1-1v-7.269C21.892,54.561,23.936,55,26,55h11  c1.215,0,2.421-0.153,3.601-0.445C42.083,58.879,46.18,62,51,62c6.065,0,11-4.935,11-11c0-5.729-4.403-10.443-10.002-10.949  C51.998,40.034,52,40.017,52,40V24c0-0.017-0.002-0.034-0.002-0.051C57.597,23.443,62,18.729,62,13z M10.558,21.213  c-0.382-0.183-0.838-0.104-1.137,0.195l-1.078,1.077l-2.829-2.828l1.078-1.078c0.3-0.3,0.378-0.757,0.195-1.14  c-0.121-0.251-0.228-0.509-0.322-0.773C6.324,16.267,5.946,16,5.523,16H4v-4h1.523c0.423,0,0.801-0.267,0.942-0.666  c0.094-0.265,0.201-0.522,0.322-0.773c0.183-0.383,0.105-0.84-0.195-1.14L5.515,8.343l2.829-2.828l1.078,1.077  c0.299,0.301,0.754,0.379,1.137,0.196c0.252-0.12,0.51-0.228,0.775-0.321C11.732,6.325,12,5.947,12,5.523V4h4v1.523  c0,0.424,0.268,0.802,0.667,0.943c0.266,0.094,0.523,0.201,0.775,0.321c0.382,0.183,0.837,0.104,1.137-0.196l1.078-1.077  l2.829,2.828l-1.078,1.078c-0.3,0.3-0.378,0.757-0.195,1.14c0.053,0.11,0.093,0.227,0.141,0.339c0.001,0.002,0,0.005,0.001,0.007  l0.036,0.084c0.044,0.108,0.095,0.214,0.135,0.324c0.002,0.006,0.005,0.012,0.007,0.018c0,0,0,0,0,0.001c0,0,0,0,0,0  c0.006,0.016,0.017,0.028,0.023,0.043c0.034,0.082,0.072,0.161,0.124,0.229c0.042,0.055,0.095,0.097,0.147,0.142  c0.025,0.022,0.044,0.05,0.071,0.069c0.062,0.044,0.133,0.073,0.203,0.102c0.023,0.01,0.043,0.026,0.068,0.034  c0.097,0.031,0.2,0.048,0.306,0.048H24v4h-1.523c-0.423,0-0.801,0.267-0.942,0.666c-0.094,0.265-0.201,0.522-0.322,0.773  c-0.183,0.383-0.105,0.84,0.195,1.14l1.078,1.078l-2.829,2.828l-1.078-1.077c-0.3-0.3-0.755-0.378-1.137-0.195  c-0.251,0.119-0.509,0.227-0.775,0.32C16.268,21.675,16,22.053,16,22.477V24h-4v-1.523c0-0.424-0.268-0.802-0.667-0.943  C11.067,21.439,10.81,21.332,10.558,21.213z M18,60H4V40h8h1.586L18,44.414v0.293l-6.707,6.707c-0.01,0.01-0.013,0.024-0.023,0.034  c-0.078,0.085-0.146,0.179-0.192,0.289c-0.001,0.004-0.004,0.007-0.006,0.01c0,0.001-0.001,0.002-0.001,0.003l-2,5  c-0.148,0.371-0.061,0.795,0.222,1.078C9.484,58.02,9.74,58.121,10,58.121c0.125,0,0.251-0.023,0.372-0.071l5-2  c0.001,0,0.002-0.001,0.003-0.002c0.003-0.001,0.005-0.003,0.007-0.004c0.111-0.046,0.206-0.115,0.292-0.194  c0.01-0.009,0.024-0.012,0.034-0.022L18,53.535V60z M23.708,43.272c0.026,0.022,0.059,0.031,0.084,0.056  c0.212,0.212,0.329,0.494,0.329,0.793c0,0.3-0.117,0.581-0.329,0.793L23,45.707l-1.586-1.586l0.793-0.793  C22.62,42.917,23.268,42.908,23.708,43.272z M18.293,50.414L15,53.707l-1.586-1.586l6.293-6.293L20,45.535l1.586,1.586  L18.293,50.414z M12.365,53.9l0.855,0.855l-1.426,0.57L12.365,53.9z M40.125,52.617C39.102,52.871,38.054,53,37,53H26  c-2.079,0-4.138-0.508-5.99-1.475l5.197-5.197c0.59-0.589,0.915-1.373,0.915-2.207s-0.325-1.618-0.915-2.207  c-1.217-1.217-3.197-1.217-4.414,0l-1.232,1.232l-4.854-4.854C14.52,38.105,14.265,38,14,38h-1V26h4c0.552,0,1-0.447,1-1v-1.343  l0.95,0.949c0.391,0.391,1.023,0.391,1.414,0l4.243-4.242c0.391-0.391,0.391-1.023,0-1.414L23.657,18H25c0.552,0,1-0.447,1-1v-6h11  c1.054,0,2.102,0.129,3.125,0.383c-0.01,0.063-0.013,0.125-0.022,0.187c-0.021,0.161-0.042,0.321-0.056,0.484  C40.019,12.372,40,12.688,40,13c0,0.368,0.02,0.731,0.055,1.089c0.014,0.143,0.042,0.282,0.061,0.423  c0.029,0.211,0.055,0.424,0.097,0.631c0.035,0.177,0.084,0.348,0.127,0.521c0.041,0.165,0.078,0.332,0.127,0.494  c0.058,0.192,0.128,0.378,0.195,0.565c0.049,0.136,0.095,0.274,0.149,0.408c0.081,0.198,0.172,0.39,0.264,0.583  c0.055,0.115,0.107,0.231,0.166,0.344c0.104,0.199,0.217,0.392,0.332,0.584c0.059,0.098,0.116,0.197,0.178,0.292  c0.126,0.195,0.259,0.384,0.397,0.57c0.063,0.085,0.124,0.17,0.189,0.253c0.146,0.187,0.299,0.367,0.457,0.544  c0.066,0.074,0.133,0.148,0.201,0.221c0.165,0.175,0.335,0.344,0.511,0.509c0.071,0.066,0.142,0.131,0.215,0.195  c0.181,0.16,0.366,0.315,0.557,0.463c0.077,0.06,0.155,0.117,0.234,0.175c0.194,0.143,0.392,0.28,0.596,0.41  c0.084,0.054,0.17,0.104,0.255,0.155c0.205,0.123,0.412,0.242,0.626,0.352c0.093,0.048,0.189,0.091,0.284,0.137  c0.213,0.102,0.427,0.201,0.647,0.289c0.104,0.042,0.21,0.077,0.315,0.115c0.218,0.08,0.437,0.158,0.661,0.225  c0.114,0.034,0.231,0.059,0.346,0.089c0.222,0.058,0.443,0.116,0.671,0.159c0.123,0.024,0.25,0.038,0.375,0.057  c0.226,0.036,0.45,0.073,0.68,0.095c0.011,0.001,0.021,0.003,0.032,0.004c0,0.016,0,0.032,0,0.048v16c0,0.016,0,0.032,0,0.048  c-0.011,0.001-0.021,0.003-0.032,0.004c-0.23,0.021-0.455,0.059-0.68,0.095c-0.125,0.02-0.251,0.034-0.375,0.057  c-0.227,0.044-0.449,0.102-0.671,0.159c-0.115,0.03-0.232,0.056-0.346,0.089c-0.224,0.066-0.443,0.145-0.661,0.225  c-0.105,0.039-0.211,0.074-0.315,0.115c-0.22,0.088-0.434,0.187-0.647,0.289c-0.095,0.045-0.19,0.089-0.284,0.137  c-0.214,0.11-0.421,0.229-0.626,0.352c-0.086,0.051-0.171,0.102-0.255,0.155c-0.204,0.13-0.401,0.268-0.596,0.41  c-0.079,0.058-0.157,0.115-0.234,0.175c-0.191,0.148-0.376,0.303-0.557,0.463c-0.073,0.064-0.144,0.129-0.215,0.195  c-0.176,0.164-0.346,0.333-0.511,0.509c-0.068,0.073-0.135,0.147-0.201,0.221c-0.158,0.177-0.311,0.357-0.457,0.544  c-0.065,0.083-0.127,0.168-0.189,0.253c-0.137,0.187-0.271,0.375-0.397,0.57c-0.062,0.096-0.119,0.195-0.178,0.292  c-0.115,0.192-0.228,0.385-0.332,0.584c-0.059,0.113-0.111,0.229-0.166,0.344c-0.092,0.192-0.183,0.384-0.264,0.583  c-0.055,0.134-0.1,0.271-0.149,0.408c-0.068,0.187-0.138,0.373-0.195,0.565c-0.049,0.162-0.086,0.329-0.127,0.494  c-0.043,0.174-0.092,0.345-0.127,0.521c-0.041,0.207-0.067,0.42-0.097,0.631c-0.02,0.141-0.047,0.28-0.061,0.423  C40.02,50.269,40,50.632,40,51c0,0.312,0.019,0.628,0.048,0.946c0.014,0.163,0.035,0.323,0.056,0.484  C40.112,52.492,40.116,52.554,40.125,52.617z M60,51c0,4.963-4.038,9-9,9c-4.241,0-7.797-2.952-8.744-6.907  c-0.084-0.352-0.148-0.703-0.19-1.051c0-0.003-0.001-0.006-0.001-0.009C42.022,51.684,42,51.339,42,51  c0-0.309,0.016-0.614,0.046-0.914c0.459-4.511,4.279-8.06,8.908-8.083c0.001,0,0.002-0.001,0.003-0.001  C50.972,42.002,50.986,42,51,42C55.962,42,60,46.037,60,51z M51,22c-0.014,0-0.028-0.002-0.042-0.002  c-0.001,0-0.003-0.001-0.004-0.001c-4.629-0.023-8.448-3.572-8.908-8.083C42.016,13.614,42,13.309,42,13  c0-0.339,0.022-0.684,0.064-1.033c0-0.003,0.001-0.006,0.001-0.009c0.043-0.347,0.106-0.698,0.19-1.051C43.203,6.952,46.759,4,51,4  c4.962,0,9,4.037,9,9S55.962,22,51,22z"></path><path d="M16.071,20c0.265,0,0.52-0.105,0.707-0.293l2.929-2.929C19.895,16.591,20,16.337,20,16.071v-4.143  c0-0.266-0.105-0.52-0.293-0.707l-2.929-2.929C16.591,8.105,16.336,8,16.071,8h-4.143c-0.265,0-0.52,0.105-0.707,0.293l-2.929,2.929  C8.105,11.409,8,11.663,8,11.929v4.143c0,0.266,0.105,0.52,0.293,0.707l2.929,2.929C11.409,19.895,11.664,20,11.929,20H16.071z   M10,15.657v-3.314L12.343,10h3.314L18,12.343v3.314L15.657,18h-3.314L10,15.657z"></path><path d="M41,38v-1c0-3.244-2.222-5.972-5.222-6.762C36.529,29.363,37,28.241,37,27c0-2.757-2.243-5-5-5s-5,2.243-5,5  c0,1.241,0.471,2.363,1.222,3.238C25.222,31.028,23,33.756,23,37v1c0,0.553,0.448,1,1,1h16C40.552,39,41,38.553,41,38z M32,24  c1.654,0,3,1.346,3,3s-1.346,3-3,3s-3-1.346-3-3S30.346,24,32,24z M25,37c0-2.757,2.243-5,5-5h4c2.757,0,5,2.243,5,5H25z"></path></svg>
