<svg height='100px' width='100px'  fill="#FFFFFF" xmlns="http://www.w3.org/2000/svg" xmlns:xlink="http://www.w3.org/1999/xlink" version="1.1" x="0px" y="0px" viewBox="0 0 500 500" enable-background="new 0 0 500 500" xml:space="preserve"><g><g><circle cx="249.9" cy="128.8" r="87.9"></circle><g><path d="M322.8,128.8c0,2.3-0.1,4.7-0.3,7c-0.1,1-0.8,5.9-0.3,2.9c-0.8,4.5-1.8,8.9-3.1,13.2     c-0.7,2.1-1.4,4.2-2.3,6.3c1.1-2.7-0.8,1.6-1.2,2.5c-2,3.9-4.2,7.7-6.8,11.3c-0.5,0.7-1,1.4-1.5,2.1c1.7-2.3,0,0-0.5,0.6     c-1.3,1.5-2.6,3-3.9,4.4c-1.5,1.6-3.1,3.1-4.7,4.6c-0.6,0.6-1.3,1.2-2,1.7c-0.2,0.2-3.6,2.9-1.1,0.9c-3.2,2.4-6.5,4.5-9.9,6.5     c-1.7,1-3.5,1.8-5.3,2.7c-0.7,0.3-3.4,1.5-0.7,0.4c-1.2,0.5-2.5,1-3.7,1.4c-3.8,1.4-7.7,2.5-11.7,3.3c-0.9,0.2-1.8,0.3-2.7,0.5     c-4.3,0.9,1.9-0.2-0.8,0.2c-2.5,0.3-5.1,0.5-7.6,0.6c-4.2,0.1-8.4-0.1-12.6-0.5c-3-0.3-0.7-0.1-0.1,0c-1.1-0.2-2.2-0.4-3.4-0.6     c-2.4-0.5-4.8-1.1-7.2-1.8c-1.7-0.5-3.4-1-5.1-1.6c-1-0.4-2.1-0.8-3.1-1.2c-2.4-0.9,3.1,1.6-0.7-0.3c-3.8-1.9-7.4-3.8-11-6.1     c-1.7-1.1-3.3-2.2-4.8-3.4c2.3,1.7,0,0-0.6-0.5c-0.8-0.7-1.7-1.4-2.5-2.1c-3.1-2.8-5.9-5.8-8.6-9c-0.5-0.5-2.2-2.9-0.5-0.6     c-0.5-0.7-1-1.4-1.5-2.1c-1.1-1.6-2.2-3.3-3.2-4.9c-1-1.7-2-3.4-2.9-5.2c-0.5-1-1-2-1.5-3c-0.3-0.6-0.6-1.2-0.8-1.8     c0.5,1.3,0.6,1.5,0.2,0.5c-1.5-3.7-2.7-7.6-3.7-11.5c-0.5-2-0.9-4-1.3-6c-0.6-2.9-0.2-0.7-0.1-0.1c-0.2-1.4-0.3-2.8-0.4-4.1     c-0.3-4.4-0.4-8.9,0-13.3c0.1-0.9,0.9-6.6,0.3-3.6c0.4-2.2,0.8-4.5,1.3-6.7c0.9-3.9,2.2-7.7,3.6-11.5c1.5-4-0.8,1.6,0.3-0.7     c0.5-1,0.9-2,1.4-3c1-2,2-3.9,3.2-5.8c1.1-1.9,2.3-3.7,3.6-5.5c0.5-0.7,1-1.4,1.5-2.1c-1.6,2.2-0.3,0.4,0.1-0.1     c2.9-3.3,5.8-6.5,9.1-9.5c0.6-0.6,1.3-1.2,2-1.7c-0.1,0.1,3.2-2.6,1.5-1.3c-1.7,1.3,1.7-1.2,1.6-1.2c0.7-0.5,1.4-1,2.2-1.5     c3.7-2.4,7.6-4.4,11.5-6.4c2.5-1.3,0.7-0.3,0.1-0.1c1-0.4,2.1-0.8,3.1-1.2c1.9-0.7,3.8-1.3,5.7-1.9c1.9-0.6,3.9-1.1,5.9-1.5     c1.1-0.2,2.2-0.4,3.3-0.7c3.2-0.7-2.2,0.1,1.5-0.2c4.2-0.4,8.4-0.6,12.6-0.5c2.1,0.1,4.2,0.2,6.3,0.4c0.8,0.1,3.8,0.6,0.8,0.1     c1.3,0.2,2.7,0.5,4,0.7c4.6,1,9.1,2.3,13.6,4c0.7,0.3,3.4,1.5,0.7,0.3c1.2,0.6,2.4,1.1,3.6,1.7c2,1,3.9,2,5.8,3.2     c1.9,1.1,3.7,2.3,5.5,3.6c-0.1-0.1,3.3,2.5,1.6,1.2c-1.3-1,1.7,1.4,2,1.7c3.5,3,6.7,6.3,9.7,9.8c-0.1-0.1,2.6,3.2,1.3,1.5     c-1-1.3,1.3,1.8,1.6,2.2c1.4,2,2.7,4,3.9,6.1c1.1,1.9,2.1,3.9,3.1,5.8c0.4,0.8,0.7,1.6,1.1,2.4c-1.3-2.9,0.3,0.7,0.5,1.3     c1.7,4.6,3.1,9.4,4,14.3c0.2,0.9,0.3,1.8,0.5,2.7c-0.6-3.2,0.1,0.8,0.2,1.5C322.7,123.2,322.8,126,322.8,128.8     c0.1,7.8,6.9,15.4,15,15c8.1-0.4,15.1-6.6,15-15c-0.3-43.4-27.6-81.7-68.1-96.8c-39.3-14.7-86.6-2-113.3,30.4     c-27.6,33.5-32.5,81.5-9.9,119.2c22.4,37.4,66.3,56.2,108.9,48.1c47.6-9.1,82-52.9,82.4-100.8c0.1-7.8-6.9-15.4-15-15     C329.6,114.2,322.9,120.4,322.8,128.8z"></path></g></g><g><path d="M407.4,459H92.6v-72.5c0-62.7,50.8-113.5,113.5-113.5h87.7c62.7,0,113.5,50.8,113.5,113.5V459z"></path><g><path d="M407.4,444c-35.6,0-71.2,0-106.8,0c-56.3,0-112.7,0-169,0c-13,0-26,0-39,0c5,5,10,10,15,15     c0-13.6,0-27.2,0-40.7c0-14.9-0.8-30.1,0.8-44.9c0.2-1.8-0.1,0.4-0.1,0.6c0.1-0.9,0.3-1.8,0.4-2.7c0.3-1.6,0.6-3.1,0.9-4.7     c0.7-3.3,1.5-6.5,2.5-9.7c0.9-3,2-5.9,3.1-8.8c-1.1,2.9,0.9-1.9,1.1-2.5c0.7-1.6,1.5-3.2,2.4-4.7c1.4-2.7,3-5.3,4.6-7.9     c0.8-1.3,1.7-2.6,2.5-3.8c0.5-0.7,1-1.4,1.5-2.1c0.2-0.2,1.8-2.4,0.8-1.1c-0.9,1.1,1.7-2,2.1-2.5c1.1-1.3,2.3-2.6,3.5-3.9     c2.2-2.4,4.5-4.7,7-6.8c1.1-1,2.3-2,3.4-3c0.7-0.6,1.3-1.1,2-1.6c-0.2,0.1-1.8,1.4-0.5,0.4c2.6-1.9,5.3-3.8,8.1-5.5     c2.8-1.7,5.6-3.3,8.6-4.8c1.4-0.7,2.8-1.4,4.1-2c0.6-0.3,1.2-0.5,1.8-0.8c1.6-0.7-2,0.7,0.7-0.3c6.3-2.3,12.6-4.3,19.2-5.6     c1.6-0.3,3.1-0.6,4.7-0.8c1.8-0.3-0.4,0-0.6,0.1c0.9-0.1,1.8-0.2,2.7-0.3c3.5-0.3,6.9-0.5,10.4-0.5c28.6-0.2,57.1,0,85.7,0     c1.2,0,2.3,0,3.5,0c3.2,0,6.5,0.2,9.7,0.5c0.9,0.1,5,0.6,2.1,0.2c2,0.3,4,0.6,6,1c6.4,1.3,12.5,3.3,18.6,5.4c2.7,1,0.7,0.2,0.1,0     c0.8,0.3,1.6,0.7,2.4,1.1c1.2,0.5,2.4,1.1,3.6,1.7c3.1,1.6,6.2,3.3,9.1,5.1c2.6,1.6,5.1,3.4,7.6,5.1c0.5,0.3,2.2,1.8,0.1,0     c0.5,0.4,1,0.8,1.5,1.2c1.5,1.3,3,2.5,4.4,3.8c2.2,2,4.4,4.2,6.5,6.4c1,1.1,2,2.2,3,3.4c0.4,0.5,0.8,1,1.3,1.5c0,0,2.4,3,1.3,1.5     c-1-1.3,0.3,0.4,0.4,0.6c0.5,0.7,1,1.4,1.5,2.1c0.9,1.2,1.7,2.5,2.6,3.8c1.8,2.7,3.4,5.6,5,8.5c0.8,1.5,1.6,3.1,2.4,4.7     c0.3,0.6,1.9,4.3,1.4,3c-0.6-1.6,0.2,0.5,0.2,0.7c0.3,0.8,0.6,1.7,0.9,2.5c0.6,1.7,1.2,3.4,1.7,5c0.9,3,1.7,6,2.4,9.1     c0.4,1.8,0.7,3.5,1,5.3c0.1,0.7,0.2,1.3,0.3,2c0.4,2.5-0.3-3.6,0.1,0.8c0.4,4.3,0.7,8.6,0.7,13c0,5.7,0,11.4,0,17.1     c0,17.1,0,34.2,0,51.4c0,1.2,0,2.3,0,3.5c0,7.8,6.9,15.4,15,15c8.1-0.4,15-6.6,15-15c0-14.4,0-28.8,0-43.2     c0-17.1,0.7-34.2-1.9-51.2C411,305.2,357.6,260.3,298,258.1c-29.9-1.1-60-0.1-89.9-0.1c-24.7,0-49.1,6.3-70.1,19.5     c-25.1,15.8-43.9,39.7-53.7,67.7c-6.4,18.4-6.8,37.3-6.8,56.5c0,17.9,0,35.8,0,53.7c0,1.2,0,2.5,0,3.7c0,8.1,6.9,15,15,15     c35.6,0,71.2,0,106.8,0c56.3,0,112.7,0,169,0c13,0,26,0,39,0c7.8,0,15.4-6.9,15-15C422,450.9,415.8,444,407.4,444z"></path></g></g></g></svg>
