<svg height='100px' width='100px'  xmlns:dc="http://purl.org/dc/elements/1.1/" xmlns:cc="http://creativecommons.org/ns#" xmlns:rdf="http://www.w3.org/1999/02/22-rdf-syntax-ns#" xmlns:svg="http://www.w3.org/2000/svg" xmlns="http://www.w3.org/2000/svg" xmlns:sodipodi="http://sodipodi.sourceforge.net/DTD/sodipodi-0.dtd" xmlns:inkscape="http://www.inkscape.org/namespaces/inkscape" fill="#160F30" version="1.1" x="0px" y="0px" viewBox="0 0 100 100"><path style="font-size:medium;font-style:normal;font-variant:normal;font-weight:normal;font-stretch:normal;text-indent:0;text-align:start;text-decoration:none;line-height:normal;letter-spacing:normal;word-spacing:normal;text-transform:none;direction:ltr;block-progression:tb;writing-mode:lr-tb;text-anchor:start;baseline-shift:baseline;opacity:1;color:#160F30;fill:#160F30;fill-opacity:1;stroke:none;stroke-width:2;marker:none;visibility:visible;display:inline;overflow:visible;enable-background:accumulate;font-family:Sans;-inkscape-font-specification:Sans" d="M 25 13 C 20.041279 13 16 17.041281 16 22 C 16 26.958718 20.041279 31 25 31 C 29.95872 31 34 26.958718 34 22 C 34 17.041281 29.95872 13 25 13 z M 75 13 C 70.04128 13 66 17.041281 66 22 C 66 26.958718 70.04128 31 75 31 C 79.958721 31 84 26.958718 84 22 C 84 17.041281 79.958721 13 75 13 z M 25 15 C 28.877838 15 32 18.122162 32 22 C 32 25.877838 28.877838 29 25 29 C 21.122162 29 18 25.877838 18 22 C 18 18.122162 21.122162 15 25 15 z M 75 15 C 78.877838 15 82 18.122162 82 22 C 82 25.877838 78.877838 29 75 29 C 71.122162 29 68 25.877838 68 22 C 68 18.122162 71.122162 15 75 15 z M 25 37 C 15.056555 37 7 44.875478 7 54.65625 L 7 70 A 1.0001 1.0001 0 0 0 8 71 L 29.59375 71 C 31.839836 80.178366 40.13575 87 50 87 C 59.86425 87 68.160164 80.178366 70.40625 71 L 92 71 A 1.0001 1.0001 0 0 0 93 70 L 93 54.65625 C 93 44.875478 84.943445 37 75 37 C 67.855577 37 61.687904 41.044058 58.78125 46.96875 C 56.101586 45.726745 53.14442 45 50 45 C 46.85558 45 43.898415 45.726745 41.21875 46.96875 C 38.312096 41.044058 32.144423 37 25 37 z M 25 39 C 31.396232 39 36.867676 42.622444 39.4375 47.875 C 33.204327 51.519779 29 58.267699 29 66 C 29 67.020222 29.077709 68.018409 29.21875 69 L 9 69 L 9 54.65625 C 9 45.970352 16.107439 39 25 39 z M 75 39 C 83.892561 39 91 45.970352 91 54.65625 L 91 69 L 70.78125 69 C 70.922291 68.018409 71 67.020222 71 66 C 71 58.267699 66.795672 51.519779 60.5625 47.875 C 63.132324 42.622444 68.603768 39 75 39 z M 50 47 C 60.505255 47 69 55.494745 69 66 C 69 76.505255 60.505255 85 50 85 C 39.494745 85 31 76.505255 31 66 C 31 55.494745 39.494745 47 50 47 z M 54.8125 58.96875 A 1.0010983 1.0010983 0 0 0 54.28125 60.6875 L 58.59375 65 L 39 65 A 1.0001 1.0001 0 0 0 38.90625 65 A 1.001098 1.001098 0 1 0 39 67 L 58.59375 67 L 54.28125 71.3125 A 1.0001 1.0001 0 1 0 55.71875 72.71875 L 61.71875 66.71875 A 1.0001 1.0001 0 0 0 61.71875 65.3125 L 55.71875 59.28125 A 1.0001 1.0001 0 0 0 55.625 59.21875 A 1.0010983 1.0010983 0 0 0 54.8125 58.96875 z "></path></svg>
