<svg height='100px' width='100px'  fill="#000000" xmlns="http://www.w3.org/2000/svg" xmlns:xlink="http://www.w3.org/1999/xlink" version="1.1" x="0px" y="0px" viewBox="0 0 96 96" enable-background="new 0 0 96 96" xml:space="preserve"><g><path d="M61.522,7.396c-14.933,0-27.081,12.148-27.081,27.081c0,7.287,2.897,13.906,7.595,18.778l-8.807,8.808l-2.968-2.968   L7.396,81.961l6.643,6.643l22.865-22.865l-2.968-2.968l8.807-8.808c4.873,4.698,11.491,7.597,18.778,7.597   c14.933,0,27.082-12.148,27.082-27.082C88.604,19.545,76.455,7.396,61.522,7.396z M35.49,65.738L14.039,87.189l-5.229-5.229   L30.262,60.51L35.49,65.738z M61.521,60.56c-14.381,0-26.08-11.7-26.08-26.082c0-14.381,11.7-26.081,26.081-26.081   s26.081,11.7,26.081,26.081C87.604,48.859,75.903,60.56,61.521,60.56z"></path><path d="M61.522,11.874c-12.465,0-22.604,10.14-22.604,22.604c0,12.465,10.14,22.605,22.604,22.605s22.604-10.141,22.604-22.605   C84.126,22.014,73.986,11.874,61.522,11.874z M61.521,56.083c-11.912,0-21.604-9.692-21.604-21.605   c0-11.912,9.691-21.604,21.604-21.604c11.912,0,21.604,9.691,21.604,21.604C83.126,46.391,73.435,56.083,61.521,56.083z"></path></g></svg>