<svg height='100px' width='100px'  fill="#160F30" xmlns:x="http://ns.adobe.com/Extensibility/1.0/" xmlns:i="http://ns.adobe.com/AdobeIllustrator/10.0/" xmlns:graph="http://ns.adobe.com/Graphs/1.0/" xmlns="http://www.w3.org/2000/svg" xmlns:xlink="http://www.w3.org/1999/xlink" version="1.1" x="0px" y="0px" viewBox="0 0 100 100" style="enable-background:new 0 0 100 100;" xml:space="preserve"><g><g i:extraneous="self"><path d="M90,42.5H57.5V10c0-4.1-3.3-7.5-7.5-7.5c-4.1,0-7.5,3.3-7.5,7.5v32.5H10c-4.1,0-7.5,3.3-7.5,7.5c0,2.1,0.8,3.9,2.2,5.3    c1.4,1.4,3.2,2.2,5.3,2.2h32.5V90c0,2.1,0.8,3.9,2.2,5.3c1.4,1.4,3.2,2.2,5.3,2.2c4.1,0,7.5-3.3,7.5-7.5V57.5H90    c4.1,0,7.5-3.3,7.5-7.5C97.5,45.9,94.2,42.5,90,42.5z"></path></g></g></svg>
