<svg height='100px' width='100px'  fill="#160F30" xmlns="http://www.w3.org/2000/svg" xmlns:xlink="http://www.w3.org/1999/xlink" version="1.1" x="0px" y="0px" viewBox="0 0 512 512" style="enable-background:new 0 0 512 512;" xml:space="preserve"><g><g><path d="M434.999,231c19.299,0,35-15.701,35-35c0-3.601-0.548-7.076-1.563-10.348l-30.314,24.252    c-0.895,0.716-1.998,1.096-3.123,1.096c-0.357,0-0.717-0.038-1.072-0.116c-1.476-0.324-2.725-1.297-3.399-2.648l-10-20    c-1.235-2.47-0.234-5.473,2.235-6.708c2.471-1.236,5.474-0.234,6.708,2.236l7.234,14.468l27.281-21.825    c-6.299-9.29-16.942-15.407-28.987-15.407c-19.299,0-35,15.701-35,35S415.7,231,434.999,231z"></path><path d="M434.999,281c-19.299,0-35,15.701-35,35s15.701,35,35,35s35-15.701,35-35S454.298,281,434.999,281z"></path><path d="M139.999,101c22.056,0,40-17.944,40-40s-17.944-40-40-40s-40,17.944-40,40S117.943,101,139.999,101z"></path><path d="M63.499,341h16.5V226c0-2.761,2.239-5,5-5s5,2.239,5,5v115h100V226c0-2.761,2.239-5,5-5s5,2.239,5,5v115h16.5    c7.444,0,13.5-6.056,13.5-13.5v-154c0-17.92-14.58-32.5-32.5-32.5h-115c-17.92,0-32.5,14.58-32.5,32.5v154    C49.999,334.944,56.055,341,63.499,341z M134.999,161h10c2.761,0,5,2.239,5,5s-2.239,5-5,5h-10c-2.761,0-5-2.239-5-5    S132.238,161,134.999,161z M134.999,191h10c2.761,0,5,2.239,5,5s-2.239,5-5,5h-10c-2.761,0-5-2.239-5-5S132.238,191,134.999,191z"></path><path d="M434.999,111c19.299,0,35-15.701,35-35c0-3.601-0.548-7.076-1.563-10.348l-30.314,24.252    C437.228,90.62,436.124,91,434.999,91c-0.357,0-0.717-0.038-1.072-0.116c-1.476-0.324-2.725-1.297-3.399-2.648l-10-20    c-1.235-2.47-0.234-5.473,2.235-6.708c2.471-1.235,5.474-0.233,6.708,2.236l7.234,14.468l27.281-21.825    C457.688,47.117,447.044,41,434.999,41c-19.299,0-35,15.701-35,35S415.7,111,434.999,111z"></path><path d="M410.999,481h-221V351h-100v130h-49c-2.762,0-5,2.238-5,5s2.238,5,5,5h370c2.762,0,5-2.238,5-5S413.761,481,410.999,481z     M144.999,481h-10V376c0-2.762,2.239-5,5-5s5,2.238,5,5V481z"></path><path d="M441.001,481c-1.32,0-2.61,0.53-3.54,1.46c-0.931,0.93-1.46,2.22-1.46,3.54c0,1.319,0.529,2.609,1.46,3.54    c0.93,0.93,2.22,1.46,3.54,1.46c1.319,0,2.6-0.53,3.529-1.46c0.94-0.94,1.471-2.23,1.471-3.54c0-1.32-0.53-2.601-1.471-3.54    C443.601,481.53,442.32,481,441.001,481z"></path><path d="M474.53,482.47c-0.93-0.939-2.22-1.47-3.529-1.47c-1.32,0-2.61,0.53-3.54,1.47c-0.931,0.92-1.46,2.21-1.46,3.53    c0,1.319,0.529,2.6,1.46,3.54c0.93,0.93,2.22,1.46,3.54,1.46c1.319,0,2.6-0.53,3.529-1.46c0.931-0.931,1.471-2.221,1.471-3.54    C476.001,484.68,475.461,483.39,474.53,482.47z"></path><path d="M259.999,72h60c2.762,0,5-2.239,5-5s-2.238-5-5-5h-60c-2.762,0-5,2.239-5,5S257.237,72,259.999,72z"></path><path d="M259.999,112h110c2.762,0,5-2.239,5-5s-2.238-5-5-5h-110c-2.762,0-5,2.239-5,5S257.237,112,259.999,112z"></path><path d="M259.999,192h60c2.762,0,5-2.239,5-5s-2.238-5-5-5h-60c-2.762,0-5,2.239-5,5S257.237,192,259.999,192z"></path><path d="M259.999,232h110c2.762,0,5-2.239,5-5s-2.238-5-5-5h-110c-2.762,0-5,2.239-5,5S257.237,232,259.999,232z"></path><path d="M259.999,312h60c2.762,0,5-2.238,5-5s-2.238-5-5-5h-60c-2.762,0-5,2.238-5,5S257.237,312,259.999,312z"></path><path d="M259.999,352h110c2.762,0,5-2.238,5-5s-2.238-5-5-5h-110c-2.762,0-5,2.238-5,5S257.237,352,259.999,352z"></path></g></g></svg>
