<svg height='100px' width='100px'  fill="#160F30" xmlns="http://www.w3.org/2000/svg" xmlns:xlink="http://www.w3.org/1999/xlink" version="1.1" x="0px" y="0px" viewBox="0 0 100 100" style="enable-background:new 0 0 100 100;" xml:space="preserve"><path d="M48.8847656,30.5v2.0949097c-2.2267456-0.0728149-7.4380493,0.2085571-13.2392578,3.6897583  c-5.6708984,3.4018555-9.0019531,2.1889648-9.0239258,2.1801758c-0.5092773-0.2089844-1.0952148,0.0336914-1.3056641,0.5439453  c-0.2099609,0.5107422,0.0332031,1.0952148,0.5439453,1.3056641c0.0756836,0.03125,0.9355469,0.3696289,2.4624023,0.3696289  c1.0428467,0,2.4067993-0.1715088,4.0342407-0.6931152l-5.0688477,16.9938965h-1.5425415c-0.5522461,0-1,0.4477539-1,1v3.3359375  c0,1.8007812,1.465332,3.2661133,3.2666016,3.2661133H40.465332c1.8007812,0,3.2661133-1.465332,3.2661133-3.2661133v-3.3359375  c0-0.5522461-0.4477539-1-1-1H40.493103l-5.4041138-18.1196899c0.5124512-0.2568359,1.0370483-0.536438,1.5858154-0.8656616  c5.3970947-3.2382812,10.296936-3.4588623,12.2099609-3.3977661v32.5872192h-4.5952148  c-1.8110352,0-3.2841797,1.4731445-3.2841797,3.2841797v4.1933594c0,0.5522461,0.4477539,1,1,1h15.7587891  c0.5522461,0,1-0.4477539,1-1v-4.1933594c0-1.8110352-1.4731445-3.2841797-3.2841797-3.2841797h-4.5952148V34.598999  c1.9057007-0.0654907,6.7863159,0.1467285,12.2099609,3.4005127c0.4048462,0.2428589,0.7964478,0.4577637,1.1816406,0.6606445  l-5.4657593,18.324707h-1.5420532c-0.5522461,0-1,0.4477539-1,1v3.3359375c0,1.8007812,1.465332,3.2661133,3.2661133,3.2661133  h12.4536133c1.8012695,0,3.2666016-1.465332,3.2666016-3.2661133v-3.3359375c0-0.5522461-0.4477539-1-1-1h-2.2383423  l-5.1184082-17.1600952c1.8621216,0.6637573,3.3963013,0.859314,4.548645,0.859314  c1.5263672,0,2.3867188-0.3383789,2.4624023-0.3696289c0.5063477-0.2089844,0.7451172-0.7832031,0.5424805-1.2919922  c-0.2021484-0.5087891-0.7827148-0.7578125-1.2929688-0.5620117c-0.0332031,0.0131836-3.3652344,1.2260742-9.034668-2.1757812  c-5.8015137-3.4815063-11.0125732-3.7630615-13.2392578-3.6900635V30.5c0-0.5522461-0.4477539-1-1-1  S48.8847656,29.9477539,48.8847656,30.5z M41.7314453,61.3208008c0,0.6982422-0.5678711,1.2661133-1.2661133,1.2661133H28.0117188  c-0.6982422,0-1.2666016-0.5678711-1.2666016-1.2661133v-2.3359375h14.9863281V61.3208008z M29.375061,56.9848633  l4.515564-15.1396484l4.5151367,15.1396484H29.375061z M56.7641602,70.4731445v3.1933594H43.0053711v-3.1933594  c0-0.7080078,0.5761719-1.2841797,1.2841797-1.2841797h11.1904297  C56.1879883,69.1889648,56.7641602,69.7651367,56.7641602,70.4731445z M73.2548828,61.3208008  c0,0.6982422-0.5683594,1.2661133-1.2666016,1.2661133H59.534668c-0.6982422,0-1.2661133-0.5678711-1.2661133-1.2661133v-2.3359375  h14.9863281V61.3208008z M60.8980103,56.9848633l4.515564-15.1396484l4.515564,15.1396484H60.8980103z"></path><path d="M89,10.1992188H11c-0.5522461,0-1,0.4477539-1,1s0.4477539,1,1,1h17.6386719V23.708313  c-9.1487427,6.675354-15.1088867,17.4710083-15.1088867,29.6378784c0,20.2226562,16.4521484,36.6748047,36.6748047,36.6748047  s36.6748047-16.4521484,36.6748047-36.6748047c0-12.0115967-5.8044434-22.692688-14.7554932-29.3864136  c0.0019531-0.0253906,0.0147705-0.0471191,0.0147705-0.0730591v-11.6875H89c0.5522461,0,1-0.4477539,1-1  S89.5522461,10.1992188,89,10.1992188z M84.8793945,53.3461914c0,19.1196289-15.5551758,34.6748047-34.6748047,34.6748047  S15.5297852,72.4658203,15.5297852,53.3461914s15.5551758-34.6748047,34.6748047-34.6748047  S84.8793945,34.2265625,84.8793945,53.3461914z M70.1386719,22.5859375  c-5.7435303-3.7349243-12.5870972-5.9145508-19.934082-5.9145508c-7.1906128,0-13.8988037,2.0882568-19.565918,5.6783447V12.1992188  h39.5V22.5859375z"></path></svg>
