<svg height='100px' width='100px'  fill="#160F30" xmlns="http://www.w3.org/2000/svg" xmlns:xlink="http://www.w3.org/1999/xlink" version="1.1" x="0px" y="0px" viewBox="0 0 128 128" style="enable-background:new 0 0 128 128;" xml:space="preserve"><g><path d="M55.1,21.5H40c-0.8,0-1.5,0.7-1.5,1.5v39.3h3V24.5h12v3c0,1.8,1.3,3.1,3.1,3.1h36.1c1.8,0,3.1-1.3,3.1-3.1v-3h12v85.6H70v3   h39.5c0.8,0,1.5-0.7,1.5-1.5V23c0-0.8-0.7-1.5-1.5-1.5h-15c-0.8,0-1.5,0.7-1.5,1.5v4.5c0,0.1,0,0.1,0,0.1c0,0-0.1,0-0.1,0H56.7   c-0.1,0-0.1,0-0.1,0c0,0,0-0.1,0-0.1V23C56.6,22.2,55.9,21.5,55.1,21.5z"></path><path d="M114.1,16.1H94v-1.3c0-1.7-1.2-3-3-3h-6.7c-0.5-5-4.7-8.9-9.7-8.9c-5.2,0-9.3,3.8-9.7,8.9h-6.7c-1.7,0-3,1.2-3,3v1.3h-20   c-1.7,0-3,1.2-3,3v46.7h3l0-46.6h21.5c0.8,0,1.5-0.7,1.5-1.5l0-2.7h8.1c0.8,0,1.5-0.7,1.5-1.5v-0.6c0-3.8,3-6.8,6.8-6.8   c3.7,0,6.8,3,6.8,6.8v0.6c0,0.8,0.7,1.5,1.5,1.5l8.1,0v2.7c0,0.8,0.7,1.5,1.5,1.5l21.6,0l0,97.1H70v3h44.2c1.7,0,3-1.2,3-3V19   C117.1,17.3,115.9,16.1,114.1,16.1z"></path><path d="M78.5,18.6c0-2.1-1.7-3.9-3.9-3.9s-3.9,1.7-3.9,3.9s1.7,3.9,3.9,3.9S78.5,20.8,78.5,18.6z M73.8,18.6   c0-0.5,0.4-0.9,0.9-0.9s0.9,0.4,0.9,0.9s-0.4,0.9-0.9,0.9S73.8,19.1,73.8,18.6z"></path><path d="M65.5,50.8h15.4c0.8,0,1.5-0.7,1.5-1.5s-0.7-1.5-1.5-1.5H65.5c-0.8,0-1.5,0.7-1.5,1.5S64.6,50.8,65.5,50.8z"></path><path d="M65.5,61.3h15.4c0.8,0,1.5-0.7,1.5-1.5s-0.7-1.5-1.5-1.5H65.5c-0.8,0-1.5,0.7-1.5,1.5S64.6,61.3,65.5,61.3z"></path><path d="M18.6,103.3h11.9V91.2H18.6V103.3z M22.6,95.2h3.9v4.1h-3.9V95.2z"></path><path d="M33.1,103.3h11.9V91.2H33.1V103.3z M37.1,95.2h3.9v4.1h-3.9V95.2z"></path><path d="M47.7,103.3h11.9V91.2H47.7V103.3z M51.7,95.2h3.9v4.1h-3.9V95.2z"></path><path d="M18.6,117.8h11.9v-12.1H18.6V117.8z M22.6,109.7h3.9v4.1h-3.9V109.7z"></path><path d="M25,64.8c-2.2,0-3.9,1.8-3.9,4v1.9h-9.6V125h55.3V70.7H56.6v-1.9c0-2.2-1.8-4-3.9-4s-3.9,1.8-3.9,4v1.9h-6v-1.9   c0-2.2-1.8-4-3.9-4s-3.9,1.8-3.9,4v1.9h-6v-1.9C28.9,66.6,27.2,64.8,25,64.8z M24.1,68.8c0-0.5,0.4-1,0.9-1s0.9,0.5,0.9,1v1.9h-1.8   V68.8z M14.5,122V87h49.3v35H14.5z M51.7,68.8c0-0.5,0.4-1,0.9-1s0.9,0.5,0.9,1v1.9h-1.8V68.8z M37.9,68.8c0-0.5,0.4-1,0.9-1   s0.9,0.5,0.9,1v1.9h-1.8V68.8z M38.8,80.3c0.8,0,1.5-0.7,1.5-1.5s-0.7-1.5-1.5-1.5c-0.5,0-0.9-0.5-0.9-1v-2.6h10.8v2.6   c0,2.2,1.8,4,3.9,4c0.8,0,1.5-0.7,1.5-1.5s-0.7-1.5-1.5-1.5c-0.5,0-0.9-0.5-0.9-1v-2.6h12V84H14.5V73.7h6.6v2.6c0,2.2,1.8,4,3.9,4   c0.8,0,1.5-0.7,1.5-1.5s-0.7-1.5-1.5-1.5c-0.5,0-0.9-0.5-0.9-1v-2.6h10.8v2.6C34.9,78.5,36.7,80.3,38.8,80.3z"></path><path d="M33.1,117.5h11.9v-12.1H33.1V117.5z M37.1,109.3h3.9v4.1h-3.9V109.3z"></path><path d="M47.7,117.5h11.9v-12.1H47.7V117.5z M51.7,109.3h3.9v4.1h-3.9V109.3z"></path></g></svg>
