<svg height='100px' width='100px'  fill="#000000" xmlns="http://www.w3.org/2000/svg" xmlns:xlink="http://www.w3.org/1999/xlink" version="1.1" x="0px" y="0px" viewBox="0 0 130 130" style="enable-background:new 0 0 130 130;" xml:space="preserve"><g><path class="st0" d="M129.9084473,52.1743164c-0.0258179-0.0583496-0.0690308-0.1037598-0.1055908-0.1564941   c-0.041748-0.0593262-0.0797729-0.1186523-0.1331177-0.1672363c-0.0167847-0.015625-0.0240479-0.0385742-0.0420532-0.0529785   L109.130127,35.2775879v-24.027832c0-0.5527344-0.4477539-1-1-1H78.0723267L65.6276855,0.2214355   c-0.3662109-0.2949219-0.8886719-0.2949219-1.2548828,0L51.9276733,10.2497559H21.869873c-0.5522461,0-1,0.4472656-1,1v24.027832   L0.3728027,51.7976074c-0.0175171,0.013916-0.0244751,0.036377-0.0408936,0.0515137   c-0.0564575,0.0512695-0.097168,0.1137695-0.140686,0.1767578c-0.0336914,0.0495605-0.0744019,0.0917969-0.0986328,0.1464844   c-0.0443115,0.0974121-0.0631714,0.2055664-0.0739746,0.3171387c-0.0025024,0.0270996-0.0181274,0.0510254-0.0183716,0.0786133   c0,0.0021973,0.0012817,0.0039063,0.0012817,0.0058594c0,0.0031738-0.00177,0.0056152-0.00177,0.0087891v76.4130859   c0,0.0012207,0.0006104,0.0021973,0.0006104,0.0031738c-0.0001221,0.1306152,0.0265503,0.2607422,0.0774536,0.3835449   c0.0206909,0.0493164,0.0592651,0.0864258,0.0872192,0.1313477c0.0403442,0.0656738,0.071228,0.1359863,0.1281738,0.1928711   c0.1953125,0.1953125,0.4511719,0.2929688,0.7070313,0.2929688c0.0068359,0,0.0132446-0.0036621,0.0200806-0.0039063h127.9598389   c0.2626343,0.0053711,0.5266113-0.088623,0.7271118-0.2890625c0.0859375-0.0859375,0.1452637-0.1867676,0.1933594-0.2910156   c0.0053101-0.0114746,0.015686-0.0195313,0.0206299-0.03125c0.0518188-0.1240234,0.0787964-0.2556152,0.0783691-0.3879395   c0-0.0002441,0.0001221-0.0004883,0.0001221-0.0007324V52.5827637c0-0.0021973-0.0012817-0.0041504-0.0012817-0.0063477   c0-0.0029297,0.00177-0.0053711,0.00177-0.0083008c-0.0003052-0.0385742-0.0209961-0.0720215-0.0256348-0.1098633   C129.961792,52.3596191,129.947876,52.2619629,129.9084473,52.1743164z M109.130127,37.8457031l18.2910156,14.7419434   L109.130127,67.7888184V37.8457031z M65.0002441,2.2839355l9.885437,7.9658203H55.1144409L65.0002441,2.2839355z    M22.869873,12.2497559h84.2602539v57.2011719L86.916626,86.2497559H43.0838623L22.869873,69.4504395V12.2497559z    M20.869873,37.8457031v29.942627L2.5793457,52.5876465L20.869873,37.8457031z M1.9997559,54.7072754l39.2506104,32.6181641   L1.9997559,126.5856934V54.7072754z M3.4177856,127.9958496l39.7362671-39.7460938h43.6918945l39.7367554,39.7460938H3.4177856z    M127.9997559,126.5847168L88.7498779,87.3256836l39.2498779-32.6176758V126.5847168z"></path><path class="st0" d="M64.1115723,70.5026855c0.043457,0,0.0883789,0,0.1323242,0   c0.5522461-0.0039063,0.9970703-0.4541016,0.9931641-1.0068359c-0.0039063-0.5498047-0.4506836-0.9931641-1-0.9931641   c-0.0366211-0.0009766-0.0795898,0-0.1206055,0c-10.3129883,0-15.6401367-9.4667969-15.6870117-9.5517578   c-3.9233398-7.3789063-2.6181641-13.65625-0.8325195-17.6230469c2.1079102-4.6816406,6.0527344-8.390625,10.8217773-10.1757813   c8.8881836-3.3251953,16.5942383,1.6386719,16.7011719,1.7070313c12.5166016,7.6367188,8.4697266,20.9003906,8.2910156,21.4609375   c-0.0136719,0.0429688-0.0244141,0.0878906-0.0322266,0.1318359c-0.46875,2.6708984-1.4345703,4.4609375-2.8710938,5.3193359   c-1.6503906,0.9873047-3.4521484,0.40625-3.5595703,0.3759766c-3.440918-0.8173828-3.5258789-4.0371094-3.5195313-4.5087891   l2.7050781-14.5761719c0.1005859-0.5429688-0.2578125-1.0654297-0.8007813-1.1660156   c-0.5463867-0.1035156-1.0654297,0.2578125-1.1660156,0.8007813l-0.5390015,2.9047852   c-0.4231567-0.9106445-0.9946899-1.7443848-1.7168579-2.4663086c-3.7368164-3.7363281-10.2192383-3.3339844-14.4501953,0.8974609   c-2.0317383,2.03125-3.2529297,4.6396484-3.4394531,7.3427734c-0.1894531,2.7548828,0.7133789,5.2792969,2.5419922,7.1074219   c1.6689453,1.6689453,3.9169922,2.5664063,6.3911133,2.5664063c0.2368164,0,0.4760742-0.0078125,0.7167969-0.0244141   c2.703125-0.1865234,5.3105469-1.4072266,7.3422852-3.4394531c0.171814-0.1716309,0.3293457-0.3532715,0.4894409-0.532959   l-0.0548706,0.2956543c-0.0078125,0.0429688-0.0126953,0.0849609-0.0151367,0.1279297   c-0.1005859,1.8496094,0.8256836,5.6123047,4.9584961,6.5888672c0.1074219,0.0380859,2.65625,0.8886719,5.1108398-0.5585938   c1.9638672-1.1572266,3.2543945-3.3955078,3.8359375-6.6513672c0.3427734-1.1728516,4.1982422-15.5429688-9.1450195-23.6835938   c-0.3476563-0.2294922-8.6083984-5.5820313-18.4750977-1.8925781c-5.265625,1.9707031-9.6191406,6.0625-11.9443359,11.2285156   c-1.9697266,4.3740234-3.4140625,11.2880859,0.8955078,19.3925781   C46.9064941,60.3347168,52.5959473,70.5036621,64.1115723,70.5026855z M72.4572754,48.1062012   c-0.152832,2.2207031-1.1679688,4.375-2.8579102,6.0654297c-1.6904297,1.6904297-3.8442383,2.7050781-6.0654297,2.8583984   c-2.1713867,0.1445313-4.1425781-0.546875-5.5566406-1.9609375c-1.4135742-1.4140625-2.1098633-3.3867188-1.9604492-5.5566406   c0.152832-2.2207031,1.1679688-4.375,2.8579102-6.0654297c1.9008789-1.9003906,4.3349609-2.8759766,6.6333008-2.8759766   c1.8754883,0,3.6601563,0.6503906,4.9887695,1.9785156C71.9104004,43.963623,72.6066895,45.9362793,72.4572754,48.1062012z"></path></g></svg>