<svg height='100px' width='100px'  fill="#160F30" xmlns="http://www.w3.org/2000/svg" xmlns:xlink="http://www.w3.org/1999/xlink" version="1.1" x="0px" y="0px" viewBox="0 0 52 52" enable-background="new 0 0 52 52" xml:space="preserve"><g><g><path d="M36,11.0297546h7.3626099c-0.0778809-0.1002197-0.1511841-0.2033081-0.2426147-0.2947388l-7.8299561-7.8300171    C35.2008057,2.8157654,35.0987549,2.7434387,35,2.6667175v7.3630371C35,10.5810242,35.4487305,11.0297546,36,11.0297546z"></path></g><g><path d="M36,13.0297546c-1.6542969,0-3-1.3457031-3-3V2.0249939H11c-1.6499634,0-3,1.3500366-3,3v41.9500122    c0,1.6600342,1.3500366,3,3,3h30c1.6500244,0,3-1.3399658,3-3V13.0297546H36z M21,19.0028992h10v2H21V19.0028992z M31,43.0033875    H21v-2h10V43.0033875z M37,36.0033875H15v-2h22V36.0033875z M37,28.0028992H15v-2h22V28.0028992z"></path></g></g></svg>
