<svg height='100px' width='100px'  fill="#000000" xmlns="http://www.w3.org/2000/svg" xmlns:xlink="http://www.w3.org/1999/xlink" version="1.1" x="0px" y="0px" viewBox="0 0 100 100" enable-background="new 0 0 100 100" xml:space="preserve"><path fill-rule="evenodd" clip-rule="evenodd" d="M36.55,13C32.85,16.767,31,21.233,31,26.4c0,5.3,1.85,9.8,5.55,13.5  c3.7,3.7,8.2,5.55,13.5,5.55c5.333,0,9.817-1.85,13.45-5.55c3.667-3.667,5.5-8.167,5.5-13.5c0-5.2-1.833-9.667-5.5-13.4  c-3.667-3.667-8.15-5.5-13.45-5.5C44.783,7.5,40.283,9.333,36.55,13z M50.05,5.5c5.867,0,10.833,2.033,14.9,6.1  C68.983,15.7,71,20.633,71,26.4c0,5.867-2.017,10.833-6.05,14.9c-4.033,4.1-9,6.15-14.9,6.15c-5.8,0-10.783-2.05-14.95-6.15  c-4.067-4.067-6.1-9.034-6.1-14.9c0-5.733,2.033-10.667,6.1-14.8C39.267,7.533,44.25,5.5,50.05,5.5z M63.85,52.1  c2.833,1.333,6,4.6,9.5,9.8c3.566,5.2,6.116,10.65,7.65,16.35c1.066,3.567,2.3,8.317,3.7,14.25h6.95c0.667,0,1,0.333,1,1  s-0.333,1-1,1H8.35c-0.267,0-0.5-0.1-0.7-0.3c-0.2-0.2-0.3-0.434-0.3-0.7s0.1-0.5,0.3-0.7c0.2-0.2,0.433-0.3,0.7-0.3h7.1  c1.267-5.6,2.483-10.367,3.65-14.3c1.533-5.7,4.083-11.133,7.65-16.3c3.5-5.2,6.667-8.466,9.5-9.8c2.433-1.167,6.3-1.8,11.6-1.9  h4.45C57.5,50.3,61.35,50.934,63.85,52.1z M63,53.9c-2.1-1.033-5.7-1.6-10.8-1.7h-4.25c-5.133,0.1-8.75,0.667-10.85,1.7  c-2.5,1.167-5.4,4.2-8.7,9.1c-3.367,4.934-5.817,10.184-7.35,15.75c-1.1,3.633-2.283,8.217-3.55,13.75h11.55  c0.133-2.667,0.467-6.667,1-12l0.75-7.85c0.033-0.267,0.15-0.483,0.35-0.65c0.2-0.2,0.45-0.283,0.75-0.25  c0.267,0.033,0.483,0.15,0.65,0.35c0.2,0.233,0.267,0.483,0.2,0.75L32,80.7c-0.5,5.466-0.817,9.4-0.95,11.8H69  c-0.034-1.933-0.333-5.867-0.9-11.8l-0.75-7.85c-0.034-0.267,0.033-0.517,0.2-0.75c0.167-0.2,0.383-0.317,0.65-0.35  c0.667-0.066,1.034,0.233,1.1,0.9l0.75,7.85c0.567,5.767,0.883,9.767,0.95,12h11.65c-1.367-5.833-2.567-10.4-3.6-13.7  c-1.5-5.6-3.95-10.867-7.35-15.8C68.4,58.1,65.5,55.067,63,53.9z"></path></svg>