<svg height='100px' width='100px'  fill="#160F30" xmlns="http://www.w3.org/2000/svg" xmlns:xlink="http://www.w3.org/1999/xlink" version="1.1" x="0px" y="0px" viewBox="0 0 512 512" enable-background="new 0 0 512 512" xml:space="preserve"><g><path d="M499.926,76.055H12.074c-6.615,0-11.996,5.381-11.996,11.996v7.998v335.897c0,2.21,1.788,3.999,3.999,3.999h503.846   c2.21,0,3.999-1.789,3.999-3.999V96.049v-7.998C511.922,81.436,506.541,76.055,499.926,76.055z M8.075,88.051   c0-2.206,1.793-3.999,3.999-3.999h8.158c-2.21,0-3.959,1.789-3.959,3.999c0,2.211,1.831,3.999,4.038,3.999   c2.21,0,3.999-1.788,3.999-3.999c0-2.21-1.788-3.999-3.999-3.999h15.917c-2.21,0-3.959,1.789-3.959,3.999   c0,2.211,1.831,3.999,4.038,3.999c2.21,0,3.999-1.788,3.999-3.999c0-2.21-1.788-3.999-3.999-3.999h15.917   c-2.21,0-3.959,1.789-3.959,3.999c0,2.211,1.831,3.999,4.038,3.999c2.21,0,3.999-1.788,3.999-3.999c0-2.21-1.788-3.999-3.999-3.999   h447.625c2.202,0,3.998,1.792,3.998,3.999v3.999H52.3H36.305H20.31H8.075V88.051z M503.924,427.947H8.075v-327.9h495.849V427.947z"></path><path d="M256,403.955c2.21,0,3.999-1.789,3.999-3.999V128.039c0-2.21-1.789-3.999-3.999-3.999c-2.21,0-3.999,1.789-3.999,3.999   v271.917C252.001,402.166,253.79,403.955,256,403.955z"></path><path d="M36.067,331.977h15.995H92.05h15.995h39.988h15.995h39.987h15.995c2.21,0,3.999-1.788,3.999-3.998   c0-2.211-1.789-3.999-3.999-3.999h-11.996v-51.984c0-2.21-1.789-3.999-3.999-3.999h-39.987c-2.211,0-3.999,1.789-3.999,3.999   v51.984h-7.998V168.027c0-2.21-1.789-3.999-3.999-3.999h-39.988c-2.21,0-3.999,1.788-3.999,3.999v155.953h-7.997V216.012   c0-2.21-1.789-3.999-3.999-3.999H52.062c-2.21,0-3.999,1.788-3.999,3.999v107.967h-7.998V144.034c0-2.21-1.788-3.999-3.999-3.999   s-3.999,1.789-3.999,3.999v183.944C32.068,330.188,33.856,331.977,36.067,331.977z M168.027,291.989h31.99v7.997h-31.99V291.989z    M200.017,275.994v7.997h-31.99v-7.997H200.017z M168.027,307.984h31.99v15.995h-31.99V307.984z M112.044,204.098h31.99v47.903   h-31.99V204.098z M144.034,172.025V196.1h-31.99v-24.075H144.034z M112.044,259.999h31.99v63.98h-31.99V259.999z M56.061,236.006   h31.99v47.985h-31.99V236.006z M88.051,220.011v7.998h-31.99v-7.998H88.051z M56.061,291.989h31.99v31.99h-31.99V291.989z"></path><path d="M208.015,363.967H48.063c-2.21,0-3.999,1.789-3.999,3.999s1.789,3.999,3.999,3.999h159.951c2.21,0,3.999-1.789,3.999-3.999   S210.225,363.967,208.015,363.967z"></path><path d="M176.024,379.962H80.054c-2.21,0-3.999,1.788-3.999,3.999c0,2.21,1.789,3.999,3.999,3.999h95.971   c2.21,0,3.999-1.789,3.999-3.999C180.023,381.75,178.234,379.962,176.024,379.962z"></path><path d="M463.937,363.967H303.985c-2.21,0-3.999,1.789-3.999,3.999s1.789,3.999,3.999,3.999h159.951   c2.21,0,3.999-1.789,3.999-3.999S466.146,363.967,463.937,363.967z"></path><path d="M431.946,379.962h-95.971c-2.21,0-3.999,1.788-3.999,3.999c0,2.21,1.789,3.999,3.999,3.999h95.971   c2.21,0,3.999-1.789,3.999-3.999C435.945,381.75,434.156,379.962,431.946,379.962z"></path><path d="M383.961,331.977c26.383,0,50.297-10.707,67.667-27.991c0.055-0.047,0.133-0.07,0.188-0.125s0.07-0.125,0.125-0.188   c11.363-11.419,19.798-25.695,24.297-41.604c0.102-0.23,0.133-0.469,0.188-0.711c2.218-8.091,3.507-16.565,3.507-25.352   c0-0.418-0.055-0.82-0.063-1.234c0.016-0.223-0.008-0.433-0.031-0.652c-0.141-6.943-1.031-13.688-2.569-20.197   c-0.055-0.383-0.125-0.762-0.289-1.121c-1.406-5.631-3.28-11.067-5.64-16.261c-0.101-0.367-0.28-0.703-0.491-1.031   c-2.226-4.757-4.765-9.333-7.701-13.629c-0.195-0.555-0.477-1.082-0.921-1.523c-0.133-0.133-0.297-0.188-0.445-0.293   c-2.984-4.135-6.217-8.076-9.802-11.684c-0.063-0.074-0.086-0.164-0.156-0.234s-0.164-0.094-0.234-0.156   c-3.726-3.706-7.803-7.053-12.099-10.114c0-0.004,0-0.012-0.008-0.016c-0.031-0.027-0.063-0.035-0.094-0.063   c-4.248-3.019-8.755-5.667-13.464-7.97c-0.141-0.207-0.234-0.438-0.414-0.621c-0.867-0.867-2.03-1.202-3.163-1.105   c-4.85-2.125-9.919-3.795-15.144-5.104c-0.438-0.207-0.898-0.316-1.375-0.352c-7.037-1.651-14.331-2.612-21.868-2.612   c-52.922,0-95.971,43.054-95.971,95.971C287.99,288.928,331.039,331.977,383.961,331.977z M415.201,153.867l-27.241,27.237v-11.309   l18.689-18.689C409.563,151.887,412.413,152.805,415.201,153.867z M430.314,161.376l-36.138,36.129   c-2.016-0.535-4.093-0.867-6.217-1.082v-4.01l35.099-35.099C425.55,158.557,427.963,159.912,430.314,161.376z M443.178,171.139   l-34.053,34.048c-2.108-1.727-4.373-3.226-6.818-4.499l34.7-34.696C439.147,167.617,441.201,169.331,443.178,171.139z    M453.971,182.956l-34.692,34.696c-1.273-2.433-2.772-4.698-4.499-6.811l34.053-34.048   C450.636,178.77,452.354,180.82,453.971,182.956z M462.647,196.904l-38.737,38.738c-0.031-3.425-0.609-6.693-1.453-9.86   l36.129-36.133C460.055,191.996,461.406,194.413,462.647,196.904z M387.96,158.486v-10.25c3.155,0.141,6.271,0.449,9.333,0.917   L387.96,158.486z M383.688,204.043c0.094,0.008,0.18,0.055,0.273,0.055s0.18-0.047,0.273-0.055   c17.51,0.148,31.717,14.417,31.717,31.963c0,17.64-14.348,31.99-31.99,31.99s-31.99-14.351-31.99-31.99   C351.971,218.46,366.178,204.191,383.688,204.043z M421.473,249.393l44.627-44.627c1.063,2.784,1.977,5.635,2.758,8.548   l-50.97,50.965l-3.108-3.108C417.646,257.671,419.919,253.727,421.473,249.393z M470.81,222.67   c0.522,3.39,0.851,6.834,0.976,10.341l-42.58,42.585l-5.662-5.662L470.81,222.67z M448.832,295.223l-2.664-2.664l15.582-15.581   C458.235,283.616,453.861,289.716,448.832,295.223z M471.496,244.605c-0.46,4.764-1.39,9.384-2.585,13.894l-28.397,28.405   l-5.654-5.654L471.496,244.605z M379.962,148.236v48.188c-20.149,2.039-35.989,18.904-35.989,39.582   c0,22.048,17.94,39.988,39.988,39.988c9.583,0,18.268-3.53,25.164-9.17l34.053,34.053c-15.652,14.293-36.396,23.103-59.217,23.103   c-48.509,0-87.973-39.465-87.973-87.974C295.988,188.849,333.313,150.349,379.962,148.236z"></path></g></svg>
