<svg height='100px' width='100px'  fill="#160F30" xmlns="http://www.w3.org/2000/svg" xmlns:xlink="http://www.w3.org/1999/xlink" version="1.0" x="0px" y="0px" viewBox="0 0 56.693 56.693" enable-background="new 0 0 56.693 56.693" xml:space="preserve"><g><path fill="none" d="M40.97,28.092c-0.036,0.713-0.624,1.273-1.339,1.273h-1.249c-0.205,0-0.407-0.047-0.591-0.137l-13.31-6.536   v5.333c0,0.74-0.6,1.34-1.34,1.34h-0.408c-0.205,0-0.407-0.047-0.591-0.137l-13.31-6.536v22.327h39.028V11.674h-6.07L40.97,28.092z    M18.752,41.75c0,0.296-0.24,0.536-0.536,0.536h-5.897c-0.296,0-0.536-0.24-0.536-0.536v-3.217c0-0.296,0.24-0.536,0.536-0.536   h5.897c0.296,0,0.536,0.24,0.536,0.536V41.75z M18.752,36.389c0,0.296-0.24,0.536-0.536,0.536h-5.897   c-0.296,0-0.536-0.24-0.536-0.536v-3.217c0-0.296,0.24-0.536,0.536-0.536h5.897c0.296,0,0.536,0.24,0.536,0.536V36.389z    M27.008,41.75c0,0.296-0.24,0.536-0.536,0.536h-5.897c-0.296,0-0.536-0.24-0.536-0.536v-3.217c0-0.296,0.24-0.536,0.536-0.536   h5.897c0.296,0,0.536,0.24,0.536,0.536V41.75z M27.008,36.389c0,0.296-0.24,0.536-0.536,0.536h-5.897   c-0.296,0-0.536-0.24-0.536-0.536v-3.217c0-0.296,0.24-0.536,0.536-0.536h5.897c0.296,0,0.536,0.24,0.536,0.536V36.389z    M35.264,41.75c0,0.296-0.24,0.536-0.536,0.536h-5.897c-0.296,0-0.536-0.24-0.536-0.536v-3.217c0-0.296,0.24-0.536,0.536-0.536   h5.897c0.296,0,0.536,0.24,0.536,0.536V41.75z M35.264,36.389c0,0.296-0.24,0.536-0.536,0.536h-5.897   c-0.296,0-0.536-0.24-0.536-0.536v-3.217c0-0.296,0.24-0.536,0.536-0.536h5.897c0.296,0,0.536,0.24,0.536,0.536V36.389z"></path><path fill="#160F30" d="M34.728,32.636h-5.897c-0.296,0-0.536,0.24-0.536,0.536v3.217c0,0.296,0.24,0.536,0.536,0.536h5.897   c0.296,0,0.536-0.24,0.536-0.536v-3.217C35.264,32.876,35.024,32.636,34.728,32.636z"></path><path fill="#160F30" d="M34.728,37.997h-5.897c-0.296,0-0.536,0.24-0.536,0.536v3.217c0,0.296,0.24,0.536,0.536,0.536h5.897   c0.296,0,0.536-0.24,0.536-0.536v-3.217C35.264,38.237,35.024,37.997,34.728,37.997z"></path><path fill="#160F30" d="M26.472,32.636h-5.897c-0.296,0-0.536,0.24-0.536,0.536v3.217c0,0.296,0.24,0.536,0.536,0.536h5.897   c0.296,0,0.536-0.24,0.536-0.536v-3.217C27.008,32.876,26.768,32.636,26.472,32.636z"></path><path fill="#160F30" d="M26.472,37.997h-5.897c-0.296,0-0.536,0.24-0.536,0.536v3.217c0,0.296,0.24,0.536,0.536,0.536h5.897   c0.296,0,0.536-0.24,0.536-0.536v-3.217C27.008,38.237,26.768,37.997,26.472,37.997z"></path><path fill="#160F30" d="M18.216,32.636h-5.897c-0.296,0-0.536,0.24-0.536,0.536v3.217c0,0.296,0.24,0.536,0.536,0.536h5.897   c0.296,0,0.536-0.24,0.536-0.536v-3.217C18.752,32.876,18.512,32.636,18.216,32.636z"></path><path fill="#160F30" d="M18.216,37.997h-5.897c-0.296,0-0.536,0.24-0.536,0.536v3.217c0,0.296,0.24,0.536,0.536,0.536h5.897   c0.296,0,0.536-0.24,0.536-0.536v-3.217C18.752,38.237,18.512,37.997,18.216,37.997z"></path><path fill="#160F30" d="M49.201,8.994h-8.685c-0.714,0-1.303,0.56-1.339,1.273l-0.813,16.256l-14.632-7.185   c-0.416-0.204-0.907-0.179-1.299,0.065c-0.393,0.245-0.632,0.675-0.632,1.138v5.533L8.083,19.338   c-0.416-0.204-0.907-0.179-1.299,0.065c-0.393,0.245-0.632,0.675-0.632,1.138V46.36c0,0.74,0.6,1.34,1.34,1.34h41.709   c0.74,0,1.34-0.6,1.34-1.34V10.334C50.541,9.594,49.941,8.994,49.201,8.994z M47.861,45.019H8.833V22.692l13.31,6.536   c0.184,0.09,0.386,0.137,0.591,0.137h0.408c0.74,0,1.34-0.6,1.34-1.34v-5.333l13.31,6.536c0.184,0.09,0.386,0.137,0.591,0.137   h1.249c0.714,0,1.303-0.56,1.339-1.273l0.821-16.418h6.07V45.019z"></path></g></svg>
