<svg height='100px' width='100px'  fill="#160F30" xmlns="http://www.w3.org/2000/svg" xmlns:xlink="http://www.w3.org/1999/xlink" xml:space="preserve" version="1.1" style="shape-rendering:geometricPrecision;text-rendering:geometricPrecision;image-rendering:optimizeQuality;" viewBox="0 0 144 127" x="0px" y="0px" fill-rule="evenodd" clip-rule="evenodd"><defs><style type="text/css">

    .fil0 {fill:#160F30}

  </style></defs><g><path class="fil0" d="M72 0c40,0 72,32 72,72 0,22 -10,42 -26,55 -8,-13 -27,-14 -30,-19 0,-2 0,-3 0,-5 3,-3 5,-7 6,-11 4,-4 6,-12 4,-18 3,-12 3,-30 -12,-32 -20,-15 -46,1 -40,32 -3,6 -2,14 3,18 1,4 4,8 7,11 0,2 0,3 0,5 -3,5 -22,6 -30,19 -16,-13 -26,-33 -26,-55 0,-40 32,-72 72,-72z"></path></g></svg>
