<svg height='100px' width='100px'  fill="#000000" xmlns="http://www.w3.org/2000/svg" xmlns:xlink="http://www.w3.org/1999/xlink" version="1.1" x="0px" y="0px" viewBox="0 0 60 60" enable-background="new 0 0 60 60" xml:space="preserve"><rect x="-330" y="-171" display="none" fill="#000000" width="802" height="805"></rect><g><path d="M15.3564453,56.2314453c0.4116211,0.8232422,1.2138672,1.2768555,2.2592773,1.2768555h24.7685547   c1.0454102,0,1.8476562-0.4536133,2.2592773-1.2768555c0.4912109-0.9824219,0.3286133-2.3427734-0.3955078-3.3085938   c-2.3383789-3.1166992-6.3823242-6.0048828-9.2075195-6.574707c-0.784668-0.1572266-1.3549805-0.6679688-1.5253906-1.3691406   c-0.0654297-0.2607422-0.09375-1.0708008-0.1152344-1.8300781c1.4770508-1.2197266,2.7158203-2.9824219,3.4477539-4.9072266   c0.637207-0.199707,1.1826172-1.0107422,1.3818359-2.1132812c0.1855469-1.1293945-0.0722656-2.0800781-0.6259766-2.472168   c0.0048828-2.456543-0.0205078-4.7651367-0.9296875-6.46875c-1.0673828-2-3.1757812-2.934082-6.7119141-2.9399414   C26.5019531,24.253418,24.3935547,25.1875,23.3261719,27.1875c-0.902832,1.6918945-0.9345703,3.9794922-0.9296875,6.46875   c-0.5537109,0.3920898-0.8115234,1.3442383-0.625,2.4799805c0.1982422,1.0957031,0.7436523,1.9057617,1.3808594,2.1054688   c0.7319336,1.9248047,1.9707031,3.6875,3.4477539,4.9072266c-0.0209961,0.7338867-0.0488281,1.5654297-0.1157227,1.8330078   c-0.1699219,0.6982422-0.7402344,1.2089844-1.5258789,1.3662109c-2.8242188,0.5698242-6.8681641,3.4580078-9.206543,6.5751953   C15.027832,53.8886719,14.8652344,55.2490234,15.3564453,56.2314453z M16.5517578,53.5229492   c2.1733398-2.8964844,6.0332031-5.6757812,8.6040039-6.1943359c1.1582031-0.2319336,2.0395508-1.0405273,2.2993164-2.1074219   c0.0917969-0.3676758,0.1191406-1.1279297,0.1518555-2.2924805c0.0043945-0.1591797-0.0668945-0.3105469-0.1923828-0.4082031   c-1.4707031-1.1494141-2.7514648-2.980957-3.4248047-4.8999023c-0.0708008-0.2021484-0.2617188-0.3344727-0.4716797-0.3344727   c-0.0195312,0-0.0390625,0.0009766-0.059082,0.003418c-0.1113281,0-0.534668-0.4003906-0.7021484-1.3232422   c-0.1523438-0.9282227,0.112793-1.4790039,0.2319336-1.5009766c0.2368164-0.0444336,0.4086914-0.3105469,0.4082031-0.5517578   c-0.0063477-2.5292969-0.0112305-4.7133789,0.8115234-6.2553711c0.550293-1.03125,1.7460938-2.4038086,5.8276367-2.4106445   c4.0092773,0.0068359,5.2050781,1.3793945,5.7553711,2.4106445c0.8227539,1.5419922,0.8178711,3.7260742,0.8115234,6.3144531   c-0.0004883,0.2412109,0.1713867,0.4482422,0.4082031,0.4926758c0.1191406,0.0219727,0.3842773,0.5727539,0.2329102,1.4931641   c-0.168457,0.9306641-0.5917969,1.3310547-0.703125,1.3310547c-0.2294922-0.0292969-0.453125,0.1098633-0.5307617,0.3310547   c-0.6733398,1.9189453-1.9541016,3.7504883-3.4248047,4.8999023c-0.1254883,0.0976562-0.1953125,0.2954102-0.190918,0.4541016   c0.03125,1.1186523,0.0585938,1.8789062,0.1494141,2.2436523c0.2607422,1.0698242,1.1420898,1.878418,2.2993164,2.1103516   c2.5717773,0.5185547,6.4316406,3.2978516,8.6049805,6.1943359c0.4897461,0.652832,0.6191406,1.625,0.3007812,2.2617188   c-0.2402344,0.4799805-0.6992188,0.7236328-1.3647461,0.7236328H17.6157227c-0.6655273,0-1.1245117-0.2436523-1.3647461-0.7236328   C15.9326172,55.1479492,16.0620117,54.1757812,16.5517578,53.5229492z"></path><path d="M37.894043,43.7700195c-0.2290039,0.1538086-0.2900391,0.4643555-0.1362305,0.6938477   c0.0966797,0.1435547,0.2543945,0.2211914,0.4155273,0.2211914c0.0957031,0,0.1928711-0.0273438,0.2783203-0.0849609   c4.2114258-2.828125,6.7260742-7.5419922,6.7260742-12.6083984c0-8.3691406-6.8085938-15.1777344-15.1777344-15.1777344   s-15.1777344,6.8085938-15.1777344,15.1777344c0,4.7851562,2.2978516,9.3457031,6.1464844,12.199707   c0.2216797,0.1640625,0.5356445,0.1186523,0.699707-0.1040039c0.1640625-0.2216797,0.1176758-0.5351562-0.1040039-0.699707   c-3.5957031-2.6660156-5.7421875-6.9262695-5.7421875-11.3959961c0-7.8178711,6.3598633-14.1777344,14.1777344-14.1777344   s14.1777344,6.3598633,14.1777344,14.1777344C44.1777344,36.7246094,41.8286133,41.1274414,37.894043,43.7700195z"></path><path d="M52.3388672,31.9916992C52.3388672,19.6738281,42.3178711,9.652832,30,9.652832S7.6611328,19.6738281,7.6611328,31.9916992   c0,6.293457,2.6762695,12.3286133,7.3422852,16.5571289c0.0957031,0.0864258,0.2158203,0.1293945,0.3359375,0.1293945   c0.1362305,0,0.2719727-0.0551758,0.3706055-0.1640625c0.1855469-0.2045898,0.1699219-0.5209961-0.034668-0.706543   c-4.4575195-4.0390625-7.0141602-9.8041992-7.0141602-15.815918C8.6611328,20.2255859,18.2338867,10.652832,30,10.652832   s21.3388672,9.5727539,21.3388672,21.3388672c0,6.0019531-2.5493164,11.7602539-6.9946289,15.7983398   c-0.2041016,0.1855469-0.2192383,0.5019531-0.0336914,0.706543c0.1860352,0.2055664,0.5019531,0.2197266,0.706543,0.0336914   C49.6699219,44.3027344,52.3388672,38.2749023,52.3388672,31.9916992z"></path><path d="M30,2.4916992c-16.2666016,0-29.5,13.2338867-29.5,29.5c0,8.9628906,4.0048828,17.3349609,10.9882812,22.9697266   c0.2148438,0.1743164,0.5297852,0.1401367,0.703125-0.0751953c0.1733398-0.2148438,0.1396484-0.5297852-0.0751953-0.703125   C5.3696289,48.7392578,1.5,40.6508789,1.5,31.9916992c0-15.7148438,12.7851562-28.5,28.5-28.5s28.5,12.7851562,28.5,28.5   c0,8.6943359-3.8955078,16.8037109-10.6875,22.2490234c-0.215332,0.1728516-0.25,0.4873047-0.0771484,0.703125   c0.0986328,0.1230469,0.2441406,0.1870117,0.390625,0.1870117c0.109375,0,0.2202148-0.0361328,0.3125-0.1098633   C55.4682617,49.3847656,59.5,40.9912109,59.5,31.9916992C59.5,15.7255859,46.2666016,2.4916992,30,2.4916992z"></path></g></svg>