<svg height='100px' width='100px'  fill="#000000" xmlns="http://www.w3.org/2000/svg" xmlns:xlink="http://www.w3.org/1999/xlink" version="1.1" x="0px" y="0px" viewBox="0 0 300 300" style="enable-background:new 0 0 300 300;" xml:space="preserve"><style type="text/css">
	.st0{fill:none;stroke:#000000;stroke-width:17.1485;stroke-linecap:round;stroke-miterlimit:10;}
	.st1{fill:none;stroke:#000000;stroke-width:17;stroke-linecap:round;stroke-miterlimit:10;}
</style><g><g><path d="M35.8,100.2c6.6-12.6,15.4-23.8,25-32.7c4.8-4.5,9.8-8.4,14.7-11.7c5-3.3,9.9-6.1,14.5-8.4    c4.6-2.3,9.1-4,13-5.5c2-0.6,3.8-1.3,5.6-1.8c1.7-0.5,3.3-1,4.8-1.3c1.5-0.3,2.8-0.7,3.9-0.9c0.1,0,0.2,0,0.3-0.1l0.8,5.8    l23.8-18.5l-27.9-11.4l0.8,6c-0.7,0.2-1.5,0.4-2.4,0.7c-1.3,0.4-2.7,0.9-4.4,1.4c-1.6,0.5-3.4,1.2-5.4,1.9c-1.9,0.7-4,1.6-6.2,2.5    c-4.3,2-9.2,4.3-14.2,7.3c-5,3-10.3,6.5-15.5,10.7c-5.2,4.2-10.4,8.9-15.3,14.3c-9.8,10.6-18.4,23.6-24.4,37.6    c-6.1,14-9.5,29-10.4,43c-0.2,1.7-0.2,3.5-0.2,5.3c0,0.9,0,1.7-0.1,2.6c0,0.9,0,1.7,0,2.5c0,0.8,0,1.7,0,2.5l0,1.3l0.1,1.2    c0.1,1.6,0.2,3.3,0.3,4.9c0.5,6.4,1.5,12.4,2.8,17.8c1.2,5.4,2.7,10.3,4.3,14.6c1.5,4.3,3.1,7.9,4.4,10.8c1.4,2.9,2.5,5.2,3.4,6.7    c0.8,1.5,1.3,2.3,1.3,2.3s-0.4-0.8-1.1-2.4c-0.7-1.6-1.7-3.9-2.8-6.9c-1.1-3-2.4-6.7-3.5-11c-1.2-4.3-2.2-9.2-3-14.6    c-0.8-5.4-1.3-11.3-1.3-17.5c-0.1-6.2,0.4-12.8,1.3-19.4C24.8,126.5,29.2,112.7,35.8,100.2z"></path><path d="M251.5,227.4c-0.4,0.5-0.8,1.1-1.2,1.6c-0.5,0.6-1,1.1-1.5,1.8c-1.1,1.2-2.2,2.6-3.5,4.1    c-1.4,1.4-2.8,3-4.4,4.6c-3.2,3.2-7,6.7-11.4,10.1c-1.1,0.9-2.2,1.7-3.4,2.6c-1.2,0.8-2.4,1.7-3.6,2.6c-1.2,0.9-2.5,1.6-3.8,2.5    c-1.3,0.8-2.6,1.7-4,2.5c-1.4,0.8-2.8,1.5-4.2,2.3c-0.7,0.4-1.4,0.8-2.2,1.2c-0.7,0.3-1.5,0.7-2.2,1c-1.5,0.7-3,1.4-4.6,2.1    c-1.6,0.6-3.2,1.2-4.8,1.9c-0.8,0.3-1.6,0.6-2.4,0.9c-0.8,0.3-1.7,0.5-2.5,0.8c-1.7,0.5-3.3,1.1-5,1.6c-1.7,0.4-3.4,0.9-5.2,1.3    c-0.9,0.2-1.7,0.4-2.6,0.7c-0.9,0.2-1.8,0.3-2.6,0.5c-1.8,0.3-3.5,0.7-5.3,1c-1.8,0.2-3.6,0.4-5.4,0.7c-0.9,0.1-1.8,0.3-2.7,0.3    l-2.7,0.2c-1.8,0.1-3.6,0.3-5.4,0.3l-5.4,0l-1.4,0l-0.3,0.3l-0.2,0.3h-0.1c-0.1,0,0.2-0.3,0.1-0.3l-0.7-0.2l-2.8-0.3    c-3.8-0.2-7.2-0.7-10.6-1.2c-7-1.1-13.7-2.8-20.1-4.9c-6.3-2.2-12.3-4.8-17.7-7.6c-5.3-2.9-10.3-5.9-14.5-9.1    c-4.3-3.1-8-6.2-11.1-9.1c-0.8-0.7-1.5-1.4-2.2-2.1c-0.7-0.7-1.4-1.4-2-2c-1.3-1.3-2.4-2.6-3.5-3.7c-1.2-1.3-2.2-2.4-3-3.4    l4.8-3.4l-27.5-12.4l3,30l4.9-3.5c1.2,1.3,2.9,3.1,5.1,5.1c1.3,1.2,2.7,2.6,4.3,3.9c0.8,0.7,1.6,1.4,2.5,2.1    c0.9,0.7,1.8,1.5,2.7,2.2c3.8,3,8.3,6.3,13.4,9.3c5,3.2,10.9,6.1,17.1,8.9c6.3,2.7,13.1,5,20.2,6.9c7.2,1.8,14.7,3,22.4,3.7    c3.9,0.2,8,0.5,11.6,0.3l2.8,0l0.7,0l0.2,0l0.1,0l0.2,0l0.4,0l1.5-0.1l5.8-0.4c1.9-0.2,3.9-0.5,5.8-0.7l2.9-0.4    c1-0.1,1.9-0.4,2.9-0.5c1.9-0.4,3.8-0.8,5.7-1.1c1.9-0.5,3.7-1,5.5-1.5c0.9-0.2,1.8-0.5,2.7-0.7c0.9-0.3,1.8-0.6,2.7-0.9    c1.8-0.6,3.6-1.2,5.3-1.8c1.7-0.7,3.4-1.4,5.1-2.1c0.8-0.3,1.7-0.7,2.5-1c0.8-0.4,1.6-0.8,2.4-1.2c1.6-0.8,3.2-1.6,4.8-2.3    c1.5-0.9,3.1-1.7,4.6-2.6c0.8-0.4,1.5-0.8,2.2-1.3c0.7-0.4,1.4-0.9,2.1-1.4c1.4-0.9,2.8-1.8,4.2-2.7c1.4-0.9,2.6-1.9,3.9-2.8    c1.3-1,2.6-1.8,3.7-2.8c1.2-1,2.3-2,3.5-2.9c1.1-0.9,2.3-1.9,3.3-2.9c4.2-3.9,7.8-7.7,10.8-11.1c1.5-1.8,2.8-3.4,4.1-5    c1.2-1.6,2.2-3.1,3.2-4.4c0.5-0.7,0.9-1.3,1.4-1.9c0.4-0.6,0.8-1.2,1.1-1.7c0.7-1.1,1.3-2,1.7-2.7c0.9-1.5,1.4-2.3,1.4-2.3    s-0.6,0.8-1.6,2.2C252.9,225.5,252.3,226.4,251.5,227.4z"></path><path d="M283.2,160.6c0-1.5,0-3.2,0-4.8c0-0.8,0-1.5-0.1-2.3c0-0.9-0.1-1.7-0.1-2.5c-0.1-1.6-0.2-3.3-0.3-5    c-0.2-1.7-0.4-3.4-0.6-5.1c-0.9-6.9-2.3-14.2-4.5-21.5c-2.2-7.3-5.1-14.6-8.6-21.7c-3.5-7.1-7.8-13.9-12.6-20.3    c-4.8-6.4-10.2-12.3-15.9-17.7c-5.7-5.3-11.9-10-18.1-14c-6.2-4-12.5-7.3-18.7-10.1c-6.2-2.7-12.2-4.7-17.9-6.3    c-1.4-0.3-2.8-0.7-4.2-1c-0.7-0.2-1.4-0.3-2-0.5c-0.7-0.1-1.3-0.3-2-0.4c-1.3-0.3-2.6-0.5-3.8-0.7c-1.2-0.2-2.5-0.4-3.6-0.5    c-1.2-0.2-2.3-0.3-3.4-0.5c-1.1-0.1-2.2-0.2-3.2-0.3c-1-0.1-2-0.2-2.9-0.3c-0.9,0-1.8-0.1-2.7-0.1c-1.7-0.1-3.2-0.1-4.5-0.1    c-1.3,0-2.4,0-3.3,0c-1.8,0-2.8,0-2.8,0s1,0.1,2.8,0.2c0.9,0.1,2,0.1,3.3,0.2c1.3,0.1,2.8,0.3,4.5,0.5c0.8,0.1,1.7,0.2,2.6,0.3    c0.9,0.2,1.9,0.3,2.9,0.5c1,0.2,2,0.3,3.1,0.5c1.1,0.2,2.2,0.5,3.3,0.7c1.1,0.3,2.3,0.5,3.5,0.8c1.2,0.3,2.4,0.7,3.7,1    c0.6,0.2,1.3,0.3,1.9,0.5c0.6,0.2,1.3,0.4,1.9,0.6c1.3,0.4,2.6,0.9,4,1.3c5.4,2,11.1,4.4,16.9,7.4c5.8,3.1,11.6,6.7,17.2,11    c5.6,4.3,11.1,9.1,16.1,14.5c5,5.4,9.6,11.3,13.6,17.6c8,12.5,13.6,26.5,16.5,39.9c1.4,6.7,2.2,13.3,2.6,19.6    c0.1,1.6,0.1,3.1,0.2,4.6c0,1.5,0,3-0.1,4.5c0,0.7,0,1.5,0,2.1c0,0.8-0.1,1.5-0.1,2.3c-0.1,1.4-0.2,2.7-0.3,4.1    c-1,10.8-3.3,19.6-5.3,25.6c-0.6,1.7-1.1,3.2-1.6,4.5l-5.3-2.4l2.9,30l24.6-17.5l-5.5-2.5c0.5-1.8,1.3-4.3,2-7.3    C281.1,183.1,282.9,172.9,283.2,160.6z"></path></g><path d="M215.7,184.1c-3.6-2.4-8.5-1.4-10.9,2.2c-11.1,16.6-29.6,26.6-49.6,26.6c-24.5,0-45.5-14.8-54.7-35.8h73.8   c4.3,0,7.8-3.7,7.8-8s-3.5-8-7.8-8H96.2c-0.4-2-0.6-5.3-0.6-8c0-0.7,0-1,0.1-2h78.7c4.3,0,7.8-3.7,7.8-8s-3.5-8-7.8-8H98.3   c7.6-24,30.2-41.7,56.9-41.7c19.8,0,38.3,9.9,49.4,26.4c2.4,3.6,7.3,4.6,10.9,2.2c3.6-2.4,4.5-7.3,2.1-10.9   c-14-20.8-37.4-33.4-62.4-33.4c-35.4,0-65.2,25.4-73.2,57.4H68c-4.3,0-7.8,3.7-7.8,8s3.5,8,7.8,8h12c0,1-0.1,1.3-0.1,2   c0,2.7,0.2,6,0.4,8H68c-4.3,0-7.8,3.7-7.8,8s3.5,8,7.8,8h15.8c10,30,38.2,51.5,71.5,51.5c25.2,0,48.6-12.5,62.6-33.5   C220.3,191.4,219.3,186.5,215.7,184.1z"></path></g><g><g><path d="M-360.9,211.1c0,0-0.4-0.7-1.1-2.1c-0.7-1.4-1.7-3.4-2.9-6.1c-1.2-2.7-2.6-5.9-3.8-9.8    c-1.3-3.8-2.6-8.3-3.6-13.2c-1.1-4.9-1.8-10.3-2.2-16c-0.4-5.8-0.4-11.8,0.2-18.1c0.5-6.3,1.6-12.8,3.3-19.2    c1.7-6.4,3.9-12.9,6.8-19c5.6-12.4,13.5-23.7,22.5-32.9c4.5-4.6,9.2-8.7,13.9-12.3c4.7-3.6,9.5-6.6,14-9.1    c4.5-2.6,8.9-4.5,12.7-6.1c3.9-1.6,7.4-2.8,10.3-3.7c1.5-0.4,2.8-0.8,3.9-1.1c1.1-0.3,2.1-0.5,2.9-0.7c1.6-0.4,2.4-0.6,2.4-0.6    l2.1,10.9c0,0-0.8,0.1-2.2,0.4c-0.7,0.1-1.6,0.3-2.7,0.5c-1,0.2-2.2,0.5-3.6,0.8c-2.7,0.7-5.9,1.6-9.6,2.8c-3.6,1.3-7.7,2.9-12,5    c-4.3,2.1-8.8,4.6-13.4,7.7c-4.5,3.1-9.1,6.7-13.5,10.8c-8.8,8.2-16.8,18.5-22.8,30c-6,11.5-9.9,24.1-11.5,36.2    c-0.8,6-1.2,12-1.1,17.6c0.1,5.6,0.6,11,1.4,15.8c0.8,4.9,1.8,9.3,2.9,13.2c1.1,3.9,2.3,7.2,3.3,9.9c1,2.7,2,4.8,2.6,6.2    C-361.3,210.4-360.9,211.1-360.9,211.1z"></path><g><polygon points="-282.8,59 -263.7,44.5 -285.8,35.3    "></polygon></g></g></g><g><g><path d="M-163,220.9c0,0-0.5,0.7-1.3,2c-0.4,0.7-1,1.5-1.6,2.4c-0.3,0.5-0.6,1-1,1.5c-0.4,0.5-0.8,1.1-1.3,1.7    c-0.9,1.2-1.9,2.5-3,3.9c-1.2,1.4-2.4,2.8-3.7,4.4c-0.6,0.8-1.4,1.6-2.2,2.4c-0.8,0.8-1.5,1.6-2.3,2.5c-0.8,0.9-1.7,1.7-2.6,2.5    c-0.9,0.8-1.8,1.7-2.8,2.6c-0.9,0.9-2,1.7-3,2.5c-1,0.8-2.1,1.7-3.2,2.6c-1.1,0.8-2.3,1.6-3.4,2.5c-1.2,0.8-2.3,1.7-3.6,2.5    c-2.5,1.6-5,3.3-7.8,4.7c-1.4,0.7-2.7,1.5-4.1,2.2c-1.4,0.7-2.9,1.4-4.3,2c-1.4,0.7-3,1.3-4.5,1.9c-1.5,0.6-3,1.3-4.6,1.8    c-3.2,1-6.3,2.1-9.7,2.9l-2.5,0.6l-1.2,0.3l-1.3,0.2c-1.7,0.3-3.4,0.6-5.1,1c-0.8,0.2-1.7,0.3-2.6,0.4l-2.6,0.3    c-1.7,0.2-3.4,0.5-5.2,0.5l-5.2,0.3l-0.6,0l-0.7,0l-1.3,0l-2.5,0l-2.5,0l-2.6-0.2l-2.6-0.2c-0.9,0-1.7-0.1-2.6-0.2    c-6.8-0.6-13.5-2-19.8-3.7c-6.3-1.7-12.3-4.1-17.8-6.5c-1.4-0.7-2.7-1.3-4-2c-0.7-0.3-1.3-0.6-2-1c-0.6-0.4-1.3-0.7-1.9-1.1    c-1.2-0.7-2.5-1.4-3.7-2.1c-1.2-0.7-2.3-1.5-3.4-2.2c-4.5-2.9-8.3-5.8-11.6-8.6c-3.3-2.8-6.1-5.3-8.2-7.6c-2.2-2.2-3.8-4-4.9-5.3    c-1.1-1.2-1.7-1.9-1.7-1.9l8.7-6.9c0,0,0.5,0.6,1.4,1.8c1,1.2,2.3,2.9,4.2,5c1.8,2.1,4.3,4.6,7.1,7.3c2.9,2.7,6.3,5.6,10.3,8.4    c1,0.7,2,1.4,3,2.2c1.1,0.7,2.2,1.4,3.3,2.1c0.6,0.4,1.1,0.7,1.7,1.1c0.6,0.3,1.2,0.7,1.8,1c1.2,0.7,2.4,1.3,3.6,2    c5,2.5,10.4,5,16.2,6.9c5.8,1.9,12,3.5,18.4,4.4c0.8,0.2,1.6,0.2,2.4,0.3l2.4,0.3l2.4,0.3l2.5,0.1l2.5,0.1l1.3,0.1l0.5,0l0.6,0    l5,0c1.7,0,3.3-0.1,4.9-0.2l2.5-0.2c0.8-0.1,1.6-0.1,2.5-0.2c1.6-0.2,3.3-0.4,4.9-0.7l1.2-0.2l1.2-0.2l2.4-0.5    c3.2-0.6,6.3-1.5,9.4-2.3c1.5-0.4,3-1,4.5-1.5c1.5-0.5,3-1,4.4-1.6c1.4-0.6,2.9-1.2,4.3-1.8c1.4-0.6,2.8-1.3,4.1-2    c2.8-1.2,5.3-2.8,7.8-4.2c1.3-0.7,2.4-1.5,3.6-2.3c1.2-0.8,2.3-1.5,3.5-2.3c1.1-0.8,2.2-1.6,3.2-2.4c1-0.8,2.1-1.5,3.1-2.3    c1-0.8,1.9-1.6,2.8-2.4c0.9-0.8,1.8-1.5,2.7-2.3c0.8-0.8,1.7-1.6,2.4-2.3c0.8-0.8,1.6-1.5,2.3-2.2c1.4-1.5,2.7-2.9,3.9-4.2    c1.1-1.4,2.2-2.6,3.1-3.8c0.5-0.6,0.9-1.1,1.3-1.6c0.4-0.5,0.8-1,1.1-1.5c0.7-0.9,1.3-1.7,1.7-2.4    C-163.5,221.6-163,220.9-163,220.9z"></path><g><polygon points="-336.5,226.1 -358.2,216.1 -356,239.9    "></polygon></g></g></g><g><g><path d="M-259.1,44c0,0,0.9,0,2.5,0c0.8,0,1.8,0,3,0c1.2,0,2.5,0.3,4.1,0.4c0.8,0,1.6,0.2,2.4,0.2    c0.8,0.1,1.7,0.2,2.6,0.3c0.9,0.1,1.9,0.2,2.9,0.3c1,0.1,2,0.3,3.1,0.5c4.2,0.6,8.9,1.7,14,3c5,1.5,10.4,3.4,15.9,5.9    c5.5,2.5,11.1,5.6,16.6,9.3c5.5,3.7,10.9,8,15.9,12.8c5,4.8,9.7,10.2,13.9,16c4.2,5.8,7.8,12,10.8,18.4c3,6.4,5.4,12.9,7.2,19.4    c1.8,6.5,2.9,13,3.5,19.1c0.4,3.1,0.4,6.1,0.6,9c0,1.5,0.1,2.8,0,4.3c0,1.5-0.1,2.8-0.1,4.2c-0.3,5.4-0.8,10.4-1.6,14.8    c-0.8,4.4-1.7,8.1-2.5,11.2c-0.8,3.1-1.6,5.5-2.2,7.1c-0.6,1.6-0.9,2.5-0.9,2.5l-10.4-4.1c0,0,0.3-0.8,0.9-2.2    c0.6-1.4,1.4-3.6,2.3-6.3c0.9-2.8,1.9-6.1,2.8-10.1c0.9-4,1.6-8.5,2.1-13.5c0.1-1.2,0.2-2.5,0.3-3.8c0.1-1.2,0.1-2.7,0.2-4    c0-2.7,0.1-5.5-0.1-8.4c-0.3-5.7-1-11.8-2.4-18c-1.4-6.2-3.3-12.4-5.8-18.6c-2.5-6.2-5.7-12.2-9.3-17.9c-3.7-5.7-7.9-11.1-12.5-16    c-4.6-4.9-9.6-9.3-14.7-13.1c-5.1-3.8-10.4-7.1-15.7-9.9c-5.3-2.7-10.5-4.8-15.3-6.5c-4.9-1.6-9.5-2.9-13.7-3.7    c-1-0.2-2-0.4-3-0.6c-1-0.1-1.9-0.3-2.8-0.4c-0.9-0.1-1.8-0.3-2.6-0.4c-0.8-0.1-1.6-0.2-2.4-0.3c-1.5-0.1-2.9-0.3-4-0.4    c-1.2-0.1-2.2-0.3-3-0.4C-258.2,44.3-259.1,44-259.1,44z"></path><g><polygon points="-162.2,192.4 -160.1,216.3 -140.5,202.5    "></polygon></g></g></g><g><path class="st0" d="M-202,192.3c-10.8,16.1-29.2,26.8-50.1,26.8c-33.3,0-60.2-27-60.2-60.2s27-60.2,60.2-60.2   c20.8,0,39.1,10.5,49.9,26.6"></path><line class="st1" x1="-330" y1="172.5" x2="-235" y2="172.5"></line><line class="st1" x1="-330" y1="149.5" x2="-235" y2="149.5"></line></g><g><g><path d="M586.1,211.1c0,0-0.4-0.7-1.1-2c-0.4-0.6-0.8-1.4-1.3-2.4c-0.5-0.9-1-2-1.6-3.3    c-2.4-4.9-5.4-12.2-7.7-21.4c-1.2-4.6-2.1-9.6-2.7-15.1c-0.2-1.4-0.3-2.7-0.4-4.1c-0.1-1.4-0.2-2.8-0.3-4.3c0-1.4-0.1-2.8-0.1-4.3    c0-1.5,0-3,0.1-4.5c0.2-6,0.8-12.2,2-18.4c1.2-6.2,2.9-12.5,5.1-18.5c4.4-12.2,11-23.6,18.7-33.2c7.7-9.7,16.4-17.4,24.5-23.2    c4.1-2.9,8-5.3,11.5-7.3c1.8-1,3.5-1.9,5.1-2.7c1.6-0.8,3-1.5,4.4-2.1c1.3-0.6,2.6-1.1,3.6-1.6c1.1-0.4,2-0.8,2.7-1.1    c1.5-0.6,2.3-0.9,2.3-0.9l5.5,17.4c0,0-0.7,0.2-2,0.6c-0.6,0.2-1.5,0.4-2.4,0.7c-0.9,0.3-2,0.7-3.2,1c-1.2,0.4-2.5,0.9-3.9,1.4    c-1.4,0.6-2.9,1.2-4.6,1.9c-3.2,1.5-6.8,3.2-10.6,5.4c-7.5,4.4-15.8,10.5-23.5,18.5c-7.7,8-14.6,17.8-19.7,28.6    c-2.6,5.4-4.7,11-6.3,16.7c-1.6,5.7-2.8,11.5-3.5,17.1c-0.1,1.4-0.3,2.8-0.4,4.2c-0.1,1.4-0.2,2.8-0.3,4.3c0,1.3-0.1,2.7-0.1,4    c0,1.3,0,2.7,0,4c0.1,5.3,0.6,10.2,1.3,14.8c1.4,9.1,3.7,16.6,5.6,21.6c0.5,1.3,0.9,2.4,1.3,3.4c0.4,1,0.7,1.8,1,2.5    C585.8,210.4,586.1,211.1,586.1,211.1z"></path><g><polygon points="651.7,72 683.3,44.5 643.7,30.9    "></polygon></g></g></g><g><g><path d="M784,220.9c0,0-0.4,0.7-1.2,1.9c-0.4,0.6-0.9,1.4-1.5,2.3c-0.3,0.5-0.6,1-0.9,1.5c-0.3,0.5-0.7,1-1.1,1.6    c-0.8,1.1-1.7,2.4-2.7,3.8c-1,1.4-2.2,2.7-3.4,4.3c-1.2,1.6-2.6,3.1-4.1,4.7c-0.7,0.8-1.5,1.7-2.3,2.5c-0.8,0.8-1.7,1.6-2.6,2.5    c-0.9,0.8-1.7,1.7-2.7,2.6c-1,0.8-1.9,1.6-2.9,2.5c-2,1.8-4.2,3.3-6.4,5c-0.6,0.4-1.1,0.9-1.7,1.3c-0.6,0.4-1.2,0.8-1.8,1.2    c-1.2,0.8-2.4,1.6-3.6,2.4c-1.2,0.8-2.6,1.5-3.8,2.2c-1.3,0.7-2.6,1.6-4,2.2c-2.7,1.3-5.5,2.8-8.5,3.9c-1.5,0.6-2.9,1.3-4.4,1.8    c-1.5,0.5-3,1-4.6,1.6c-1.5,0.6-3.1,1-4.7,1.4c-1.6,0.4-3.2,0.9-4.7,1.3c-1.6,0.3-3.2,0.7-4.8,1c-0.8,0.2-1.6,0.3-2.4,0.5    l-2.5,0.3l-4.9,0.7c-1.7,0.1-3.3,0.3-5,0.4l-2.5,0.2l-0.3,0l-0.4,0l-0.6,0l-1.2,0l-2.4,0c-0.8,0-1.6,0-2.4,0    c-1.7-0.1-3.4-0.1-5-0.2c-1.6-0.1-3.2-0.3-4.9-0.4c-1.6-0.1-3.2-0.4-4.8-0.6c-0.8-0.1-1.6-0.2-2.4-0.3c-0.8-0.1-1.6-0.3-2.3-0.4    c-6.2-1.1-12.1-2.7-17.6-4.5c-5.5-1.8-10.6-4.1-15.1-6.3c-2.3-1.2-4.5-2.3-6.4-3.5c-1-0.6-2-1.2-2.9-1.7c-0.9-0.6-1.8-1.2-2.7-1.7    c-0.9-0.6-1.7-1.1-2.5-1.7c-0.8-0.6-1.6-1.1-2.3-1.6c-0.7-0.5-1.4-1-2.1-1.5c-0.6-0.5-1.3-1-1.9-1.5c-1.2-0.9-2.2-1.7-3.1-2.5    c-0.9-0.8-1.6-1.4-2.2-1.9c-1.2-1.1-1.9-1.6-1.9-1.6l12.9-13c0,0,0.5,0.5,1.5,1.5c0.5,0.5,1.1,1.1,1.8,1.8    c0.7,0.7,1.5,1.5,2.5,2.4c0.5,0.4,1,0.9,1.5,1.4c0.5,0.5,1.1,1,1.7,1.5c0.6,0.5,1.2,1,1.8,1.6c0.6,0.5,1.3,1.1,2,1.6    c0.7,0.6,1.4,1.1,2.2,1.7c0.8,0.6,1.6,1.1,2.4,1.7c1.6,1.2,3.4,2.3,5.3,3.5c3.8,2.3,8,4.7,12.8,6.7c4.7,2.1,9.8,4,15.3,5.4    c0.7,0.2,1.4,0.4,2.1,0.6c0.7,0.2,1.4,0.3,2.1,0.5c1.4,0.3,2.8,0.7,4.2,0.9c1.4,0.2,2.9,0.5,4.3,0.7c1.4,0.2,2.9,0.4,4.3,0.5    c0.7,0.1,1.5,0.1,2.3,0.2l2.4,0.2l1.2,0.1l0.6,0l0.1,0l0.1,0c-0.2,0,0,0-0.1,0l0.3,0l2.3,0c1.5,0,3,0,4.6,0.1l4.6-0.2l2.3-0.1    c0.8-0.1,1.5-0.2,2.3-0.2c1.5-0.2,3-0.3,4.6-0.5c1.5-0.2,3-0.5,4.5-0.8c1.5-0.3,3-0.5,4.5-0.9c1.5-0.4,2.9-0.7,4.4-1.1    c1.5-0.4,2.9-0.9,4.3-1.3c2.9-0.8,5.6-2,8.3-3c1.4-0.5,2.7-1.2,4-1.7c1.3-0.6,2.6-1.2,3.9-1.8c1.2-0.7,2.5-1.3,3.7-2    c0.6-0.3,1.2-0.6,1.8-1c0.6-0.3,1.2-0.7,1.7-1.1c2.3-1.4,4.5-2.7,6.6-4.3c1-0.7,2.1-1.5,3.1-2.2c1-0.7,1.9-1.5,2.8-2.2    c0.9-0.7,1.8-1.5,2.7-2.2c0.9-0.7,1.7-1.5,2.5-2.2c1.6-1.4,3.1-2.8,4.4-4.2c1.3-1.4,2.6-2.6,3.7-3.9c1.1-1.3,2.1-2.4,3-3.5    c0.4-0.5,0.9-1,1.3-1.5c0.4-0.5,0.7-1,1.1-1.4c0.7-0.9,1.2-1.6,1.7-2.2C783.5,221.6,784,220.9,784,220.9z"></path><g><polygon points="627.9,231.2 588.8,216.1 595.3,257.5    "></polygon></g></g></g><g><g><path d="M687.9,44.4c0,0,0.8,0,2.4,0c0.8,0,1.7,0,2.8-0.1c1.1,0,2.4,0.1,3.8,0.1c1.4,0,3,0.1,4.8,0.3    c1.7,0.2,3.6,0.2,5.6,0.6c2,0.3,4.1,0.5,6.3,1c1.1,0.2,2.3,0.4,3.4,0.6c1.2,0.3,2.3,0.6,3.6,0.8c0.6,0.1,1.2,0.3,1.8,0.4    c0.6,0.2,1.2,0.4,1.8,0.5c1.2,0.4,2.5,0.7,3.8,1.1c2.5,0.9,5.2,1.7,7.8,2.9c5.3,2.1,10.8,4.8,16.2,8c5.4,3.2,10.8,7,15.8,11.3    c5.1,4.3,9.9,9.1,14.3,14.4c4.4,5.2,8.3,10.9,11.7,16.7c0.8,1.5,1.7,2.9,2.5,4.4c0.8,1.5,1.5,3,2.3,4.5c0.7,1.5,1.3,3,2,4.5    c0.7,1.5,1.2,3,1.8,4.6c2.2,6.1,4.1,12.1,5.2,18c1.2,5.9,2,11.5,2.2,16.7c0.1,1.3,0.2,2.6,0.2,3.9c0,1.1,0.1,2.5,0.1,3.7    c0,2.4,0,4.7-0.2,6.8c-0.2,4.3-0.6,8-1.1,11.1c-0.4,3.1-0.9,5.5-1.2,7.1c-0.3,1.6-0.5,2.5-0.5,2.5l-17.7-4.7c0,0,0.2-0.7,0.6-2.1    c0.4-1.4,1-3.4,1.6-5.9c0.6-2.6,1.2-5.7,1.7-9.4c0.3-1.8,0.5-3.8,0.7-5.9c0.1-1,0.2-2,0.2-3.2c0.1-1.1,0.1-2.2,0.1-3.4    c0.2-4.6-0.1-9.6-0.7-14.8c-0.6-5.3-1.7-10.8-3.2-16.4c-0.4-1.4-0.8-2.8-1.3-4.2c-0.5-1.4-1-2.8-1.4-4.2c-0.6-1.4-1.1-2.8-1.7-4.2    c-0.6-1.4-1.2-2.8-1.9-4.2c-2.6-5.6-5.8-11-9.4-16.2c-3.6-5.2-7.6-10.1-12.1-14.5c-4.4-4.4-9.1-8.4-14-11.9    c-4.8-3.5-9.9-6.5-14.8-9c-2.4-1.3-4.9-2.3-7.3-3.4c-1.2-0.5-2.4-0.9-3.6-1.4c-0.6-0.2-1.2-0.5-1.7-0.7c-0.6-0.2-1.2-0.4-1.7-0.6    c-1.2-0.4-2.3-0.8-3.4-1.1c-1.1-0.3-2.2-0.6-3.3-0.9c-2.1-0.6-4.2-1.1-6.1-1.5c-1.9-0.5-3.8-0.7-5.5-1c-1.7-0.3-3.3-0.5-4.7-0.7    c-1.4-0.2-2.7-0.4-3.8-0.4c-1.1-0.1-2.1-0.1-2.8-0.2C688.7,44.5,687.9,44.4,687.9,44.4z"></path><g><polygon points="780.6,174.9 786.9,216.3 819.6,190.1    "></polygon></g></g></g><g><path class="st0" d="M745,192.3c-10.8,16.1-29.2,26.8-50.1,26.8c-33.3,0-60.2-27-60.2-60.2s27-60.2,60.2-60.2   c20.8,0,39.1,10.5,49.9,26.6"></path><line class="st1" x1="617" y1="172.5" x2="712" y2="172.5"></line><line class="st1" x1="617" y1="149.5" x2="712" y2="149.5"></line></g></svg>