<svg height='100px' width='100px'  fill="#160F30" xmlns="http://www.w3.org/2000/svg" xmlns:xlink="http://www.w3.org/1999/xlink" version="1.1" x="0px" y="0px" viewBox="0 0 66 66" enable-background="new 0 0 66 66" xml:space="preserve"><g><path d="M65.176,7.958h-11.16c-0.414,0-0.75,0.336-0.75,0.75v4.83h-6.478c-0.414,0-0.75,0.336-0.75,0.75v19.388H40.13V6.872   l0-0.002c-0.008-3.747-10.079-5.707-20.028-5.707c-9.949,0-20.02,1.96-20.028,5.707l0,0.002v50.029   c0,4.45,8.793,7.936,20.019,7.936c11.235,0,20.037-3.486,20.037-7.936V35.176h5.908v19.388c0,0.414,0.336,0.75,0.75,0.75h6.478   v4.83c0,0.414,0.336,0.75,0.75,0.75h11.16c0.414,0,0.75-0.336,0.75-0.75v-11.16c0-0.414-0.336-0.75-0.75-0.75h-11.16   c-0.414,0-0.75,0.336-0.75,0.75v4.83h-5.728V35.176h5.728v4.83c0,0.414,0.336,0.75,0.75,0.75h11.16c0.414,0,0.75-0.336,0.75-0.75   v-11.16c0-0.414-0.336-0.75-0.75-0.75h-11.16c-0.414,0-0.75,0.336-0.75,0.75v4.83h-5.728V15.038h5.728v4.83   c0,0.414,0.336,0.75,0.75,0.75h11.16c0.414,0,0.75-0.336,0.75-0.75V8.708C65.926,8.294,65.59,7.958,65.176,7.958z M20.102,2.663   c11.477,0,18.525,2.452,18.528,4.21c-0.003,1.713-7.179,4.213-18.528,4.213c-11.364,0-18.524-2.501-18.528-4.213   C1.578,5.115,8.625,2.663,20.102,2.663z M38.63,56.901c0,3.108-7.448,6.436-18.537,6.436c-10.914,0-18.519-3.392-18.519-6.436   V49.46c3.166,2.238,10.88,3.397,18.528,3.397c7.648,0,15.363-1.16,18.528-3.397V56.901z M38.63,47.147   c0,1.759-7.049,4.211-18.528,4.211c-11.479,0-18.528-2.453-18.528-4.211v-11.11c3.166,2.238,10.88,3.397,18.528,3.397   c7.648,0,15.363-1.16,18.528-3.397V47.147z M38.63,33.723c0,1.759-7.049,4.211-18.528,4.211c-11.479,0-18.528-2.453-18.528-4.211   v-11.11c3.166,2.238,10.88,3.397,18.528,3.397c7.648,0,15.363-1.16,18.528-3.397V33.723z M38.63,20.298   c0,1.759-7.049,4.211-18.528,4.211c-11.479,0-18.528-2.453-18.528-4.211V9.194c3.907,2.759,13.62,3.396,18.519,3.396   c4.864,0,14.573-0.594,18.537-3.397V20.298z M54.766,49.733h9.66v9.66h-9.66V49.733z M54.766,29.596h9.66v9.66h-9.66V29.596z    M64.426,19.118h-9.66v-9.66h9.66V19.118z"></path></g></svg>
