<svg height='100px' width='100px'  fill="#160F30" xmlns="http://www.w3.org/2000/svg" xmlns:xlink="http://www.w3.org/1999/xlink" version="1.1" x="0px" y="0px" viewBox="0 0 512 512" style="enable-background:new 0 0 512 512;" xml:space="preserve"><g><g><g><g><path d="M454.052,414.546H375.56c-0.742,0-1.469-0.206-2.101-0.596c-5.457-3.367-11.742-5.147-18.177-5.147      c-6.436,0-12.721,1.78-18.177,5.147c-0.631,0.39-1.358,0.596-2.101,0.596H214.944c-0.742,0-1.469-0.206-2.101-0.596      c-5.457-3.367-11.742-5.147-18.177-5.147s-12.72,1.78-18.177,5.147c-0.631,0.39-1.358,0.596-2.101,0.596H124.82      c-14.308,0-25.949-11.641-25.949-25.948c0-14.309,11.641-25.949,25.949-25.949h296.308c2.209,0,4,1.791,4,4s-1.791,4-4,4H124.82      c-9.897,0-17.949,8.052-17.949,17.949c0,9.896,8.052,17.948,17.949,17.948h48.464c6.484-3.761,13.851-5.743,21.382-5.743      s14.898,1.982,21.382,5.743H333.9c6.482-3.761,13.85-5.743,21.382-5.743c7.531,0,14.898,1.982,21.382,5.743h77.388      c2.209,0,4,1.791,4,4S456.261,414.546,454.052,414.546z"></path></g><g><path d="M194.667,486.136c-23.526,0-42.667-19.141-42.667-42.667c0-14.904,7.584-28.484,20.288-36.326      c6.72-4.147,14.458-6.34,22.378-6.34s15.658,2.192,22.378,6.339c12.705,7.843,20.289,21.423,20.289,36.327      C237.333,466.995,218.193,486.136,194.667,486.136z M194.667,408.803c-6.435,0-12.72,1.78-18.177,5.147      c-10.325,6.373-16.49,17.409-16.49,29.519c0,19.115,15.551,34.667,34.667,34.667s34.667-15.552,34.667-34.667      c0-12.11-6.165-23.146-16.491-29.52C207.387,410.583,201.102,408.803,194.667,408.803z"></path></g><g><path d="M355.282,486.136c-23.526,0-42.667-19.141-42.667-42.667c0-14.904,7.585-28.484,20.289-36.326      c6.719-4.147,14.457-6.34,22.378-6.34c7.919,0,15.657,2.192,22.378,6.339c12.704,7.842,20.288,21.422,20.288,36.327      C397.948,466.995,378.809,486.136,355.282,486.136z M355.282,408.803c-6.436,0-12.721,1.78-18.177,5.147      c-10.325,6.373-16.49,17.408-16.49,29.519c0,19.115,15.552,34.667,34.667,34.667s34.666-15.552,34.666-34.667      c0-12.11-6.164-23.146-16.489-29.52C368.002,410.583,361.717,408.803,355.282,408.803z"></path></g><path d="M365.071,427.575c-2.847-1.757-6.199-2.772-9.789-2.772c-3.591,0-6.942,1.016-9.789,2.772     c-5.326,3.288-8.878,9.175-8.878,15.894c0,10.31,8.357,18.667,18.667,18.667s18.666-8.357,18.666-18.667     C373.948,436.75,370.397,430.863,365.071,427.575z"></path><path d="M204.455,427.575c-2.846-1.757-6.198-2.772-9.789-2.772c-3.59,0-6.942,1.016-9.789,2.772     c-5.326,3.288-8.877,9.175-8.877,15.894c0,10.31,8.357,18.667,18.666,18.667c10.31,0,18.667-8.357,18.667-18.667     C213.333,436.75,209.782,430.863,204.455,427.575z"></path><g><path d="M124.82,270.803c-2.209,0-4-1.791-4-4V148.835l-74.251-28.452c-2.063-0.791-3.094-3.104-2.304-5.167      c0.791-2.063,3.103-3.095,5.167-2.304l76.82,29.436c1.547,0.593,2.569,2.079,2.569,3.735v120.718      C128.82,269.012,127.029,270.803,124.82,270.803z"></path></g><g><path d="M399.18,370.648H124.82c-2.209,0-4-1.791-4-4v-170c0-2.209,1.791-4,4-4H216c2.209,0,4,1.791,4,4s-1.791,4-4,4h-87.18      v162h267.777l73.205-162H386c-2.209,0-4-1.791-4-4s1.791-4,4-4h90c1.358,0,2.624,0.689,3.36,1.831      c0.737,1.142,0.844,2.579,0.285,3.816l-76.82,170C402.178,369.728,400.752,370.648,399.18,370.648z"></path></g><g><path d="M476,490.648H69.949c-2.209,0-4-1.791-4-4s1.791-4,4-4H476c2.209,0,4,1.791,4,4S478.209,490.648,476,490.648z"></path></g><g><path d="M336,310.648H126c-2.209,0-4-1.791-4-4s1.791-4,4-4h210c2.209,0,4,1.791,4,4S338.209,310.648,336,310.648z"></path></g><g><path d="M356,340.648H126c-2.209,0-4-1.791-4-4s1.791-4,4-4h230c2.209,0,4,1.791,4,4S358.209,340.648,356,340.648z"></path></g><g><path d="M166,370.648c-2.209,0-4-1.791-4-4v-80c0-2.209,1.791-4,4-4s4,1.791,4,4v80C170,368.857,168.209,370.648,166,370.648z"></path></g><g><path d="M206,370.648c-2.209,0-4-1.791-4-4v-80c0-2.209,1.791-4,4-4s4,1.791,4,4v80C210,368.857,208.209,370.648,206,370.648z"></path></g><g><path d="M246,370.648c-2.209,0-4-1.791-4-4v-80c0-2.209,1.791-4,4-4s4,1.791,4,4v80C250,368.857,248.209,370.648,246,370.648z"></path></g><g><path d="M126,90.648c-2.209,0-4-1.791-4-4v-30c0-2.209,1.791-4,4-4s4,1.791,4,4v30C130,88.857,128.209,90.648,126,90.648z"></path></g><g><path d="M141,75.648h-30c-2.209,0-4-1.791-4-4s1.791-4,4-4h30c2.209,0,4,1.791,4,4S143.209,75.648,141,75.648z"></path></g><g><path d="M51,340.648c-2.209,0-4-1.791-4-4v-30c0-2.209,1.791-4,4-4s4,1.791,4,4v30C55,338.857,53.209,340.648,51,340.648z"></path></g><g><path d="M66,325.648H36c-2.209,0-4-1.791-4-4s1.791-4,4-4h30c2.209,0,4,1.791,4,4S68.209,325.648,66,325.648z"></path></g><g><g><path d="M302.685,201.892c-2.209,0-4-1.791-4-4v-95.856c0-2.209,1.791-4,4-4h19.171c2.209,0,4,1.791,4,4s-1.791,4-4,4h-15.171       v91.856C306.685,200.101,304.894,201.892,302.685,201.892z"></path></g><g><path d="M302.685,106.036h-19.171c-2.209,0-4-1.791-4-4s1.791-4,4-4h19.171c2.209,0,4,1.791,4,4       S304.894,106.036,302.685,106.036z"></path></g></g><g><path d="M341.027,201.892h-76.686c-2.209,0-4-1.791-4-4v-27.188C236.633,156.05,222,129.954,222,102.036      c0-44.49,36.195-80.685,80.685-80.685s80.685,36.195,80.685,80.685c0,27.917-14.633,54.014-38.342,68.667v27.188      C345.027,200.101,343.236,201.892,341.027,201.892z M268.342,193.892h68.686v-25.456c0-1.428,0.761-2.747,1.996-3.462      c22.419-12.974,36.346-37.09,36.346-62.938c0-40.079-32.606-72.685-72.685-72.685S230,61.958,230,102.036      c0,25.848,13.927,49.964,36.346,62.938c1.235,0.715,1.996,2.034,1.996,3.462V193.892z"></path></g><g><path d="M341.027,230.648h-76.686c-2.209,0-4-1.791-4-4v-28.756c0-2.209,1.791-4,4-4h76.686c2.209,0,4,1.791,4,4v28.756      C345.027,228.857,343.236,230.648,341.027,230.648z M268.342,222.648h68.686v-20.756h-68.686V222.648z"></path></g><g><path d="M346,260.648h-80c-2.209,0-4-1.791-4-4s1.791-4,4-4h80c2.209,0,4,1.791,4,4S348.209,260.648,346,260.648z"></path></g><g><path d="M436,150.648c-13.233,0-24-10.766-24-24s10.767-24,24-24s24,10.766,24,24S449.233,150.648,436,150.648z M436,110.648      c-8.822,0-16,7.178-16,16s7.178,16,16,16s16-7.178,16-16S444.822,110.648,436,110.648z"></path></g></g></g></g></svg>
