<svg height='100px' width='100px'  fill="#FFFFFF" xmlns="http://www.w3.org/2000/svg" xmlns:xlink="http://www.w3.org/1999/xlink" version="1.1" x="0px" y="0px" viewBox="0 0 52 52" style="enable-background:new 0 0 52 52;" xml:space="preserve"><g><path d="M10.4688129,36.0299683c-1.4700317,0-2.8500366,0.5700073-3.8900146,1.6100464   c-1.9299927,1.9299927-2.4899902,8.0799561-2.5900269,9.289978c-0.0199585,0.2999878,0.0900269,0.5800171,0.2900391,0.789978   c0.1900024,0.1900024,0.4500122,0.2900391,0.7099609,0.2900391h0.0800171   c1.210022-0.1000366,7.3699951-0.6600342,9.289978-2.5800171c2.1500244-2.1500244,2.1500244-5.6400146,0-7.789978   C13.3187885,36.5999756,11.9387836,36.0299683,10.4688129,36.0299683z"></path><path d="M38.7354164,2.1511841c-4.9487915,1.1210327-10.6047993,3.3117065-14.8966084,7.6088257   c-2.5499878,2.539978-4.7800293,5.3399658-6.5200195,8.1499634c-1.289978-0.6599731-2.7399902-1.0199585-4.1699829-1.0199585   c-2.3400269,0-4.5599976,0.9299927-6.25,2.6300049l-5.6099854,5.5999756   c-0.2800293,0.289978-0.3699952,0.7200317-0.210022,1.0900269c0.1500244,0.3699951,0.5200195,0.6199951,0.9199829,0.6199951   h11.4899902c-0.9199829,4.1699829-0.25,7.6099854,1.9100342,9.7699585   c2.1400146,2.1400146,5.6400146,2.8200073,9.7700195,1.9100342V50c0,0.4099731,0.25,0.7700195,0.6199951,0.9299927   C25.9188251,50.9799805,26.048769,51,26.1688251,51c0.2699585,0,0.5199585-0.0999756,0.7099609-0.289978l5.6000385-5.6000366   c2.8199463-2.8200073,3.4199829-6.9699707,1.6099854-10.4299927c2.8099976-1.7299805,5.6099854-3.9699707,8.1499634-6.5200195   c4.4744263-4.4697266,6.6812744-10.3455811,7.7592773-15.401123C45.5702553,11.4187622,40.1845741,6.477356,38.7354164,2.1511841z    M40.5788002,18.5800171c-0.9500122,0.9599609-2.2299805,1.4799805-3.5800171,1.4799805   c-1.3499756,0-2.6199951-0.5200195-3.5799561-1.4799805c-1.9700336-1.9700317-1.9700336-5.1900024,0-7.1600342   c0.9599609-0.9599609,2.2299805-1.4799805,3.5799561-1.4799805c1.3500366,0,2.6300049,0.5200195,3.5800171,1.4799805   C42.5587807,13.3900146,42.5587807,16.6099854,40.5788002,18.5800171z"></path><path d="M50.9688148,1.9699707c-0.0200195-0.5099487-0.4299927-0.9099731-0.9400024-0.9400024   c0,0-0.4400024-0.0299683-1.2300415-0.0299683c-1.5209351,0-4.520874,0.1098633-8.081543,0.7476807   c1.3355713,3.5977783,5.9594116,7.8181763,9.6549683,9.0352173C51.1713295,5.9714966,50.9876137,2.2845459,50.9688148,1.9699707z"></path></g></svg>
