<svg height='100px' width='100px'  fill="#000000" xmlns="http://www.w3.org/2000/svg" xmlns:xlink="http://www.w3.org/1999/xlink" version="1.1" x="0px" y="0px" viewBox="0 0 130 130" style="enable-background:new 0 0 130 130;" xml:space="preserve"><g><path d="M82.7182617,29.5039063H20.7612305c-0.5522461,0-1,0.4472656-1,1v38.8994141c0,0.5527344,0.4477539,1,1,1h61.9570313   c0.5522461,0,1-0.4472656,1-1V30.5039063C83.7182617,29.9511719,83.2705078,29.5039063,82.7182617,29.5039063z    M81.7182617,31.5039063v20.5391846l-13.6630859-14.100708C67.8681641,37.75,67.6118164,37.640625,67.3432617,37.6386719   c-0.0024414,0-0.0043945,0-0.0063477,0c-0.2661133,0-0.5214844,0.1064453-0.7094727,0.2949219L47.0691528,57.6240845   l-9.8943481-9.866272c-0.3789063-0.3779297-0.9882813-0.3925781-1.3813477-0.0292969L21.7612305,60.5720825V31.5039063H81.7182617z    M21.7612305,63.2828979l14.6777344-13.4342651L55.046875,68.4033203H21.7612305V63.2828979z M57.8790283,68.4033203   l-9.3933105-9.3666992L67.328125,40.0664063l14.3901367,14.8518066v13.4851074H57.8790283z"></path><path d="M119.0151367,92.1679688H93.9487305V20.9697266c0-0.5527344-0.4477539-1-1-1h-9.2304688v-5.3320313   c0-0.5527344-0.4477539-1-1-1h-6.3266602V1c0-0.5527344-0.4477539-1-1-1s-1,0.4472656-1,1v12.6376953h-6.3271484   c-0.5522461,0-1,0.4472656-1,1v5.3320313H36.4145508v-5.3320313c0-0.5527344-0.4477539-1-1-1h-6.3266602V1   c0-0.5527344-0.4477539-1-1-1s-1,0.4472656-1,1v12.6376953h-6.3266602c-0.5522461,0-1,0.4472656-1,1v5.3320313h-8.7763672   c-0.5522461,0-1,0.4472656-1,1v97.1416016C9.9848633,124.6669922,14.3442383,130,19.7021484,130h85.472168   c8.1831055,0,14.8408203-6.6572266,14.8408203-14.8408203V93.1679688   C120.0151367,92.6152344,119.5673828,92.1679688,119.0151367,92.1679688z M81.7182617,15.6376953v7.3583984H69.0644531v-1.9997559   c0.0002441-0.0093994,0.0053711-0.0171509,0.0053711-0.0266113s-0.005127-0.0172119-0.0053711-0.0266113v-5.3054199H81.7182617z    M21.7612305,15.6376953h12.6533203v7.3583984H21.7612305V15.6376953z M118.0151367,115.1591797   c0,7.0800781-5.7602539,12.8408203-12.8408203,12.8408203h-85.472168c-4.2553711,0-7.7172852-4.4365234-7.7172852-9.8886719   V21.9697266h7.7763672v2.0263672c0,0.5527344,0.4477539,1,1,1h14.6533203c0.5522461,0,1-0.4472656,1-1v-2.0263672h30.6499023   v2.0263672c0,0.5527344,0.4477539,1,1,1h14.6538086c0.5522461,0,1-0.4472656,1-1v-2.0263672h8.2304688v94.9970703   c0,0.5527344,0.4477539,1,1,1s1-0.4472656,1-1V94.1679688h24.0664063V115.1591797z"></path><path d="M20.7612305,82.578125h34.6040039c0.5522461,0,1-0.4472656,1-1s-0.4477539-1-1-1H20.7612305c-0.5522461,0-1,0.4472656-1,1   S20.2089844,82.578125,20.7612305,82.578125z"></path><path d="M82.7182617,97.3496094H20.7612305c-0.5522461,0-1,0.4472656-1,1s0.4477539,1,1,1h61.9570313c0.5522461,0,1-0.4472656,1-1   S83.2705078,97.3496094,82.7182617,97.3496094z"></path><path d="M82.7182617,114.1220703H20.7612305c-0.5522461,0-1,0.4472656-1,1s0.4477539,1,1,1h61.9570313c0.5522461,0,1-0.4472656,1-1   S83.2705078,114.1220703,82.7182617,114.1220703z"></path><path d="M47.1757813,46.5673828c3.2050781,0,5.8129883-2.6083984,5.8129883-5.8134766s-2.6079102-5.8134766-5.8129883-5.8134766   c-3.2055664,0-5.8134766,2.6083984-5.8134766,5.8134766S43.9702148,46.5673828,47.1757813,46.5673828z M47.1757813,36.9404297   c2.1025391,0,3.8129883,1.7109375,3.8129883,3.8134766s-1.7104492,3.8134766-3.8129883,3.8134766   s-3.8134766-1.7109375-3.8134766-3.8134766S45.0732422,36.9404297,47.1757813,36.9404297z"></path></g></svg>