<svg height='100px' width='100px'  fill="#160F30" xmlns="http://www.w3.org/2000/svg" xmlns:xlink="http://www.w3.org/1999/xlink" version="1.1" x="0px" y="0px" viewBox="0 0 512 512" style="enable-background:new 0 0 512 512;" xml:space="preserve"><g><path d="M256,290.4c40.5,0,75.6-37.9,86.9-51.4c-11.3-13.5-46.5-51.4-86.9-51.4c-40.5,0-75.6,37.9-86.9,51.4   C180.4,252.5,215.6,290.4,256,290.4z M256,191.9c26,0,47.1,21.1,47.1,47.1S282,286,256,286s-47.1-21.1-47.1-47.1   S230,191.9,256,191.9z"></path><path d="M93,319.8c0,11.3,9.5,20.2,20.8,20.2h283.9c11.3,0,20.3-8.9,20.3-20.2V136H93V319.8z M152.4,234.3   c1.9-2.6,46.5-62.7,103.6-62.7s101.7,60.1,103.6,62.7c2.1,2.8,2.1,6.6,0,9.4c-1.9,2.6-46.5,62.7-103.6,62.7s-101.7-60.1-103.6-62.7   C150.4,240.9,150.4,237.1,152.4,234.3z"></path><circle cx="256" cy="239" r="31.1"></circle><path d="M427.2,57H84.8C76.1,57,69,64.1,69,72.8v31.4c0,8.7,7.1,15.8,15.8,15.8h342.4c8.7,0,15.8-7.1,15.8-15.8   V72.8C443,64.1,435.9,57,427.2,57z"></path><path d="M323.1,440.7L264,395.5V349h-16v45.8l-59.6,45.9c-3.5,2.7-4.2,7.7-1.5,11.2c1.6,2,3.9,3.1,6.3,3.1   c1.7,0,3.4-0.5,4.9-1.7l57.4-44.2l57.9,44.2c1.4,1.1,3.2,1.6,4.9,1.6c2.4,0,4.8-1.1,6.4-3.1C327.3,448.4,326.6,443.3,323.1,440.7z"></path></g></svg>
