<svg height='100px' width='100px'  fill="#107595" xmlns="http://www.w3.org/2000/svg" xmlns:xlink="http://www.w3.org/1999/xlink" version="1.1" x="0px" y="0px" viewBox="0 0 66 66" enable-background="new 0 0 66 66" xml:space="preserve"><g><path d="M16.6,25.1c2.7,0,4.9-2.2,4.9-4.9c0-2.7-2.2-4.9-4.9-4.9s-4.9,2.2-4.9,4.9C11.7,22.9,13.9,25.1,16.6,25.1z"></path><path d="M6.4,41.3L8.1,36l2.8-3.1v6.2c0,0.7,0.2,1.4,0.4,2L9.4,58.5h6.2l2.2-14l4.5,1c0.4,0.1,0.6,0.4,0.6,0.8v2.6H29l0-4.3   c0.1-2.5-1.5-4.8-4-5.4l-3.9-1l0.1-5.5l2,1.4c3.4,2.4,6.7,0,8.7-0.4c1.2-0.4,1.9-1.6,1.7-2.8c-0.3-1.6-1.9-2.5-3.3-2l-2.3,0.8   c-0.8,0.3-1.6,0.1-2.2-0.4l-3.2-2.6c-1.9-1.6-3.5-0.9-10.2-1.5c-1.5-0.1-2.9,0.5-3.8,1.6l-5.8,6.8c-0.6,0.7-0.4,1.1-1.8,6.1   c-0.4,1.8,0.9,3.5,2.8,3.5C5,43.2,6,42.4,6.4,41.3z"></path><path d="M64,41.4L64,41.4l-28.6,0.1c-0.6,0-1,0.5-1,1v8.3H20.1c-0.6,0-1,0.4-1,1v8.7H5.7c-0.5,0-1,0.5-1,1s0.5,1,1,1h14.4   c0.6,0,1-0.5,1-1v-8.7h14.2c0.6,0,1-0.4,1-1v-8.3L64,43.4c0.5,0,1-0.5,1-1S64.6,41.4,64,41.4z"></path><path d="M45.4,13c2.6-0.8,4-3.5,3.2-6.1c-0.4-1.2-1.3-2.3-2.4-2.9c-1.1-0.6-2.5-0.7-3.7-0.3c-2.6,0.8-4,3.6-3.2,6.1   C40,12.3,42.6,13.8,45.4,13z"></path><path d="M35.7,30.6c0.1,0.5,0.1,0.9,0,1.4c0.7-0.3,1.6-0.8,2.8-1.3c0.4-0.2,0.7-0.5,0.9-0.9l4-7.6l1.6,4.7L41.5,29   c-2.1,1.3-3,4-2.2,6.3l1.3,4.2l6.4,0l-1.4-4.4c-0.1-0.3,0-0.7,0.4-0.9l3.4-2l1.8,4.3c0.3,0.6,0.3,0.6,1.8,3l6.9,0   c-3.3-5.2-3.1-4.8-3.2-5.2l-2.1-5.7c0.7-1.2,0.9-2.6,0.4-3.9l-1.9-5.9l3.6,2.1c0.2,0.2,0.4,0.7,3.2,4.6c0.7,1,1.9,1.4,3,1.1   c1.8-0.5,2.5-2.6,1.6-4.1c0,0,0,0,0,0c-3.1-4.9-2.8-4.8-3.5-5.2l-7.6-4.7c-1.2-0.8-2.8-0.9-4.2-0.4c-6.3,2.5-7.9,3.2-8.2,3.3   c0.1,0,0.2,0,0.2-0.1c-1.4,0.8-3.8,2.2-4.5,5.6l-1,4.8l-2.5,1.6C34.5,27.9,35.5,29.1,35.7,30.6z"></path></g></svg>
