<svg height='100px' width='100px'  fill="#160F30" xmlns="http://www.w3.org/2000/svg" data-name="Layer 1" viewBox="0 0 100 100" x="0px" y="0px"><title>Artboard 12</title><path d="M6,39.35a27.2,27.2,0,0,0,4.28,12.39,25.83,25.83,0,0,0,3.78,4.58,24.78,24.78,0,0,0,2.08,1.81c.35.27.7.55,1.06.79l.53.36.26.18.13.09.07,0h0l.06,0,0,.51.15,2.09c.1,1.33.21,2.55.33,3.62,0,.3.68.53,1.44.51s1.21-.24,1.24-.51c.12-1.08.23-2.29.33-3.62L21.93,60l0-.55v-.22c0-.1,0-.2,0-.3a3.6,3.6,0,0,0-.11-.58,3.75,3.75,0,0,0-1.27-1.92l-.89-.75c-.29-.23-.55-.5-.83-.76-.56-.51-1.08-1.09-1.62-1.68a24.14,24.14,0,0,1-5.93-14.34,23.5,23.5,0,0,1,19-24.44,25.07,25.07,0,0,1,9.45,0,28.1,28.1,0,0,1,7,2.39c.26.13.82-.31,1.23-1h0c.37-.59.47-1.18.24-1.36a23.45,23.45,0,0,0-7.52-3.9,26.33,26.33,0,0,0-11.19-.9,26.72,26.72,0,0,0-12.19,4.87A27.57,27.57,0,0,0,6,39.35Zm12.5,20.08Z"></path><path d="M23.92,89.25v.28a4.32,4.32,0,0,0,0,.57,5.3,5.3,0,0,0,1.59,3.11A5.41,5.41,0,0,0,29,94.72l.49,0h.38l3.1.1,3.24.08,1.66,0,.84,0H39l.38,0a6.23,6.23,0,0,0,.76-.12,5.81,5.81,0,0,0,4.32-4.19,5.87,5.87,0,0,0,.15-.79c0-.13,0-.27,0-.4v-1a9.71,9.71,0,0,0,5.65-6.36,9.83,9.83,0,0,0,.27-1.39,6.07,6.07,0,0,0,.06-.7c0-.23,0-.5,0-.64v-2l0-4v0h0a2.69,2.69,0,0,0-2.71-2.66c-10.56.1-20.61.38-27.78.86l-.24,0a1.73,1.73,0,0,0-1.61,1.83c.14,2.21.3,4.1.47,5.69,0,.3.7.53,1.47.51s1.25-.24,1.28-.51c.12-1.09.23-2.34.34-3.73,6.35.38,14.59.62,23.34.73v3.34c0,.2,0,.26,0,.37a1.8,1.8,0,0,1,0,.3,4.47,4.47,0,0,1-.11.6,4.34,4.34,0,0,1-3.43,3.09h0a2.68,2.68,0,0,0-2.27,2.67l0,1.78v.88a.62.62,0,0,1,0,.1s0,0,0,0,0,0,0,.07a.54.54,0,0,1-.36.42l-.07,0h-.17l-.84,0-1.66,0-3.24.08-3.1.1-.64,0a.81.81,0,0,1-.2,0,.86.86,0,0,1-.38-.15.94.94,0,0,1-.29-.31,1,1,0,0,1-.09-.2.49.49,0,0,1,0-.11v-.06s0-.1,0-.15L28,86.47v-.2a1.88,1.88,0,0,0-1.68-1.76,5.43,5.43,0,0,1-3.53-1.82A6,6,0,0,1,21.47,80c0-.22-.71-.41-1.46-.4s-1.2.27-1.21.59a8,8,0,0,0,1.29,4.49A8.49,8.49,0,0,0,24,87.89l-.06,1.17Z"></path><path d="M35.95,46.66c3.35-3.34,6.37-7,7.38-9.32a4,4,0,0,0-.94-1.14,3.29,3.29,0,0,0-1-.8A32.17,32.17,0,0,0,34,40.91a32,32,0,0,0-7.4-5.49,3.87,3.87,0,0,0-1.11.92,3.19,3.19,0,0,0-.78,1c1,2.33,4,6,7.36,9.35a2.73,2.73,0,0,0,.53.4c-1.8,3.93-1.77,15.3.08,19.09a4.72,4.72,0,0,0,1.44.11h0a3.88,3.88,0,0,0,1.24-.11c1.85-3.79,1.88-15.16.08-19.09a2.72,2.72,0,0,0,.52-.4Z"></path><path d="M94,58.3l0-.61V56.51l0-1.57,0-3.17,0-6.41V39.73L94,38.78A16.7,16.7,0,0,0,76.92,23.06c.35-.26.69-.54,1-.82a10.81,10.81,0,0,0,3.5-8.29c0-.36-.68-.62-1.45-.59s-1.25.21-1.29.44a8.57,8.57,0,0,1-3.32,5.42q-.38.27-.78.51A4.21,4.21,0,0,0,73,21.45a4.28,4.28,0,0,0,.69,4.74A4.36,4.36,0,0,0,76,27.52a4.49,4.49,0,0,0,.68.09h.38l.56.05a7.19,7.19,0,0,1,1.13.17,6.75,6.75,0,0,1,1.13.28,12.38,12.38,0,0,1,7.38,6.06,12.09,12.09,0,0,1,1.32,4.91l0,.65v5.59l.08,12.48a2.11,2.11,0,0,1-1.63,1.92,2.26,2.26,0,0,1-2.38-1,2.55,2.55,0,0,1-.28-.62,2.33,2.33,0,0,1-.07-.34l0-.18V57.3l-.1-2.64-.24-4.9c-.18-3.07-.38-5.74-.61-7.88,0-.3-.68-.52-1.44-.5s-1.21.24-1.24.5c-.23,2.13-.44,4.8-.61,7.88l-.24,4.9-.1,2.64v.83a6.94,6.94,0,0,0,.12,1,7.07,7.07,0,0,0,.58,1.69c-.35,3.57-.61,8.26-.8,13.61-.11,3.25-.2,6.74-.26,10.35l-.08,5.3a3.07,3.07,0,0,1-1.49,2.4,3.11,3.11,0,0,1-2.82.2,3.19,3.19,0,0,1-1.83-2.16L73,90.17V90a1.74,1.74,0,0,1,0-.25l0-1.33-.06-2.63-.15-5c-.24-6.51-.59-12.08-1.05-15.79,0-.26-.68-.46-1.44-.44s-1.21.21-1.24.44c-.47,3.71-.82,9.28-1.05,15.79l-.15,5-.06,2.63,0,1.33c0,.09,0,.25,0,.42l0,.49c0,.32.08.65.13,1,0,.11.06.22.08.33a4.2,4.2,0,0,1-.84.76,3.81,3.81,0,0,1-3.52.43,3.41,3.41,0,0,1-2.16-2.93l0-3.36,0-3.69A191.49,191.49,0,0,0,60.43,60.4c0-.11.09-.21.13-.32a7,7,0,0,0,.39-2.46l-.06-1.68-.12-3.21c-.17-4.15-.37-7.76-.61-10.64,0-.41-.7-.73-1.47-.7s-1.25.33-1.28.7c-.23,2.88-.43,6.49-.61,10.64l-.12,3.21-.06,1.68a2.59,2.59,0,0,1-.22.91,2.46,2.46,0,0,1-1.28,1.26,2.36,2.36,0,0,1-1.8,0,2.29,2.29,0,0,1-1.25-1.28,2.36,2.36,0,0,1-.14-1l0-2,.11-8.25,0-4.24V39.86l.05-.88a11.82,11.82,0,0,1,2.52-6.43,12.57,12.57,0,0,1,2.56-2.4A13.2,13.2,0,0,1,60.4,28.6,13.35,13.35,0,0,1,63.83,28l.43,0a4.91,4.91,0,0,0,.6-.08A4.78,4.78,0,0,0,67,19.59a5.17,5.17,0,0,0-.46-.34l-.17-.12c-.1-.07-.21-.14-.31-.22a7.37,7.37,0,0,1-1.11-1,7.14,7.14,0,0,1-1.44-2.6A7.53,7.53,0,0,1,64.1,9.6a7.25,7.25,0,0,1,4.17-3.43,8,8,0,0,1,5.13.08A8.15,8.15,0,0,1,77.12,9a8.47,8.47,0,0,1,1.57,3.74c.05.33.72.61,1.47.58h0c.67,0,1.19-.35,1.2-.77a10.62,10.62,0,0,0-1.44-5.36,11.3,11.3,0,0,0-5-4.57A11.71,11.71,0,0,0,60,7.19a12.29,12.29,0,0,0-1.35,9.47A12.16,12.16,0,0,0,61,21.22a13,13,0,0,0,1.47,1.49,18.82,18.82,0,0,0-3.66.69,18.33,18.33,0,0,0-4.61,2.23,17.78,17.78,0,0,0-3.75,3.5,17.07,17.07,0,0,0-3.66,9.46l-.06,1.27v3.21l0,4.24.11,8.25,0,2a7.37,7.37,0,0,0,.61,2.9,7.15,7.15,0,0,0,4.21,3.87,7,7,0,0,0,5-.19c-.46,5.21-.69,12.1-.7,19l0,3.69,0,1.83c0,.64,0,1.08.08,2.07a8.33,8.33,0,0,0,2.08,4.58,8.17,8.17,0,0,0,4,2.44,7.78,7.78,0,0,0,7.54-2.12l.07-.08a8.33,8.33,0,0,0,2.84,2.12,8.49,8.49,0,0,0,12-7.2l0-.51V87.52l0-2.72c-.06-3.6-.14-7.09-.26-10.35-.13-3.79-.31-7.25-.52-10.22a7.16,7.16,0,0,0,4.08.54A7.28,7.28,0,0,0,94,58.3ZM76.83,23.21s-.05,0,0-.07h.09A.07.07,0,0,1,76.83,23.21Zm-13.25.4h0l0,0Zm.34-1h0Z"></path></svg>
