<svg height='100px' width='100px'  fill="#160F30" xmlns="http://www.w3.org/2000/svg" data-name="Layer 1" viewBox="0 0 512 512" x="0px" y="0px"><title>buy,procure ,invoice</title><path d="M206.868,56.047h12.246a6,6,0,0,0,0-12H206.868a6,6,0,0,0,0,12Z"></path><path d="M126.535,56.047h59.176a6,6,0,0,0,0-12H126.535a6,6,0,0,0,0,12Z"></path><path d="M85.288,318.043h39.328a6,6,0,0,0,6-6V272.715a6,6,0,0,0-6-6H85.288a6,6,0,0,0-6,6v39.328A6,6,0,0,0,85.288,318.043Zm6-39.328h27.328v27.328H91.288Z"></path><path d="M85.288,386.869h39.328a6,6,0,0,0,6-6V341.54a6,6,0,0,0-6-6H85.288a6,6,0,0,0-6,6v39.329A6,6,0,0,0,85.288,386.869Zm6-39.329h27.328v27.329H91.288Z"></path><path d="M85.288,455.694h39.328a6,6,0,0,0,6-6V410.365a6,6,0,0,0-6-6H85.288a6,6,0,0,0-6,6v39.329A6,6,0,0,0,85.288,455.694Zm6-39.329h27.328v27.329H91.288Z"></path><path d="M75.455,496.989H272.1a25.693,25.693,0,0,0,25.664-25.664v-70.9a25.99,25.99,0,0,0,24.552,17.5H442.12a6,6,0,0,0,0-12h-119.8a14,14,0,0,1-13.767-11.456l-1.975-10.691H411.781a26.1,26.1,0,0,0,24.4-17.02l25.659-69.719a6,6,0,0,0-5.631-8.072H297.763V159.645A25.694,25.694,0,0,0,272.1,133.98H248.6V112.958l53.168.846a6.076,6.076,0,0,0,4.3-1.722,6,6,0,0,0,1.791-4.277V50.643a35.672,35.672,0,0,0-35.632-35.632l-.09,0-.045,0H134.448a35.536,35.536,0,0,0-35.5,35.5V133.98h-23.5a25.694,25.694,0,0,0-25.664,25.665v311.68A25.693,25.693,0,0,0,75.455,496.989ZM424.919,362.617a14.05,14.05,0,0,1-13.138,9.165H304.357l-6.715-36.346v-.006l-6.366-34.459H447.607ZM248.6,175.477h7.664V222.47H248.6ZM295.866,50.643v51.066l-47.263-.753V50.643a23.632,23.632,0,1,1,47.263,0Zm-184.914-.136a23.522,23.522,0,0,1,23.5-23.5H245.6a35.481,35.481,0,0,0-9,23.632V222.47H110.952ZM91.288,222.47V175.477h7.664V222.47Zm-29.5-62.825A13.68,13.68,0,0,1,75.455,145.98h23.5v17.5H85.288a6,6,0,0,0-6,6V228.47a6,6,0,0,0,6,6H262.267a6,6,0,0,0,6-6V169.477a6,6,0,0,0-6-6H248.6v-17.5h23.5a13.68,13.68,0,0,1,13.664,13.665V271.134l-.13-.707a33.117,33.117,0,0,0-32.85-27.99H236.209a6,6,0,0,0,0,12h16.574a21.172,21.172,0,0,1,21.01,17.945c.008.05.017.1.026.151l11.944,64.657V471.325A13.679,13.679,0,0,1,272.1,484.989H75.455a13.68,13.68,0,0,1-13.664-13.664Z"></path><path d="M151.163,318.043h39.329a6,6,0,0,0,6-6V272.715a6,6,0,0,0-6-6H151.163a6,6,0,0,0-6,6v39.328A6,6,0,0,0,151.163,318.043Zm6-39.328h27.329v27.328H157.163Z"></path><path d="M222.938,318.043h39.329a6,6,0,0,0,6-6V272.715a6,6,0,0,0-6-6H222.938a6,6,0,0,0-6,6v39.328A6,6,0,0,0,222.938,318.043Zm6-39.328h27.329v27.328H228.938Z"></path><path d="M151.163,386.869h39.329a6,6,0,0,0,6-6V341.54a6,6,0,0,0-6-6H151.163a6,6,0,0,0-6,6v39.329A6,6,0,0,0,151.163,386.869Zm6-39.329h27.329v27.329H157.163Z"></path><path d="M222.938,386.869h39.329a6,6,0,0,0,6-6V341.54a6,6,0,0,0-6-6H222.938a6,6,0,0,0-6,6v39.329A6,6,0,0,0,222.938,386.869Zm6-39.329h27.329v27.329H228.938Z"></path><path d="M151.163,455.694h39.329a6,6,0,0,0,6-6V410.365a6,6,0,0,0-6-6H151.163a6,6,0,0,0-6,6v39.329A6,6,0,0,0,151.163,455.694Zm6-39.329h27.329v27.329H157.163Z"></path><path d="M222.938,455.694h39.329a6,6,0,0,0,6-6V410.365a6,6,0,0,0-6-6H222.938a6,6,0,0,0-6,6v39.329A6,6,0,0,0,222.938,455.694Zm6-39.329h27.329v27.329H228.938Z"></path><path d="M206.868,85.543h12.246a6,6,0,1,0,0-12H206.868a6,6,0,0,0,0,12Z"></path><path d="M126.535,85.543h59.176a6,6,0,0,0,0-12H126.535a6,6,0,0,0,0,12Z"></path><path d="M197.036,203.007h22.078a6,6,0,0,0,0-12H197.036a6,6,0,0,0,0,12Z"></path><path d="M180.66,191.007h-3.288a6,6,0,0,0,0,12h3.288a6,6,0,1,0,0-12Z"></path><path d="M126.535,115.04h59.176a6,6,0,0,0,0-12H126.535a6,6,0,0,0,0,12Z"></path><path d="M166.417,150.208l-6.1-.066a22.719,22.719,0,0,0-1.937-5.028l8.09.087h.066a6,6,0,0,0,.063-12l-28.294-.3-11.342-.121a6,6,0,1,0-.128,12l11.341.121a10.937,10.937,0,0,1,7.748,3.308,11.085,11.085,0,0,1,1.424,1.8l-20.567-.221a6,6,0,1,0-.129,12L147.22,162a11.13,11.13,0,0,1-1.462,1.767,10.941,10.941,0,0,1-7.817,3.14l-11.341-.121a6,6,0,0,0-4.232,10.316L150.427,204.2a6,6,0,1,0,8.335-8.633l-17.477-16.874a22.972,22.972,0,0,0,18.9-16.547l6.1.066h.065a6,6,0,0,0,.063-12Z"></path><path d="M323.235,456.72a25.9,25.9,0,1,0,25.9-25.9A25.926,25.926,0,0,0,323.235,456.72Zm39.794,0a13.9,13.9,0,1,1-13.9-13.9A13.913,13.913,0,0,1,363.029,456.72Z"></path><path d="M423.125,430.823a25.9,25.9,0,1,0,25.9,25.9A25.927,25.927,0,0,0,423.125,430.823Zm0,39.794a13.9,13.9,0,1,1,13.9-13.9A13.913,13.913,0,0,1,423.125,470.617Z"></path></svg>
