<svg height='100px' width='100px'  fill="#FFFFFF" xmlns:rdf="http://www.w3.org/1999/02/22-rdf-syntax-ns#" xmlns="http://www.w3.org/2000/svg" xmlns:cc="http://creativecommons.org/ns#" xmlns:dc="http://purl.org/dc/elements/1.1/" version="1.1" x="0px" y="0px" viewBox="0 0 100 100"><g transform="translate(0,-952.36218)"><path style="baseline-shift:baseline;block-progression:tb;color:#FFFFFF;direction:ltr;text-indent:0;enable-background:accumulate;text-transform:none;" fill="#FFFFFF" d="m17.656,963.84c-2.6786,0-4.875,2.1859-4.875,4.875v14.062h-4.875c-2.6774,0-4.875,2.1829-4.875,4.875v48.313c0,2.3557,1.6917,4.3266,3.9063,4.7812a0.60006,0.60006,0,0,0,0.25,0.094h0.094v0.031h0.4375c0.2067,0.018,0.2893,0.023,0.6562,0h83.75c2.6787,0,4.8438-2.2177,4.8438-4.9062v-67.25c0-2.6891-2.1651-4.875-4.8438-4.875h-74.469zm3.9375,6.7812,35.156,0,0,21.562-35.156,0,0-21.562zm42.094,3.1875,10.75,0,0,1.0625-10.75,0,0-1.0625zm0,4,24.531,0,0,1.0625-24.531,0,0-1.0625zm0,4,24.531,0,0,1.0625-24.531,0,0-1.0625zm-55.781,2.1875,4.875,0,0,49.063c0,3.9959-1.3871,5.4891-2.7187,6.1563-0.6209,0.3107-1.2295,0.4018-1.7188,0.4374h-0.4375c-2.0318,0-3.6563-1.6428-3.6563-3.6874v-48.313c0-2.0445,1.6245-3.6562,3.6563-3.6562zm55.781,1.8125,24.531,0,0,1.0625-24.531,0,0-1.0625zm0,4,24.531,0,0,1.0625-24.531,0,0-1.0625zm-41.719,10.156,15.531,0,0,1.0624-15.531,0,0-1.0624zm0,4,35.5,0,0,1.0624-35.5,0,0-1.0624zm42,0,25.062,0,0,1.0624-25.062,0,0-1.0624zm-42,4,35.5,0,0,1.0624-35.5,0,0-1.0624zm42,0,25.062,0,0,1.0624-25.062,0,0-1.0624zm-42,4,35.5,0,0,1.0624-35.5,0,0-1.0624zm42,0,25.062,0,0,1.0624-25.062,0,0-1.0624zm-42,4,35.5,0,0,1.0624-35.5,0,0-1.0624zm42,0,25.062,0,0,1.0624-25.062,0,0-1.0624zm-42,6,35.5,0,0,1.0624-35.5,0,0-1.0624zm42,0,25.062,0,0,1.0624-25.062,0,0-1.0624zm-42,4,35.5,0,0,1.0624-35.5,0,0-1.0624zm42,0,25.062,0,0,1.0624-25.062,0,0-1.0624zm-42,4,35.5,0,0,1.0624-35.5,0,0-1.0624zm42,0,25.062,0,0,1.0624-25.062,0,0-1.0624zm-42,4,35.5,0,0,1.0624-35.5,0,0-1.0624zm42,0,25.062,0,0,1.0624-25.062,0,0-1.0624z"></path></g></svg>
