<svg height='100px' width='100px'  fill="#160F30" xmlns="http://www.w3.org/2000/svg" data-name="Layer 1" viewBox="0 0 64 64" x="0px" y="0px"><polygon points="34.573 18 29.427 18 32 25.074 34.573 18"></polygon><polygon points="29.586 14 26.5 14 25 16 27.586 16 29.586 14"></polygon><polygon points="29.465 23.953 27.3 18 25 18 29.465 23.953"></polygon><polygon points="30.414 16 33.586 16 32 14.414 30.414 16"></polygon><path d="M3,48.414,16.586,62l3.586-3.586L6.586,44.828Zm4.879,2.707-3-3,1.414-1.414,3,3Z"></path><path d="M57.527,35H57.32a2.467,2.467,0,0,0-1.641.624l-8.015,7.124A1,1,0,0,1,47,43L35.866,41l5.85-1.6a2.02,2.02,0,1,0-1.17-3.865l-10.23,3.41A1,1,0,0,1,30,39H15.414l-5.108,6.586L21,56.28l7.419-7.094A1,1,0,0,1,29,49H48.611L59.2,39.3A2.472,2.472,0,0,0,57.527,35Z"></path><polygon points="39 18 36.7 18 34.535 23.953 39 18"></polygon><polygon points="37.5 14 34.414 14 36.414 16 39 16 37.5 14"></polygon><polygon points="53 6 53 4 51 4 51 6 49 6 49 8 51 8 51 10 53 10 53 8 55 8 55 6 53 6"></polygon><rect x="60" y="3" width="2" height="2"></rect><rect x="52" y="14" width="2" height="2"></rect><polygon points="13 15 13 13 11 13 11 15 9 15 9 17 11 17 11 19 13 19 13 17 15 17 15 15 13 15"></polygon><rect x="2" y="8" width="2" height="2"></rect><rect x="11" y="3" width="2" height="2"></rect><path d="M44,31V11a1,1,0,0,0-1-1H35.587A7,7,0,0,0,39,4a1.008,1.008,0,0,0-1-1,7,7,0,0,0-6,3.413A7,7,0,0,0,26,3a1.008,1.008,0,0,0-1,1,7,7,0,0,0,3.413,6H21a1,1,0,0,0-1,1V31H2v4H62V31ZM22.2,17.6a1,1,0,0,1,0-1.2l3-4A1,1,0,0,1,26,12H38a1,1,0,0,1,.8.4l3,4a1,1,0,0,1,0,1.2L34,28a2.5,2.5,0,0,1-2,1h0a2.5,2.5,0,0,1-2-1Z"></path></svg>
