<svg height='100px' width='100px'  fill="#000000" xmlns="http://www.w3.org/2000/svg" xmlns:xlink="http://www.w3.org/1999/xlink" version="1.1" x="0px" y="0px" viewBox="0 0 100 100" enable-background="new 0 0 100 100" xml:space="preserve"><path fill-rule="evenodd" clip-rule="evenodd" d="M50,5c16.568,0,30,13.431,30,30c0,16.569-19.041,60-30,60S20,51.568,20,35  C20,18.431,33.432,5,50,5L50,5z M35.934,29.189c-1.084,1.083-0.322,5.83,3.075,9.227s8.145,4.159,9.228,3.076  c1.084-1.083,0.321-5.83-3.076-9.227C41.763,28.867,37.017,28.105,35.934,29.189L35.934,29.189z M64.066,29.189  c-1.083-1.084-5.83-0.322-9.228,3.076c-3.396,3.397-4.159,8.144-3.075,9.227c1.083,1.083,5.83,0.322,9.228-3.076  C64.388,35.019,65.15,30.272,64.066,29.189L64.066,29.189z M50,15c-1.532,0-4.35,3.895-4.35,8.7c0,4.804,2.817,8.699,4.35,8.699  s4.35-3.895,4.35-8.699C54.35,18.895,51.532,15,50,15L50,15z M35.934,42.238c-1.084,1.083-0.322,5.83,3.075,9.227  c3.397,3.397,8.145,4.16,9.228,3.076c1.084-1.084,0.321-5.83-3.076-9.227C41.763,41.917,37.017,41.155,35.934,42.238L35.934,42.238z   M64.066,42.238c-1.083-1.083-5.83-0.321-9.228,3.076c-3.396,3.397-4.159,8.143-3.075,9.227c1.083,1.084,5.83,0.321,9.228-3.076  C64.388,48.068,65.15,43.321,64.066,42.238z"></path></svg>