<?xml version="1.0" encoding="UTF-8" standalone="yes"?>
<svg xmlns="http://www.w3.org/2000/svg" xmlns:xlink="http://www.w3.org/1999/xlink" width="64px" height="64px" viewBox="0 0 64 64" version="1.1" fill="#160F30">
  <g id="surface477548">
    <path style=" stroke:none;fill-rule:nonzero;fill:#160F30;fill-opacity:1;" d="M 16.1875 4 C 15.855469 4 15.546875 4.164062 15.359375 4.4375 L 1.171875 25.3125 C 0.914062 25.691406 0.949219 26.199219 1.257812 26.542969 L 31.257812 59.671875 C 31.449219 59.882812 31.714844 60 32 60 C 32.28125 60 32.550781 59.882812 32.738281 59.671875 L 62.738281 26.671875 C 63.007812 26.378906 63.074219 25.957031 62.914062 25.59375 C 62.753906 25.234375 62.394531 25 62 25 L 52.5 25 L 58.800781 16.597656 C 59.085938 16.214844 59.0625 15.683594 58.738281 15.328125 L 48.738281 4.328125 C 48.550781 4.121094 48.28125 4 48 4 Z M 16.71875 6 L 47.558594 6 L 49.511719 8.148438 C 49.210938 8.320312 49 8.628906 49 9 L 49 11 C 49 11.550781 49.449219 12 50 12 C 50.550781 12 51 11.550781 51 11 L 51 9.785156 L 56.703125 16.0625 L 50.609375 24.191406 L 43.792969 15.390625 C 43.601562 15.144531 43.308594 15 43 15 L 21 15 C 20.636719 15 20.304688 15.195312 20.125 15.511719 L 13.972656 26.511719 C 13.761719 26.886719 13.816406 27.351562 14.105469 27.671875 L 31.257812 46.671875 C 31.445312 46.878906 31.714844 47 31.996094 47 C 32.277344 47 32.546875 46.882812 32.734375 46.675781 L 43.734375 34.675781 C 44.003906 34.382812 44.074219 33.960938 43.914062 33.597656 C 43.753906 33.234375 43.394531 33 43 33 L 35.203125 33 L 40.453125 27 L 59.738281 27 L 32 57.511719 L 3.269531 25.78125 L 14 9.996094 L 14 11 C 14 11.550781 14.449219 12 15 12 C 15.550781 12 16 11.550781 16 11 L 16 9 C 16 8.558594 15.710938 8.195312 15.3125 8.0625 Z M 20 8 C 19.449219 8 19 8.449219 19 9 L 19 11 C 19 11.550781 19.449219 12 20 12 C 20.550781 12 21 11.550781 21 11 L 21 9 C 21 8.449219 20.550781 8 20 8 Z M 25 8 C 24.449219 8 24 8.449219 24 9 L 24 11 C 24 11.550781 24.449219 12 25 12 C 25.550781 12 26 11.550781 26 11 L 26 9 C 26 8.449219 25.550781 8 25 8 Z M 30 8 C 29.449219 8 29 8.449219 29 9 L 29 11 C 29 11.550781 29.449219 12 30 12 C 30.550781 12 31 11.550781 31 11 L 31 9 C 31 8.449219 30.550781 8 30 8 Z M 35 8 C 34.449219 8 34 8.449219 34 9 L 34 11 C 34 11.550781 34.449219 12 35 12 C 35.550781 12 36 11.550781 36 11 L 36 9 C 36 8.449219 35.550781 8 35 8 Z M 40 8 C 39.449219 8 39 8.449219 39 9 L 39 11 C 39 11.550781 39.449219 12 40 12 C 40.550781 12 41 11.550781 41 11 L 41 9 C 41 8.449219 40.550781 8 40 8 Z M 45 8 C 44.449219 8 44 8.449219 44 9 L 44 11 C 44 11.550781 44.449219 12 45 12 C 45.550781 12 46 11.550781 46 11 L 46 9 C 46 8.449219 45.550781 8 45 8 Z M 21.585938 17 L 42.511719 17 L 48.703125 25 L 40 25 C 39.710938 25 39.4375 25.125 39.25 25.34375 L 32.25 33.34375 C 31.988281 33.636719 31.929688 34.054688 32.089844 34.414062 C 32.253906 34.769531 32.609375 35 33 35 L 40.726562 35 L 32.003906 44.515625 L 16.066406 26.859375 Z M 21.585938 17 "/>
  </g>
</svg>
