<svg height='100px' width='100px'  fill="#160F30" xmlns="http://www.w3.org/2000/svg" data-name="Calque 1" viewBox="0 0 83.57 84.84" x="0px" y="0px"><title>france</title><path d="M50.81,92.42h-.92c-.23-.2-.46-.4-.67-.62a1.49,1.49,0,0,0-2-.16,1.31,1.31,0,0,1-1.11.16c-.32-.06-.43-.3-.53-.56l0-.06a.88.88,0,0,0-.92-.58l-1.34.05h-.25c-.56,0-.75-.18-.77-.73,0-.31,0-.61,0-.92a1.4,1.4,0,0,0-.08-.48.57.57,0,0,0-.27-.3,1.87,1.87,0,0,1-.65-.47,1.07,1.07,0,0,0-.66-.37,1.6,1.6,0,0,1-.83-.36l-.73-.56a4,4,0,0,0-1.5-.69c-.31-.07-.38,0-.41.3s0,.33-.05.49a.47.47,0,0,1-.32.39,1.56,1.56,0,0,1-1.33-.07,2,2,0,0,0-1.15-.25c-.82,0-1.64,0-2.47,0a1.57,1.57,0,0,1-.21,0,.66.66,0,0,1-.56-.48c-.06-.17-.1-.34-.16-.51a.69.69,0,0,0-.78-.58c-.46,0-.92,0-1.38,0a2.59,2.59,0,0,1-.46,0c-.39-.06-.53-.2-.56-.6a1.17,1.17,0,0,0-.72-1,2.1,2.1,0,0,0-.89-.2,1.7,1.7,0,0,1-1.49-.72,1.44,1.44,0,0,0-1-.53l-.52-.08A.68.68,0,0,1,22.5,81a8.21,8.21,0,0,1,.25-1c0-.15.11-.29.14-.44s0-.3-.23-.34-.23,0-.35,0c-.27,0-.54,0-.81-.08a.86.86,0,0,1-.59-.29,2.64,2.64,0,0,0-1-.81s0,0,0-.1l.69-.1a1.81,1.81,0,0,0,1.44-1,3.92,3.92,0,0,0,.36-1.25,4.15,4.15,0,0,1,.24-1.06q.89-2,1.84-3.93a7.58,7.58,0,0,0,.88-3.2c0-.51.21-.68.73-.7a3.37,3.37,0,0,0,.35,0,2.09,2.09,0,0,0,.44-.1c.17-.06.33-.16.34-.37s-.16-.31-.32-.38a1.38,1.38,0,0,0-.3-.09l-.56-.08c-.38,0-.52-.23-.43-.6.05-.22.15-.42.22-.63a12.56,12.56,0,0,0,.43-1.27c.18-.77.29-1.55.45-2.32s.3-1.31.48-2a2.17,2.17,0,0,1,.36-.68.56.56,0,0,1,.76-.17,1.08,1.08,0,0,1,.59.58c.21.5.39,1,.58,1.51.11.29.2.58.31.86,0,.12.1.27.33.28a1.56,1.56,0,0,0,.1-.38,4,4,0,0,0-.4-2c-.25-.47-.53-.92-.8-1.37a1.51,1.51,0,0,0-1.09-.82.67.67,0,0,1-.56-.53,1,1,0,0,1,.26-1,1.38,1.38,0,0,0,.42-1c.05-.56.12-1.12.19-1.68s.16-1,.2-1.57a3,3,0,0,0-.06-.73.42.42,0,0,0-.38-.37,1.92,1.92,0,0,0-.52,0,1.87,1.87,0,0,1-1.87-.8l-.24-.35a8.14,8.14,0,0,1-.85-1.86,4.19,4.19,0,0,0-.84-1.5c-.34-.39-.67-.79-1-1.21a4,4,0,0,1-.39-.71.41.41,0,0,1,0-.5.4.4,0,0,1,.46,0c.16.07.31.16.47.24s.37.08.38-.22a1.93,1.93,0,0,0-.43-1.38c-.29-.36-.28-.53.07-.83.08-.07.17-.13.24-.2a1.79,1.79,0,0,0,.16-.23,4.64,4.64,0,0,0-.49-.09c-.23,0-.47,0-.71,0a4.51,4.51,0,0,1-.7-.09.78.78,0,0,1-.69-.88,2.51,2.51,0,0,1,0-.53c.07-.33.17-.66.25-1s0-.51-.41-.45-.53.12-.8.16-.49.07-.65-.16,0-.43.05-.63.17-.31.24-.47,0-.32-.2-.33a1.89,1.89,0,0,0-.49,0l-1.51.34c-.29.06-.42,0-.46-.32a4.13,4.13,0,0,1,0-.46c0-.61-.17-.8-.77-.88a4.53,4.53,0,0,1-2.14-.87c-.24-.18-.46-.4-.7-.59a2,2,0,0,0-1.46-.51c-.32,0-.63.08-.94.13l-.56.09a.5.5,0,0,1-.55-.34c-.06-.16-.12-.33-.17-.5a5.72,5.72,0,0,0-.17-.61,1.08,1.08,0,0,0-.29-.43c-.39-.31-.81-.59-1.22-.89v-.49a2.13,2.13,0,0,1,1-.24,6.82,6.82,0,0,0,.91-.07,1.2,1.2,0,0,0,.4-.13c.21-.11.22-.29,0-.39A2,2,0,0,0,10,28.5c-.55-.07-.73-.29-.67-.85a2.93,2.93,0,0,0,0-.35.63.63,0,0,0-.49-.69,1.32,1.32,0,0,1-.62-.38v-.35a5.58,5.58,0,0,0,.28-.75,1.14,1.14,0,0,1,1.1-1c.46,0,.92,0,1.37-.06a2.07,2.07,0,0,0,.71-.16,1.07,1.07,0,0,1,.89,0c.26.1.52.22.77.34a2.1,2.1,0,0,0,.92.21l1.73,0a.48.48,0,0,0,.45-.22l.23-.31a1,1,0,0,1,.84-.38c.52,0,1,0,1.55,0a3.78,3.78,0,0,1,.82.16.86.86,0,0,1,.61.72c0,.21.05.42.1.63a4.88,4.88,0,0,0,.3,1.08,1.67,1.67,0,0,0,2.76.28c.27-.33.45-.38.82-.17s.52.32.77.5a1.07,1.07,0,0,0,.91.15,2.77,2.77,0,0,0,.37-.11,1.23,1.23,0,0,1,1.21.14l.58.4a2,2,0,0,0,1,.38A.54.54,0,0,0,29.9,27a4.55,4.55,0,0,0-.26-.65,2.3,2.3,0,0,1-.24-1.16c0-.26,0-.52.06-.77a11.73,11.73,0,0,0-.23-2.53,15.61,15.61,0,0,1-.24-2,2,2,0,0,0-.44-1.27,1.09,1.09,0,0,1-.26-.6,1.92,1.92,0,0,1,.4-1.29.62.62,0,0,1,.88-.17,3,3,0,0,1,.54.4,1.75,1.75,0,0,0,.86.46,6.91,6.91,0,0,0,.94.12c.55,0,.65.09.77.62,0,.09,0,.18.05.28q.08.51.15,1a1.12,1.12,0,0,0,.65.94,6.52,6.52,0,0,0,1,.37c.72.19,1.44.34,2.16.51a4.43,4.43,0,0,1,1.56.62,1.68,1.68,0,0,0,1.39.25l1.19-.32c.86-.24,1-.43,1-1.32,0-.45,0-.89,0-1.34a.86.86,0,0,1,.53-.85,5.22,5.22,0,0,1,1-.36c.54-.12,1.09-.21,1.63-.28s1.17-.1,1.75-.19a9,9,0,0,0,2.62-.92A1.25,1.25,0,0,0,50,16a1,1,0,0,1,.8-.62,2.62,2.62,0,0,0,.44-.12c.23-.09.28-.21.19-.44a1.86,1.86,0,0,0-.19-.34A1.27,1.27,0,0,1,51,13.39a3.51,3.51,0,0,1,.11-.41,3.27,3.27,0,0,0,.21-1.28,2.69,2.69,0,0,1,0-.6c.15-.8.29-1.6.46-2.39a1.12,1.12,0,0,1,1.18-1h.39c.52,0,1,0,1.55,0s1-.08,1.47-.12h1a1.23,1.23,0,0,1,.49.83c.09.37.17.73.26,1.1a.65.65,0,0,0,.57.54.53.53,0,0,1,.47.47l0,.24c.07.3.15.36.44.26s.5-.21.75-.31a3.94,3.94,0,0,1,.6-.21.55.55,0,0,1,.67.37,5.56,5.56,0,0,1,.14.65,2.82,2.82,0,0,0,.16.61c.31.63.61,1.28,1,1.88a3.39,3.39,0,0,0,2.47,1.76,4.93,4.93,0,0,1,.65.15A1,1,0,0,1,67.05,17c0,.13,0,.26,0,.39s0,.43,0,.63a1.13,1.13,0,0,0,1.11,1.12c.38.06.77.12,1.15.2a.64.64,0,0,0,.71-.27,3.2,3.2,0,0,0,.43-1c.07-.21.12-.43.2-.64s.12-.18.18-.18.16.09.19.17a7.27,7.27,0,0,1,.25.81,5.72,5.72,0,0,1,.07,1.9.91.91,0,0,0,.58,1l.31.16,1.2.6a2.77,2.77,0,0,1,1.05.92,8.18,8.18,0,0,1,.46.79.57.57,0,0,0,.57.34h.88a3,3,0,0,1,1.43.34,3.83,3.83,0,0,0,1.56.38c.55,0,1.1.11,1.65.18a.84.84,0,0,1,.74.66c.09.33.17.66.26,1a7.15,7.15,0,0,0,.23.7.53.53,0,0,0,.49.35l.77.07a3.4,3.4,0,0,1,1.79.55,1.55,1.55,0,0,0,1.64.16.7.7,0,0,1,.68,0,1.45,1.45,0,0,1,.35.24,2.07,2.07,0,0,0,1.22.58,6.66,6.66,0,0,0,.73.08c.25,0,.49,0,.74,0a1,1,0,0,1,1.06.77v.71c0,.06,0,.11-.05.17a1.73,1.73,0,0,1-1,1.27c-.13.06-.25.14-.38.18a1,1,0,0,0-.7.82c-.14.6-.3,1.19-.42,1.79a8.88,8.88,0,0,1-.76,2.27A3.93,3.93,0,0,0,88,39.39a4.41,4.41,0,0,1-.34,2.07,2,2,0,0,0-.12,1.07,3.26,3.26,0,0,1,0,.6,1.29,1.29,0,0,1-1,1.29,3,3,0,0,1-1.46.14,6.67,6.67,0,0,0-.8-.1.59.59,0,0,0-.69.47c-.09.25-.17.52-.24.78s-.19.8-.31,1.2a1.46,1.46,0,0,1-.24.54,4.3,4.3,0,0,1-2.19,1.65.76.76,0,0,0-.54.51,3.16,3.16,0,0,0-.21,1.07c0,.6-.09.69-.67.87l-.17,0a1,1,0,0,0-.88.77c-.14.43-.27.85-.38,1.28a3.8,3.8,0,0,1-.71,1.44,6.93,6.93,0,0,0-.63,1,1.39,1.39,0,0,0-.14.54.54.54,0,0,0,.47.64,3.15,3.15,0,0,0,.73,0,.68.68,0,0,0,.69-.63,8.06,8.06,0,0,0,.13-1,.94.94,0,0,1,.56-.87l.1,0a5.63,5.63,0,0,1,2.5-.34.42.42,0,0,1,.4.3,1.78,1.78,0,0,1,.08.45A5.64,5.64,0,0,1,81.73,57c-.12.44-.08.52.34.69l.47.17a4.82,4.82,0,0,1,.48.22.6.6,0,0,1,.32.55.92.92,0,0,1-.43.87l-.33.2a1.57,1.57,0,0,0-.2,2.38l.12.08a1.43,1.43,0,0,1,.66.71c.17.35.38.68.54,1a3.41,3.41,0,0,1,.24.73,1.81,1.81,0,0,1-.22,1.29,1,1,0,0,1-.95.57,6.69,6.69,0,0,0-.74,0,6.84,6.84,0,0,0-.9.16.89.89,0,0,0-.58.44,1.3,1.3,0,0,0,.16,1.52,6.4,6.4,0,0,0,1.59,1.27,2.52,2.52,0,0,1,.64.48A.78.78,0,0,1,83,71.55c-.16.22-.36.41-.52.62a3.34,3.34,0,0,0-.79,2.55,1.19,1.19,0,0,0,.46.84c.28.21.57.41.88.59s.92.49,1.34.79a1.37,1.37,0,0,0,1.49.14c.19-.09.39-.17.59-.24a.61.61,0,0,1,.6.09,1,1,0,0,1,.21,1.37,3.25,3.25,0,0,1-.55.55,13.85,13.85,0,0,0-2.08,2,5.1,5.1,0,0,1-1.86,1.43,3.43,3.43,0,0,0-.81.5c-.54.45-1.07.92-1.57,1.42a3.27,3.27,0,0,0-.87,1.36,1.11,1.11,0,0,1-.68.71,6.52,6.52,0,0,1-2.4.54,12.46,12.46,0,0,1-3.55-.54.65.65,0,0,1-.25-.12,7.81,7.81,0,0,0-1.34-.78,4.77,4.77,0,0,1-.9-.61A3.45,3.45,0,0,0,69.24,84c-.51-.19-1-.36-1.52-.56a1,1,0,0,0-.94,0,1.49,1.49,0,0,1-1.46,0A2.09,2.09,0,0,1,64.7,83a1.71,1.71,0,0,0-1.22-.55,2.8,2.8,0,0,0-.42,0,.81.81,0,0,1-.74-.33,5.19,5.19,0,0,0-.54-.61,1.23,1.23,0,0,0-.54-.31,2.23,2.23,0,0,0-1.79.33,3.8,3.8,0,0,0-.63.56,7,7,0,0,1-2.42,1.74l-1.6.76a1.11,1.11,0,0,0-.6.66,3.18,3.18,0,0,0-.14.51c-.1.54-.2,1.09-.27,1.64a11.34,11.34,0,0,0-.07,1.34c0,.6,0,1.2.05,1.8a1.31,1.31,0,0,1,0,.39.39.39,0,0,1-.17.24,2.5,2.5,0,0,1-1.24.34,1,1,0,0,0-.45.08,2.45,2.45,0,0,0-.5.31C51.19,92.08,51,92.25,50.81,92.42Z" transform="translate(-8.21 -7.58)"></path></svg>
