<svg height='100px' width='100px'  fill="#107595" xmlns:x="http://ns.adobe.com/Extensibility/1.0/" xmlns:i="http://ns.adobe.com/AdobeIllustrator/10.0/" xmlns:graph="http://ns.adobe.com/Graphs/1.0/" xmlns="http://www.w3.org/2000/svg" xmlns:xlink="http://www.w3.org/1999/xlink" version="1.1" x="0px" y="0px" viewBox="0 0 100 100" style="enable-background:new 0 0 100 100;" xml:space="preserve"><g><g i:extraneous="self"><g><path d="M60.7,69c-0.1,0-6.9-4.6-11.4-8.3c-0.8-2.6-1.2-11.3-1.1-18.4c0-1.5-0.6-3.3-2.5-4.6c-2.5-1.8-5.1-3.5-7.4-5     c-2.3-1.5-4.1-2.6-7.2-1.5c-4.8,1.7-15.3,19.1-18.4,32.1c-1.1,4.6,0.6,7.1,3.2,9.1s5.1,3.6,9.6,6.2H8c-3,0-5.5,2.4-5.5,5.5     c0,3,2.4,5.5,5.5,5.5h34.6c5,0,6.3-3.4,6.6-4.5c1.3-5.1-2.8-7.4-13.8-13.5c-1.1-0.6-2.4-1.3-3.8-2.1l7.2-14     c0.7,9.8,2.6,11.4,3.7,12.3c4.9,4.1,12.5,9.2,12.8,9.4c0.8,0.6,1.8,0.8,2.7,0.8c1.6,0,3.1-0.8,4-2.1C63.5,73.6,62.9,70.5,60.7,69     z"></path><ellipse transform="matrix(0.5097 -0.8604 0.8604 0.5097 5.5582 54.3141)" cx="50.4" cy="22.3" rx="11.7" ry="11.7"></ellipse><path d="M92.9,85.8c-2.6-0.9-8.2-2.7-12.9-3c0.2-4.5,2.1-8.2,4.2-11c2.8,1.5,6.3,1.9,8.7,0.3c4-2.7,4.8-12.4,4.5-18.1     c-0.1-1-1.3-1.5-2-0.8c-5.9,6-15,5.8-15.6,12.1c-0.1,1.4,0.4,2.7,1.3,3.9c4.3-4.3,8.9-5.8,9.2-5.9c0.1,0,0.1,0,0.2,0     c-1.2,0.7-8.2,5-11.2,12.8c-1.6-2.4-4.1-5.5-6.1-7.2c-1.4-1.3-2.5-2.1-2.9-2.3c0,0,0.1,0,0.1,0c0.2,0.1,3.7,0.9,6.8,4.1     c0.6-0.8,0.8-1.4,0.7-2.4c-0.3-4.6-6.9-4.6-11.1-9.1c-0.5-0.5-1.4-0.2-1.5,0.5c-0.3,4.1,0.1,11.1,3,13.2c1.6,1.2,4.1,1,6.1,0.1     c1.7,2,3.3,4.3,4.1,5.7c-0.3,1.2-0.5,2.5-0.5,3.9c-4.8,0.2-10.7,2.1-13.5,3.1c-0.8,0.3-1.3,1.2-1.2,2.1c0.2,0.8,0.9,1.4,1.8,1.4     l27.3,0c0.9,0,1.6-0.6,1.8-1.5l0,0C94.2,86.9,93.7,86.1,92.9,85.8z"></path></g></g></g></svg>
