<svg height='100px' width='100px'  fill="#160F30" xmlns="http://www.w3.org/2000/svg" xmlns:xlink="http://www.w3.org/1999/xlink" version="1.1" x="0px" y="0px" viewBox="0 0 32 32" style="enable-background:new 0 0 32 32;" xml:space="preserve"><g><g><path d="M24.5332031,28H2c-0.5522461,0-1-0.4472656-1-1V1c0-0.5527344,0.4477539-1,1-1h22.5332031c0.5522461,0,1,0.4472656,1,1v26    C25.5332031,27.5527344,25.0854492,28,24.5332031,28z M3,26h20.5332031V2H3V26z"></path></g><g><g><path d="M21.0668945,6H5.4438477c-0.5522461,0-1-0.4472656-1-1s0.4477539-1,1-1h15.6230469c0.5522461,0,1,0.4472656,1,1     S21.6191406,6,21.0668945,6z"></path></g><g><path d="M21.0668945,10.5H5.4438477c-0.5522461,0-1-0.4472656-1-1s0.4477539-1,1-1h15.6230469c0.5522461,0,1,0.4472656,1,1     S21.6191406,10.5,21.0668945,10.5z"></path></g><g><path d="M21.0668945,15H5.4438477c-0.5522461,0-1-0.4472656-1-1s0.4477539-1,1-1h15.6230469c0.5522461,0,1,0.4472656,1,1     S21.6191406,15,21.0668945,15z"></path></g><g><path d="M21.0668945,19.5H5.4438477c-0.5522461,0-1-0.4472656-1-1s0.4477539-1,1-1h15.6230469c0.5522461,0,1,0.4472656,1,1     S21.6191406,19.5,21.0668945,19.5z"></path></g><g><path d="M21.0668945,24H5.4438477c-0.5522461,0-1-0.4472656-1-1s0.4477539-1,1-1h15.6230469c0.5522461,0,1,0.4472656,1,1     S21.6191406,24,21.0668945,24z"></path></g></g><g><path d="M28.6630249,5h-4.1296997v22H7.4666748v2.6630249C7.4666748,30.4014282,8.0652466,31,8.8036499,31h19.859375    C29.4014282,31,30,30.4014282,30,29.6630249V6.3369751C30,5.5985718,29.4014282,5,28.6630249,5z"></path></g></g></svg>
