<svg height='100px' width='100px'  fill="#160F30" xmlns="http://www.w3.org/2000/svg" xmlns:xlink="http://www.w3.org/1999/xlink" version="1.1" x="0px" y="0px" viewBox="0 0 100 100" enable-background="new 0 0 100 100" xml:space="preserve"><path d="M6.7,79.9h49.1v-5.4c0-2.4,1.1-4.6,2.9-6.2c1.6-1.3,3.2-2.5,4.7-3.5H14.1v-5.5v-1.9v-30c0,0,0,0,0,0h34.7h24c0,0,0,0,0,0  v8.3c1.6-0.9,3.4-1.4,5.4-1.4H80c0.1,0,0.2,0,0.2,0v-7c0-4-3.3-7.3-7.3-7.3H45.5h0H14.1c-4,0-7.3,3.3-7.3,7.3v30V59v5.4  c0,0.9-0.3,1.9-0.9,2.6l-3.8,4.6c-0.3,0.3-0.4,0.8-0.4,1.2V75C1.7,77.7,3.9,79.9,6.7,79.9z M35.6,72.2h15.8v0.5  c0,1.4-1.1,2.5-2.5,2.5H38.1c-1.4,0-2.5-1.1-2.5-2.5V72.2z M96.9,71.6c0.9,0.7,1.4,1.8,1.4,3v5.4H79.1H59.9v-5.4  c0-1.1,0.5-2.2,1.4-3c4.9-4,10.2-6.7,11.2-7.2c0.1-0.1,0.2-0.2,0.2-0.3v-7.6c-1-0.6-1.6-1.7-1.6-3v-7.9c0-3.9,3.2-7.1,7.1-7.1h0.8  H80c3.9,0,7.1,3.2,7.1,7.1v7.9c0,1.2-0.6,2.3-1.6,3v7.6c0,0.1,0.1,0.3,0.2,0.3C86.8,64.9,92,67.6,96.9,71.6z M53.2,36.7l-0.5-0.1  c-0.6-0.1-1.2-0.1-1.8-0.3c-2-0.5-4-1.4-6.2-2.9c-0.3-0.2-0.7-0.5-1.3-0.5s-0.9,0.3-1.3,0.5c-2.9,2-5.6,3.1-8.3,3.2  c-0.7,0-1.9,0.3-1.9,2l0,2.7c0,1.8,0,3.7,0,5.5c0,0.7,0.1,1.5,0.3,2.4c0.4,1.8,1.4,3.5,3,5.1c1.9,2,4.4,3.5,7.6,4.7  c0.2,0.1,0.4,0.1,0.7,0.1h0c0.3,0,0.6-0.1,0.8-0.2l0.8-0.3c0.7-0.3,1.3-0.6,2-0.9c2.5-1.3,4.4-2.9,5.8-4.8c1.3-1.7,1.9-3.4,2-5.3  C55,46.5,55,45.2,55,44l0-5.5C55,37.5,54.3,36.8,53.2,36.7z M52.2,47.6c-0.1,1.3-0.5,2.5-1.5,3.7c-1.2,1.6-2.8,2.9-4.9,4  c-0.6,0.3-1.2,0.6-1.8,0.8c-0.2,0.1-0.3,0.1-0.5,0.2V46.3h-8.7c0-1.6,0-3.3,0-4.9l0-2.1c2.9-0.3,5.7-1.4,8.7-3.4v10.4h8.7  C52.2,46.7,52.2,47.2,52.2,47.6z"></path></svg>
