<svg height='100px' width='100px'  fill="#107595" xmlns="http://www.w3.org/2000/svg" xmlns:xlink="http://www.w3.org/1999/xlink" version="1.1" x="0px" y="0px" viewBox="0 0 100 100" enable-background="new 0 0 100 100" xml:space="preserve"><path d="M73.009,41.712c-11.569,0-20.953,9.379-20.953,20.95c0,11.572,9.384,20.953,20.953,20.953s20.954-9.381,20.954-20.953  C93.963,51.092,84.578,41.712,73.009,41.712z M86.522,67.543H77.89v8.635c0,1.105-0.897,2-2.003,2h-5.755  c-1.108,0-2.004-0.895-2.004-2v-8.635h-8.635c-1.104,0-2-0.895-2-2.002v-5.756c0-1.105,0.896-2.002,2-2.002h8.635V49.15  c0-1.106,0.896-2.004,2.004-2.004h5.755c1.105,0,2.003,0.897,2.003,2.004v8.633h8.633c1.104,0,2.003,0.896,2.003,2.002v5.756  C88.525,66.648,87.627,67.543,86.522,67.543z"></path><path d="M47.853,62.664c0-13.893,11.264-25.157,25.157-25.157c2.733,0,5.362,0.442,7.826,1.248  c-0.268-12.404-9.349-22.369-20.521-22.369c-6.99,0-13.165,3.902-16.873,9.86c-3.709-5.958-9.883-9.86-16.873-9.86  c-11.34,0-20.533,10.266-20.533,22.93c0,5.005,1.437,9.636,3.873,13.407c0,0,11.721,19.332,33.533,29.141  c3.193-1.436,6.164-3.08,8.92-4.834C49.522,72.955,47.853,68.006,47.853,62.664z"></path></svg>
