<svg height='100px' width='100px'  fill="#160F30" xmlns="http://www.w3.org/2000/svg" xmlns:xlink="http://www.w3.org/1999/xlink" viewBox="0 0 32 32" version="1.1" xml:space="preserve" style="" x="0px" y="0px" fill-rule="evenodd" clip-rule="evenodd" stroke-linejoin="round" stroke-miterlimit="1.41421"><g transform="matrix(1,0,0,1,-192,-64)"><g transform="matrix(1,0,0,1,192,64)"><rect x="0" y="0" width="32" height="32" style="" fill="none"></rect><g transform="matrix(1,0,0,1,-641.5,-171)"><path d="M659.5,189.714L671.5,188L671.5,198L643.5,198L643.5,188L655.5,189.714L655.5,192L659.5,192L659.5,189.714ZM666.5,180L671.5,180L671.5,186L659.5,187.714L659.5,186L655.5,186L655.5,187.714L643.5,186L643.5,180L648.5,180L648.5,176L666.5,176L666.5,180ZM664.5,178L650.5,178L650.5,180L664.5,180L664.5,178Z"></path></g></g></g></svg>
