<svg height='100px' width='100px'  fill="#160F30" xmlns="http://www.w3.org/2000/svg" xmlns:xlink="http://www.w3.org/1999/xlink" version="1.1" x="0px" y="0px" viewBox="0 0 100 100" style="enable-background:new 0 0 100 100;" xml:space="preserve"><style type="text/css">
	.st0{fill:#160F30;}
</style><g><g><g><path class="st0" d="M62.9,71.5H37.8c-0.8,0-1.6-0.5-1.9-1.3c-0.3-0.8-0.1-1.7,0.5-2.3l17.4-17.4L36.3,33.2     c-0.6-0.6-0.8-1.5-0.5-2.3s1.1-1.3,1.9-1.3h25.1c1.2,0,2.1,0.9,2.1,2.1c0,1.2-0.9,2.1-2.1,2.1h-20l15.3,15.3c0.8,0.8,0.8,2.1,0,3     L42.8,67.3h20.1c1.2,0,2.1,0.9,2.1,2.1S64.1,71.5,62.9,71.5z"></path></g></g></g><g><path d="M81.1,95H19c-6.9,0-12.5-5.6-12.5-12.5V20.4c0-6.9,5.6-12.5,12.5-12.5h62.1c6.9,0,12.5,5.6,12.5,12.5v62.1   C93.6,89.4,88,95,81.1,95z M19,8.9C12.7,8.9,7.5,14,7.5,20.4v62.1C7.5,88.8,12.7,94,19,94h62.1c6.3,0,11.5-5.2,11.5-11.5V20.4   c0-6.3-5.2-11.5-11.5-11.5H19z"></path></g></svg>
