<?xml version="1.0" encoding="UTF-8" standalone="yes"?>
<svg xmlns="http://www.w3.org/2000/svg" xmlns:xlink="http://www.w3.org/1999/xlink" width="64px" height="64px" viewBox="0 0 64 64" version="1.1" fill="#160F30">
  <g id="surface477260">
    <path style=" stroke:none;fill-rule:nonzero;fill:#160F30;fill-opacity:1;" d="M 33.738281 2.0625 C 32.609375 2.0625 31.488281 2.339844 30.488281 2.859375 C 30.488281 2.859375 29.671875 3.238281 29.488281 3.328125 L 20.109375 8.019531 C 19.628906 8.257812 19.191406 8.570312 18.8125 8.949219 L 8.828125 18.9375 C 8.511719 19.25 8.238281 19.609375 8.019531 19.988281 L 3.03125 28.8125 C 2.378906 29.902344 2.03125 31.140625 2.03125 32.410156 L 2.097656 45.910156 C 2.050781 46.742188 2.046875 47.550781 2.109375 48.328125 C 2.140625 48.738281 2.191406 49.152344 2.242188 49.550781 C 2.410156 50.621094 2.691406 51.609375 3.070312 52.53125 C 3.191406 52.808594 3.320312 53.078125 3.460938 53.347656 C 3.929688 54.25 4.519531 55.070312 5.242188 55.789062 C 5.503906 56.054688 5.78125 56.300781 6.070312 56.53125 C 6.238281 56.667969 6.421875 56.785156 6.597656 56.90625 C 6.722656 56.996094 6.84375 57.09375 6.972656 57.171875 C 7.230469 57.335938 7.5 57.480469 7.773438 57.621094 C 7.835938 57.652344 7.890625 57.691406 7.949219 57.71875 C 8.269531 57.875 8.601562 58.015625 8.945312 58.140625 C 8.960938 58.148438 8.980469 58.160156 9 58.167969 C 10.449219 58.699219 12.097656 58.976562 13.929688 58.992188 C 13.9375 58.992188 13.945312 59 13.953125 59 C 13.96875 59 13.984375 59 14 59 C 14.007812 59 14.011719 58.996094 14.019531 58.996094 C 14.046875 58.996094 14.070312 59 14.097656 59 C 14.46875 59 14.839844 58.992188 15.210938 58.960938 C 15.671875 58.941406 16.128906 58.898438 16.597656 58.847656 L 16.621094 58.847656 L 55.5 56.910156 C 56.539062 56.859375 57.359375 56.03125 57.402344 54.988281 L 58.890625 16.289062 C 58.902344 16.21875 58.96875 14.320312 58.96875 14.152344 C 58.96875 13.390625 58.90625 12.667969 58.8125 11.96875 C 58.769531 11.601562 58.71875 11.242188 58.652344 10.890625 C 58.640625 10.890625 58.640625 10.878906 58.652344 10.871094 C 58.441406 9.859375 58.128906 8.921875 57.71875 8.0625 C 57.21875 7.019531 56.570312 6.078125 55.761719 5.269531 C 53.628906 3.140625 50.652344 2.0625 46.902344 2.0625 Z M 35.121094 4.0625 L 43.671875 4.0625 L 43.371094 4.390625 L 40.0625 7.933594 C 39.691406 7.316406 39.195312 6.769531 38.570312 6.351562 L 37.910156 5.910156 L 35.890625 4.570312 L 35.878906 4.570312 Z M 46.902344 4.0625 C 50.101562 4.0625 52.597656 4.941406 54.347656 6.679688 C 54.578125 6.910156 54.789062 7.148438 54.988281 7.410156 C 56.320312 9.128906 56.980469 11.476562 56.957031 14.292969 L 37.683594 20.65625 L 40.539062 12.089844 C 40.769531 11.402344 40.824219 10.695312 40.753906 10.007812 L 46.160156 11.921875 C 46.269531 11.960938 46.378906 11.980469 46.488281 11.980469 C 46.898438 11.980469 47.289062 11.71875 47.4375 11.3125 C 47.621094 10.789062 47.351562 10.21875 46.828125 10.039062 L 42.320312 8.4375 L 46.390625 4.070312 C 46.5625 4.058594 46.730469 4.0625 46.902344 4.0625 Z M 31.71875 4.800781 C 32.3125 4.800781 32.890625 4.972656 33.390625 5.300781 L 33.75 5.539062 L 35.679688 6.828125 L 37.460938 8.007812 C 38.582031 8.757812 39.070312 10.179688 38.640625 11.460938 L 35.488281 20.902344 C 35.320312 21.402344 35.03125 21.847656 34.640625 22.199219 L 22.390625 33.078125 C 22.011719 33.421875 21.550781 33.660156 21.050781 33.769531 L 11.050781 35.988281 C 9.921875 36.238281 8.78125 35.828125 8.0625 34.9375 L 7.480469 34.210938 L 6.148438 32.550781 L 6.140625 32.539062 L 5.671875 31.949219 C 5.230469 31.410156 5.007812 30.75 5.007812 30.078125 C 5.007812 29.75 5.058594 29.429688 5.179688 29.109375 C 5.230469 28.929688 5.308594 28.761719 5.410156 28.589844 L 9.757812 20.980469 C 9.890625 20.75 10.050781 20.539062 10.238281 20.347656 L 20.21875 10.371094 C 20.449219 10.140625 20.71875 9.949219 21 9.800781 L 30.378906 5.109375 C 30.53125 5.039062 30.679688 4.980469 30.839844 4.929688 C 31.128906 4.839844 31.429688 4.800781 31.71875 4.800781 Z M 50.3125 11.351562 C 49.921875 11.375 49.566406 11.625 49.425781 12.015625 C 49.242188 12.535156 49.515625 13.109375 50.035156 13.292969 L 52.484375 14.160156 C 52.59375 14.199219 52.707031 14.21875 52.816406 14.21875 C 53.226562 14.21875 53.613281 13.960938 53.761719 13.550781 C 53.945312 13.03125 53.671875 12.457031 53.152344 12.273438 L 50.703125 11.40625 C 50.574219 11.359375 50.441406 11.34375 50.3125 11.351562 Z M 56.875 16.421875 C 56.878906 16.449219 56.875 16.484375 56.878906 16.511719 L 56.871094 16.769531 C 55.886719 24.058594 50.84375 33.3125 42.800781 41.566406 C 42.796875 41.542969 42.800781 41.519531 42.792969 41.496094 L 40.242188 32.804688 C 40.085938 32.273438 39.53125 31.96875 39 32.125 C 38.472656 32.28125 38.167969 32.835938 38.324219 33.367188 L 40.3125 40.144531 L 24.191406 34.160156 L 35.96875 23.6875 C 36.152344 23.527344 36.316406 23.351562 36.472656 23.164062 Z M 56.5625 24.8125 L 55.402344 54.910156 L 25.28125 56.421875 C 31.398438 53.828125 37.839844 49.390625 43.597656 43.628906 C 49.621094 37.609375 54.050781 30.980469 56.5625 24.8125 Z M 37.34375 25.097656 C 37.21875 25.085938 37.082031 25.09375 36.953125 25.136719 C 36.421875 25.289062 36.117188 25.84375 36.273438 26.375 L 37.015625 28.914062 C 37.144531 29.351562 37.542969 29.632812 37.976562 29.632812 C 38.070312 29.632812 38.164062 29.621094 38.257812 29.59375 C 38.789062 29.4375 39.089844 28.882812 38.9375 28.351562 L 38.191406 25.8125 C 38.074219 25.414062 37.734375 25.144531 37.34375 25.097656 Z M 4.03125 33.089844 C 4.050781 33.128906 4.078125 33.160156 4.109375 33.199219 L 5.179688 34.53125 L 6.492188 36.179688 C 6.5 36.199219 6.519531 36.21875 6.53125 36.230469 C 6.945312 36.738281 7.445312 37.136719 7.992188 37.4375 C 7.988281 37.53125 12.707031 56.933594 12.707031 56.933594 C 11.832031 56.855469 11.023438 56.699219 10.265625 56.472656 C 10.183594 56.449219 10.097656 56.421875 10.015625 56.394531 C 9.839844 56.339844 9.671875 56.273438 9.5 56.207031 C 9.382812 56.160156 9.261719 56.113281 9.148438 56.0625 C 9.003906 56 8.863281 55.929688 8.726562 55.859375 C 8.589844 55.792969 8.460938 55.722656 8.328125 55.648438 C 8.214844 55.582031 8.097656 55.511719 7.984375 55.441406 C 7.832031 55.34375 7.6875 55.238281 7.546875 55.136719 C 7.460938 55.074219 7.371094 55.011719 7.289062 54.949219 C 7.066406 54.769531 6.851562 54.582031 6.648438 54.378906 C 4.570312 52.289062 3.730469 49.210938 4 45.550781 L 7.53125 40.25 C 7.839844 39.789062 7.71875 39.167969 7.257812 38.871094 C 6.800781 38.558594 6.179688 38.679688 5.867188 39.140625 L 4.949219 40.511719 L 4.949219 40.53125 L 4.03125 41.902344 Z M 22.128906 35.527344 L 41.484375 42.714844 C 41.53125 42.734375 41.582031 42.730469 41.632812 42.738281 C 33.417969 50.773438 23.949219 56.027344 16.25 56.871094 L 16.089844 56.878906 C 16.003906 56.890625 15.925781 56.894531 15.84375 56.902344 C 15.785156 56.90625 15.71875 56.914062 15.65625 56.917969 C 15.578125 56.925781 15.503906 56.929688 15.421875 56.9375 L 19.464844 45.195312 C 19.644531 44.671875 19.367188 44.105469 18.84375 43.925781 C 18.320312 43.746094 17.75 44.023438 17.574219 44.546875 L 14.160156 54.457031 L 10.140625 38.046875 C 10.222656 38.050781 10.300781 38.0625 10.378906 38.0625 C 10.75 38.0625 11.121094 38.019531 11.480469 37.9375 L 21.488281 35.71875 C 21.707031 35.671875 21.921875 35.605469 22.128906 35.527344 Z M 45.90625 43.988281 C 45.648438 43.988281 45.394531 44.085938 45.199219 44.28125 L 43.78125 45.699219 C 43.390625 46.085938 43.390625 46.71875 43.78125 47.109375 C 43.976562 47.304688 44.234375 47.40625 44.488281 47.40625 C 44.746094 47.40625 45.003906 47.304688 45.199219 47.109375 L 46.609375 45.699219 C 47.003906 45.304688 47.003906 44.675781 46.609375 44.28125 C 46.414062 44.085938 46.160156 43.988281 45.90625 43.988281 Z M 49.4375 47.523438 C 49.183594 47.523438 48.929688 47.621094 48.734375 47.816406 L 47.316406 49.234375 C 46.925781 49.625 46.925781 50.253906 47.316406 50.644531 C 47.511719 50.84375 47.769531 50.9375 48.027344 50.9375 C 48.28125 50.9375 48.539062 50.839844 48.734375 50.644531 L 50.144531 49.230469 C 50.539062 48.839844 50.539062 48.207031 50.144531 47.816406 C 49.949219 47.621094 49.695312 47.523438 49.4375 47.523438 Z M 52.976562 51.0625 C 52.722656 51.0625 52.464844 51.15625 52.269531 51.355469 L 50.855469 52.765625 C 50.460938 53.160156 50.460938 53.789062 50.855469 54.183594 C 51.046875 54.375 51.304688 54.472656 51.5625 54.472656 C 51.816406 54.472656 52.074219 54.375 52.265625 54.183594 L 53.683594 52.765625 C 54.074219 52.375 54.074219 51.746094 53.683594 51.355469 C 53.488281 51.15625 53.230469 51.0625 52.976562 51.0625 Z M 52.976562 51.0625 "/>
  </g>
</svg>
