<svg height='100px' width='100px'  fill="#160F30" xmlns="http://www.w3.org/2000/svg" xmlns:xlink="http://www.w3.org/1999/xlink" version="1.1" x="0px" y="0px" viewBox="0 0 73 73" enable-background="new 0 0 73 73" xml:space="preserve"><g><path d="M59.0111275,48.5955849c-1.2654686-1.5128975-2.0473251-2.4486694-3.3282471-2.5298462   c1.4686394-3.6591415,1.2095032-7.3609962-0.097229-11.1138916c3.0681229,0.142704,6.9236717,1.9471664,8.3810425-0.2625122   c2.3286095-3.0722656-1.9541016-10.4746094-2.1367188-10.7871094c-1.5169067-2.6001587-3.9840698-4.574646-6.7826538-5.5849609   c4.3032913-3.3184595,2.6488686-11.1959229-3.9629517-10.53125c-4.9629898,0.4970565-7.8888664,7.3548417-4.012207,10.4579468   c-1.5005493,0.5422363-2.930603,1.3966064-4.234375,2.5515137c-1.3787231-1.411438-3.0615845-2.494751-4.8875122-3.1536865   c2.4357948-1.8765564,3.1653557-5.7642622,1.4641724-8.1951294c-2.6180077-3.7331061-9.2293301-3.1219583-10.9404316,2.4428711   c-0.641367,2.088233-0.2637367,4.2633457,1.4868774,5.6782837c-1.5852051,0.576416-3.0986938,1.5067749-4.480896,2.7709961   c-1.2962036-1.1992798-2.8049927-2.1172485-4.4124146-2.699646c2.4024487-1.8533182,3.1786709-5.7344027,1.4606323-8.1929932   c-1.1108398-1.58252-3.3237305-2.5434575-5.4365234-2.3334966c-4.9499989,0.4907222-7.8820133,7.3171544-4.0281372,10.4477539   c-5.9631052,2.1529026-8.3130207,8.0166664-8.5807495,8.3828125c-1.2553709,2.3398438-3.5922849,6.6953125-0.722656,8.684082   c1.673784,1.1748772,2.8409913,0.6619606,4.5810547,0.1040039c1.9063644-0.6143875,12.962801-0.8008728,16.0820313-0.0629883   c0.1611824,0.025547,0.4801636,0.1744881,0.8579102,0.0546875c1.6223831-0.5137024,3.6653023-0.3984985,5.137207-0.4511719   c1.0111084-0.0248413,2.0178242-0.0258789,3.0251484-0.0328979c-1.4439106,2.8460083-1.9514179,6.0255127-1.3703613,8.9640503   c1.8762436,9.29459,11.8958855,13.6301155,19.1404419,8.5733643c0.9668541,2.0649872,2.7843742,3.5373764,3.0480347,3.8699951   l0.0274658-0.0230713c0.8273926,0.770874,1.6967773,1.5140991,2.5599365,2.2271729   c5.1030045,4.2120819,4.9634285,5.9014702,7.735836,7.5234337c2.6370239,1.5435715,6.4083328-0.4116974,5.9926758-3.3129845   C70.0500336,58.8159828,60.606945,50.503231,59.0111275,48.5955849z M57.6449165,50.0794716   c-0.589222,0.6012115-2.6023712,2.2931557-3.2478638,2.8387451c-1.6079712-1.8712692-1.4548531-2.2807045-1.5489502-2.4306641   c0.0712852-0.1518211,0.6668701-0.6171417,1.2089233-1.1292725C55.69841,47.8078613,55.2275963,47.1915245,57.6449165,50.0794716z    M51.6830025,9.7562294c2.3252754,0,4.1167221,1.5868664,3.7006836,4.2119141   c-0.6054955,3.8227863-4.1734276,3.543808-4.2734375,3.6040039C45.0115967,17.5721474,47.0519218,9.7562294,51.6830025,9.7562294z    M50.8582954,19.5653114c9.0352631,0,13.0359344,11.5490322,11.3442383,14.0498047   c-1.2572365,0.644104-3.084549-0.6010361-7.4599609-0.6938477c-0.0874252-0.1004601-2.2864456-5.3351746-8.4033203-6.3691406   c-1.1332283-2.8067532-2.1471901-4.1375561-2.2026367-4.2397461   C46.0384827,20.6195278,48.3310738,19.5653114,50.8582954,19.5653114z M34.1761665,9.1029091   c1.4160156-0.1411133,2.9013672,0.4941406,3.6005859,1.4912109c1.1002541,1.5736723,0.5125961,4.2293406-1.0273438,5.4536133   c-1.4386139,1.1283436-4.1377869,1.1482506-5.5849628-0.0693359C28.9013062,14.0918493,30.8577251,9.4316139,34.1761665,9.1029091z    M17.2899342,9.1029091c5.7080917-0.5636892,5.5854282,7.7861328-0.362793,7.7861328   c-0.1098881-0.0196533-1.5512648,0.013258-2.6508789-0.9116211C13.3514576,15.2083778,14.0128231,9.4274473,17.2899342,9.1029091z    M24.9452076,32.7366982c-1.0089188-0.058342-0.0166569-0.7482758-11.4619141-0.4643555   c-2.5058918,0.0667229-3.9441872-0.0807228-6.3100586,0.7421875c-0.9825006,0.3388901-1.4744411,0.5301895-2.2685547-0.0273438   c-1.5025542-1.0409527,0.77179-5.0421314,1.6352539-6.652832c2.7871494-5.3601913,7.3129807-7.7113724,10.5600586-7.4360352   c8.8403606,0.1921806,12.1000824,11.0238705,11.4779053,13.4038086   C27.4156666,32.3261757,26.161211,32.3947792,24.9452076,32.7366982z M26.8470631,21.7908974   c5.2733326-4.8037205,13.4029675-3.9555187,17.2702656,4.6618042c-3.7392807,0.2877426-7.2202415,2.6232147-9.4621582,5.7678833   c-1.347168,0.0024414-2.6879902,0.0151367-4.0434589,0.0463867C30.979414,29.3053246,28.5673141,23.9524384,26.8470631,21.7908974z    M40.4286079,51.0609169c-3.1547852-1.3989258-5.6650391-4.6386719-6.3945313-8.2495117   c-1.1671906-5.9025917,2.9042397-12.3912144,8.4424438-14.0205078c4.5267601-1.3329945,9.9755211,1.0140724,11.8339233,8.9467773   C56.5919914,47.284008,48.2059288,54.4984665,40.4286079,51.0609169z M65.595108,63.647831   c-1.1391602-0.6665039-2.0161095-1.753418-2.9438438-2.9047852c-2.6067276-3.2322426-4.1050568-3.9088936-6.8381958-6.4096069   c1.3309402-1.1265488,2.5314636-2.1272507,3.2063599-2.8063965c1.4401665,1.3648834,9.253994,8.8247375,9.5810509,10.8356323   C68.7225647,63.2216454,66.8791885,64.3994827,65.595108,63.647831z"></path></g></svg>
