<svg height='100px' width='100px'  fill="#160F30" xmlns="http://www.w3.org/2000/svg" xmlns:xlink="http://www.w3.org/1999/xlink" version="1.1" x="0px" y="0px" viewBox="0 0 64 64" style="enable-background:new 0 0 64 64;" xml:space="preserve"><g><g><g><path d="M32,62.75C15.044,62.75,1.25,48.956,1.25,32S15.044,1.25,32,1.25S62.75,15.044,62.75,32S48.956,62.75,32,62.75z M32,2.75     C15.872,2.75,2.75,15.872,2.75,32S15.872,61.25,32,61.25S61.25,48.128,61.25,32S48.128,2.75,32,2.75z"></path></g><g><g><path d="M16.511,31.006c0.141,0.104,0.307,0.158,0.48,0.158c0.069,0,0.137-0.009,0.201-0.025l4.571-1.182l-0.403-1.622      l-2.603,0.673c2.282-4.972,7.575-8.362,13.24-8.362c7.732,0,14.022,6.411,14.022,14.29c0,0.849-0.074,1.699-0.219,2.528      l-0.058,0.329l1.614,0.294l0.058-0.329c0.162-0.924,0.244-1.874,0.244-2.822c0-0.956-0.088-1.892-0.247-2.802      c2.264-1.517,4.554-4.198,4.554-7.461c0-4.301-3.574-8.116-7.958-8.851l2.216-1.341l-0.837-1.439l-4.436,2.686      c-0.224,0.136-0.372,0.375-0.397,0.639c-0.025,0.264,0.076,0.528,0.272,0.705l3.829,3.469l1.089-1.251l-2.012-1.823      c3.632,0.592,6.595,3.701,6.595,7.206c0,2.364-1.649,4.43-3.321,5.708c-1.929-6.589-7.925-11.408-15.009-11.408      c-6.024,0-11.667,3.472-14.373,8.635l-0.155-2.214l-1.635,0.119l0.34,4.874C16.191,30.635,16.314,30.86,16.511,31.006z"></path></g><g><path d="M38.426,49.226c0.129-0.068,0.25-0.132,0.346-0.184c1.234-0.666,2.407-1.508,3.389-2.434      c1.012-0.955,2.224-2.62,3.056-3.878l0.083,2.573l1.638-0.055l-0.167-5.219c-0.008-0.266-0.142-0.514-0.357-0.664      c-0.214-0.149-0.489-0.186-0.736-0.097l-4.863,1.758l0.548,1.577l2.579-0.932c-0.77,1.18-1.937,2.806-2.893,3.708      c-0.881,0.83-1.933,1.585-3.043,2.184c-0.798,0.43-2.917,1.573-5.776,1.663h-0.745h-4.407c-5.577-1.889-9.615-7.876-9.615-14.29      v-0.335h-1.639v0.335c0,5.813,3.008,11.318,7.505,14.29h-9.106h-0.976h-0.463v1.673h1.439h12.582l0.189,0.062l0.02-0.062h4.46      c0.106,0.003,0.238,0.006,0.392,0.006c0.117,0,0.248-0.002,0.387-0.006H48.36h0.9v-1.673h-0.9H38.426z"></path></g></g></g></g></svg>
