<svg height='100px' width='100px'  fill="#FFFFFF" xmlns:x="http://ns.adobe.com/Extensibility/1.0/" xmlns:i="http://ns.adobe.com/AdobeIllustrator/10.0/" xmlns:graph="http://ns.adobe.com/Graphs/1.0/" xmlns="http://www.w3.org/2000/svg" xmlns:xlink="http://www.w3.org/1999/xlink" version="1.1" x="0px" y="0px" viewBox="-949 951 100 100" style="enable-background:new -949 951 100 100;" xml:space="preserve"><g><g i:extraneous="self"><path d="M-854,1034.1l-23.4-23.4c3.6-5.7,5.7-12.5,5.7-19.8c0-20.6-16.8-37.4-37.4-37.4c-20.6,0-37.4,16.8-37.4,37.4    c0,20.6,16.8,37.4,37.4,37.4c7.3,0,14-2.1,19.8-5.7l23.4,23.4c3.3,3.3,8.7,3.3,12,0v0C-850.7,1042.7-850.7,1037.4-854,1034.1z     M-909.1,974.6c-9,0-16.3,7.3-16.3,16.3c0,2.3-1.9,4.2-4.2,4.2c-2.3,0-4.2-1.9-4.2-4.2c0-13.7,11.1-24.8,24.8-24.8    c2.3,0,4.2,1.9,4.2,4.2C-904.9,972.7-906.8,974.6-909.1,974.6z"></path></g></g></svg>
