<svg height='100px' width='100px'  fill="#160F30" xmlns="http://www.w3.org/2000/svg" data-name="Layer 1" viewBox="0 0 100 100" x="0px" y="0px"><title>Info</title><path d="M50,0a50,50,0,1,0,50,50A50,50,0,0,0,50,0Zm2.07,18.5a5.65,5.65,0,0,1,5.66,6c0,4.08-3.32,7.59-7.12,7.59-3.33,0-5.63-2.45-5.62-6A7.4,7.4,0,0,1,52.07,18.5ZM50.59,79.2a12.25,12.25,0,0,1-3.76,1.91c-4.27,1.44-7.53-1.23-6.85-5.68.55-3.54,1.25-7.07,2.13-10.54,1.22-4.79,2.66-9.53,3.79-14.52L40,55.18,37.89,50.4l3.82-3.26h0l.11-.09h0A63.72,63.72,0,0,1,47.31,43a11,11,0,0,1,5.2-1.36c3-.17,4.72,1.89,4,4.79C55.17,51.72,53.56,57,52.12,62.3c-.95,3.49-1.81,7-2.71,10.53l.38.22c2.8-2.51,5.59-5,8.43-7.59l3.89,3.9C58.22,72.71,54.46,76,50.59,79.2Z"></path></svg>
